<?xml version="1.0" encoding="utf-8"?>
<!-- Generator: Adobe Illustrator 19.2.1, SVG Export Plug-In . SVG Version: 6.00 Build 0)  -->
<svg version="1.1" id="Layer_1" xmlns="http://www.w3.org/2000/svg" xmlns:xlink="http://www.w3.org/1999/xlink" x="0px" y="0px"
	 viewBox="0 0 404 224" style="enable-background:new 0 0 404 224;" xml:space="preserve">
<style type="text/css">
	.st0{fill:#FAFAFF;}
	.st1{fill:#635DA8;}
	.st2{fill:none;stroke:#635DA8;stroke-width:2;stroke-linecap:round;stroke-linejoin:round;}
	.st3{fill:none;stroke:#FF7396;stroke-width:2;stroke-linecap:round;stroke-linejoin:round;}
</style>
<title>analytics</title>
<path class="st0" d="M3,1h398c1.1,0,2,0.9,2,2v218c0,1.1-0.9,2-2,2H3c-1.1,0-2-0.9-2-2V3C1,1.9,1.9,1,3,1z"/>
<path class="st1" d="M401,2c0.6,0,1,0.4,1,1v218c0,0.6-0.4,1-1,1H3c-0.6,0-1-0.4-1-1V3c0-0.6,0.4-1,1-1H401 M401,0H3
	C1.3,0,0,1.3,0,3v218c0,1.7,1.3,3,3,3h398c1.7,0,3-1.3,3-3V3C404,1.3,402.7,0,401,0L401,0z"/>
<polyline class="st2" points="20,18 20,202 388,202 "/>
<polyline class="st3" points="20.5,152.5 62,140.5 95.5,150.5 144,140.5 178.5,149.5 223.5,120 268,114 307,75 327.5,84.5 
	362.5,47.5 376.5,62.5 "/>
</svg>
