<?xml version="1.0" encoding="utf-8"?>
<!-- Generator: Adobe Illustrator 19.2.1, SVG Export Plug-In . SVG Version: 6.00 Build 0)  -->
<svg version="1.1" id="Layer_1" xmlns="http://www.w3.org/2000/svg" xmlns:xlink="http://www.w3.org/1999/xlink" x="0px" y="0px"
	 viewBox="0 0 135 65.2" style="enable-background:new 0 0 135 65.2;" xml:space="preserve">
<style type="text/css">
	.st0{fill:#FAFAFF;}
	.st1{fill:#635DA8;}
</style>
<title>buttondown</title>
<path class="st0" d="M67.5,0C29.7,0,0,9.9,0,22.6v20.1c0,12.6,29.7,22.6,67.5,22.6S135,55.3,135,42.7V22.6C135,9.9,105.3,0,67.5,0z
	 M67.7,2c35.4,0,65.3,9.4,65.3,20.6s-29.9,20.6-65.3,20.6S2.3,33.7,2.3,22.6S32.3,2,67.7,2z M133,42.7c0,11.1-30.1,20.6-65.5,20.6
	S2,53.8,2,42.7V28.1c8,9.9,33.5,17,65.5,17s58.3-7.1,65.5-17V42.7L133,42.7z"/>
<path class="st1" d="M68,14.4c-37.8,0-67,9.9-67,22.5v5.7c0,12.7,29.2,22.5,67,22.5s67-9.9,67-22.6v-5.7
	C135,24.3,105.8,14.4,68,14.4z M67.9,16.4c35.4,0,65.3,9.4,65.3,20.5s-29.9,20.6-65.3,20.6S2.6,48.1,2.6,36.9S32.5,16.4,67.9,16.4z
	 M133,42.7c0,11.1-29.6,20.6-65,20.6S3,53.8,3,42.7v-0.1c7,9.9,33,17,65,17s58-7.1,65-17V42.7z"/>
</svg>
