<svg xmlns="http://www.w3.org/2000/svg" viewBox="0 0 135 65.21"><defs><style>.a{fill:#fff;}</style></defs><title>buttonup</title><path class="a" d="M49.5,77.89C11.74,77.89-18,87.8-18,100.45v20.11c0,12.65,29.74,22.55,67.5,22.55S117,133.2,117,120.55V100.45C117,87.8,87.26,77.89,49.5,77.89Zm0.17,2c35.41,0,65.33,9.41,65.33,20.55S85.08,121,49.67,121s-65.33-9.41-65.33-20.55S14.25,79.89,49.67,79.89ZM115,120.55c0,11.14-30.09,20.55-65.5,20.55S-16,131.69-16,120.55V106c8,9.87,33.51,17,65.5,17s58.27-7.11,65.5-17v14.53Z" transform="translate(18 -77.89)"/></svg>