<svg xmlns="http://www.w3.org/2000/svg" viewBox="0 0 135 65.21"><defs><style>.a{fill:#ff7396;}.b{fill:#fff;}</style></defs><title>buttondown</title><path class="a" d="M49.5,77.89C11.74,77.89-18,87.8-18,100.45v20.11c0,12.65,29.74,22.55,67.5,22.55S117,133.2,117,120.55V100.45C117,87.8,87.26,77.89,49.5,77.89Zm0.17,2c35.41,0,65.33,9.41,65.33,20.55S85.08,121,49.67,121s-65.33-9.41-65.33-20.55S14.25,79.89,49.67,79.89ZM115,120.55c0,11.14-30.09,20.55-65.5,20.55S-16,131.69-16,120.55V106c8,9.87,33.51,17,65.5,17s58.27-7.11,65.5-17v14.53Z" transform="translate(18 -77.89)"/><path class="b" d="M50,92.29c-37.76,0-67,9.91-67,22.55v5.71c0,12.65,29.24,22.55,67,22.55s67-9.91,67-22.55v-5.71C117,102.19,87.76,92.29,50,92.29Zm-0.11,2c35.41,0,65.33,9.41,65.33,20.55s-29.92,20.55-65.33,20.55S-15.44,126-15.44,114.84,14.48,94.29,49.89,94.29ZM115,120.55c0,11.14-29.59,20.55-65,20.55s-65-9.41-65-20.55v-0.14c7,9.87,33,17,65,17s58-7.11,65-17v0.14Z" transform="translate(18 -77.89)"/></svg>