<?xml version="1.0" encoding="utf-8"?>
<!-- Generator: Adobe Illustrator 19.2.1, SVG Export Plug-In . SVG Version: 6.00 Build 0)  -->
<svg version="1.1" id="Layer_1" xmlns="http://www.w3.org/2000/svg" xmlns:xlink="http://www.w3.org/1999/xlink" x="0px" y="0px"
	 viewBox="0 0 269.6 88.8" style="enable-background:new 0 0 269.6 88.8;" xml:space="preserve">
<style type="text/css">
	.st0{fill:#FF7396;}
</style>
<title>Google_2015_logo</title>
<path class="st0" d="M115.4,46.7c0,12.3-10,22.3-22.3,22.3S70.9,59,70.9,46.7s10-22.3,22.3-22.3S115.4,34.4,115.4,46.7z M105.6,46.7
	c0-8-5.8-13.4-12.5-13.4s-12.5,5.5-12.5,13.4s5.8,13.4,12.5,13.4S105.6,54.6,105.6,46.7L105.6,46.7L105.6,46.7z"/>
<path class="st0" d="M163.4,46.7c0,12.3-10,22.3-22.3,22.3s-22.2-10-22.2-22.3s10-22.3,22.2-22.3S163.4,34.4,163.4,46.7z
	 M153.6,46.7c0-8-5.8-13.4-12.5-13.4s-12.5,5.5-12.5,13.4s5.8,13.4,12.5,13.4S153.6,54.6,153.6,46.7L153.6,46.7L153.6,46.7z"/>
<path class="st0" d="M209.4,25.9v39.8c0,16.4-9.7,23.1-21.1,23.1c-8.6,0.1-16.4-5.1-19.7-13.1l8.5-3.5c1.5,3.6,5.2,7.9,11.2,7.9
	c7.3,0,11.8-4.5,11.8-13v-3.2h-0.3c-3,3.3-7.2,5.1-11.7,5c-11.1,0-21.3-9.7-21.3-22.1s10.1-22.2,21.3-22.2c4.4-0.1,8.7,1.7,11.7,5
	h0.3v-3.7L209.4,25.9L209.4,25.9z M200.8,46.8c0-7.8-5.2-13.5-11.8-13.5s-12.4,5.7-12.4,13.5s5.6,13.4,12.4,13.4
	S200.8,54.5,200.8,46.8z"/>
<path class="st0" d="M224.6,2.5v65h-9.5v-65C215.1,2.5,224.6,2.5,224.6,2.5z"/>
<path class="st0" d="M261.6,54l7.6,5c-4.1,6.2-11.1,9.9-18.5,9.8c-12.6,0-22-9.7-22-22.2c0-13.1,9.5-22.1,20.9-22.1
	s17.1,9.2,19,14.1l1,2.5L240,53.4c2.3,4.5,5.8,6.7,10.8,6.7S259.1,57.7,261.6,54L261.6,54L261.6,54z M238.4,46l19.8-8.2
	c-1.1-2.8-4.4-4.7-8.2-4.7c-6.7,0.3-11.9,6-11.6,12.7C238.4,45.9,238.4,45.9,238.4,46L238.4,46z"/>
<path class="st0" d="M34.9,40.9v-9.4h31.7c0.3,1.9,0.5,3.8,0.5,5.7c0,7.1-1.9,15.8-8.2,22c-6,6.3-13.8,9.7-24,9.7
	c-19,0-35-15.5-35-34.4S16,0,34.9,0c8.8-0.1,17.3,3.3,23.6,9.5l-6.6,6.6c-4.6-4.4-10.7-6.8-17-6.7c-13.6,0-24.7,11.1-24.7,24.7l0,0
	c0,0.1,0,0.2,0,0.3c-0.2,13.6,10.8,24.8,24.4,25c0,0,0,0,0,0h0.3c9,0,14.1-3.6,17.4-6.9c2.7-2.7,4.4-6.5,5.1-11.6L34.9,40.9
	C34.9,40.9,34.9,40.9,34.9,40.9z"/>
</svg>
