<svg xmlns="http://www.w3.org/2000/svg" viewBox="0 0 177.43 128.95"><defs><style>.a{fill:#ff7396;}.b{fill:#fff;}</style></defs><title>handshake-hands</title><path class="a" d="M85.41,102.61l-12.86,5.88c-4.12,3-3,10.8-.05,14.92h0a9.28,9.28,0,0,0,12.92,2.05l56.66-41.11" transform="translate(-3.04 -0.57)"/><path class="b" d="M80,128.22A10.24,10.24,0,0,1,71.69,124a16.1,16.1,0,0,1-2.83-8.42c-0.16-3.52.94-6.32,3.1-7.89l0.17-.1L85,101.7a1,1,0,1,1,.83,1.82l-12.76,5.83c-2.08,1.58-2.28,4.51-2.2,6.13a14.24,14.24,0,0,0,2.45,7.34,8.26,8.26,0,0,0,11.52,1.83l56.66-41.11a1,1,0,1,1,1.17,1.62L86,126.27A10.2,10.2,0,0,1,80,128.22Z" transform="translate(-3.04 -0.57)"/><path class="a" d="M71.75,87.79L54.56,100.43a8.9,8.9,0,0,0-2.05,12.92h0a9.28,9.28,0,0,0,12.92,2.05l20-12.79" transform="translate(-3.04 -0.57)"/><path class="b" d="M60,118.17a10.26,10.26,0,0,1-8.32-4.23,9.84,9.84,0,0,1-2-7.49A10.35,10.35,0,0,1,54,99.62L71.16,87a1,1,0,1,1,1.18,1.61L55.15,101.24a8.38,8.38,0,0,0-3.48,5.51,7.9,7.9,0,0,0,1.64,6,8.26,8.26,0,0,0,11.53,1.85l20-12.83A1,1,0,0,1,86,103.45L66,116.25A10.09,10.09,0,0,1,60,118.17Z" transform="translate(-3.04 -0.57)"/><path class="a" d="M62.3,72.53L36.26,92a9.28,9.28,0,0,0-2.05,12.92h0a9.28,9.28,0,0,0,12.92,2.05L71.75,87.79" transform="translate(-3.04 -0.57)"/><path class="b" d="M41.7,109.69a10.25,10.25,0,0,1-6-18.54l26-19.42a1,1,0,0,1,1.2,1.6l-26,19.43a8.25,8.25,0,1,0,9.68,13.36L71.14,87a1,1,0,1,1,1.23,1.58L47.74,107.72A10.26,10.26,0,0,1,41.7,109.69Z" transform="translate(-3.04 -0.57)"/><path class="a" d="M82.91,34.4l-64,46.47c-4.65,3.38-6,9.51-3,13.63h0c3,4.12,9.24,4.72,13.89,1.35L62.3,72.53" transform="translate(-3.04 -0.57)"/><path class="b" d="M23.15,99A9.87,9.87,0,0,1,15,95.08c-3.32-4.57-1.86-11.31,3.25-15l64-46.47a1,1,0,0,1,1.17,1.62l-64,46.47C15.24,84.73,14,90.22,16.65,93.9A7.7,7.7,0,0,0,22.26,97a10.11,10.11,0,0,0,6.89-2L61.72,71.72a1,1,0,0,1,1.16,1.63L30.32,96.65A12.25,12.25,0,0,1,23.15,99Z" transform="translate(-3.04 -0.57)"/><path class="a" d="M179.47,56.2S162.67,73,150.67,79.5,94.05,58,94.05,58L103,24.5" transform="translate(-3.04 -0.57)"/><path class="b" d="M146,81.44c-16.3,0-50.88-21.57-52.52-22.6a1,1,0,0,1-.44-1.1L102,24.24a1,1,0,0,1,1.93.51L95.21,57.54c12.76,7.93,45.71,26.09,55,21.08,11.74-6.36,28.41-23,28.58-23.13a1,1,0,0,1,1.41,1.41c-0.69.69-17,17-29,23.47A10.72,10.72,0,0,1,146,81.44Z" transform="translate(-3.04 -0.57)"/><polygon class="a" points="54.29 15.43 113.13 23.93 144.98 49.93 128.85 94.93 91.01 112.43 20.4 73.94 54.29 15.43"/><path class="a" d="M30.07,11.62L61.45,5.28a13.74,13.74,0,0,1,6.41.23l32.15,9a9.28,9.28,0,0,1,8.87,9.62h0a9.28,9.28,0,0,1-9.62,8.87L70.74,30.19l-5.07,2.53" transform="translate(-3.04 -0.57)"/><path class="b" d="M99.64,34H99.22L70.93,31.21l-4.82,2.41a1,1,0,0,1-.89-1.79l5.07-2.53a1,1,0,0,1,.54-0.1L99.35,32A8.25,8.25,0,0,0,100,15.46l-0.23,0-32.15-9a12.81,12.81,0,0,0-5.94-.21L30.27,12.6a1,1,0,0,1-.4-2L61.25,4.3a14.79,14.79,0,0,1,6.87.25l32,8.92A10.25,10.25,0,0,1,99.64,34Z" transform="translate(-3.04 -0.57)"/><path class="a" d="M95.05,103.91l12.86,5.88c4.12,3,3,10.8.05,14.92h0A9.28,9.28,0,0,1,95,126.76l-51-30.16a13.18,13.18,0,0,1-1.29-.87L28.69,84.95c-0.52-.39-5-3.83-5.46-4.29L4,59.92" transform="translate(-3.04 -0.57)"/><path class="b" d="M100.46,129.52a10.19,10.19,0,0,1-6-1.95L43.58,97.47a14.22,14.22,0,0,1-1.39-.94L28.08,85.74C26.2,84.3,23,81.81,22.52,81.35L3.3,60.6a1,1,0,1,1,1.47-1.36L24,80c0.25,0.25,2.45,2,5.33,4.17L43.4,94.94a12.32,12.32,0,0,0,1.2.81l51,30.16a8.29,8.29,0,0,0,11.6-1.78,14.24,14.24,0,0,0,2.45-7.34c0.07-1.62-.12-4.55-2.2-6.12l-12.76-5.83a1,1,0,1,1,.83-1.82l12.86,5.88,0.17,0.1c2.16,1.57,3.26,4.37,3.1,7.89a16.11,16.11,0,0,1-2.83,8.42A10.24,10.24,0,0,1,100.46,129.52Z" transform="translate(-3.04 -0.57)"/><path class="a" d="M108.71,89.09l17.19,12.64A8.9,8.9,0,0,1,128,114.65h0A9.28,9.28,0,0,1,115,116.71l-20-12.79" transform="translate(-3.04 -0.57)"/><path class="b" d="M120.46,119.47a10.2,10.2,0,0,1-6-2L94.51,104.75a1,1,0,1,1,1.08-1.68l20,12.79a8.27,8.27,0,0,0,11.57-1.8,7.91,7.91,0,0,0,1.65-6,8.37,8.37,0,0,0-3.48-5.5L108.12,89.9a1,1,0,0,1,1.19-1.61l17.19,12.64a10.35,10.35,0,0,1,4.28,6.82,9.85,9.85,0,0,1-2,7.5A10.22,10.22,0,0,1,120.46,119.47Z" transform="translate(-3.04 -0.57)"/><path class="a" d="M118.17,73.83l26,19.43a9.28,9.28,0,0,1,2.05,12.92h0a9.28,9.28,0,0,1-12.92,2.05L108.71,89.09" transform="translate(-3.04 -0.57)"/><path class="b" d="M138.74,111a10.14,10.14,0,0,1-6-1.95L108.1,89.88a1,1,0,1,1,1.23-1.58L134,107.45a8.25,8.25,0,0,0,9.66-13.38L117.57,74.63a1,1,0,0,1,1.2-1.6l26,19.43a10.24,10.24,0,0,1-4.42,18.4A10.51,10.51,0,0,1,138.74,111Z" transform="translate(-3.04 -0.57)"/><path class="a" d="M97.56,35.7l64,46.47c4.65,3.38,6,9.51,3,13.63h0c-3,4.12-9.24,4.72-13.89,1.35l-32.56-23.3" transform="translate(-3.04 -0.57)"/><path class="b" d="M157.3,100.32a12.21,12.21,0,0,1-7.16-2.38l-32.56-23.3A1,1,0,0,1,118.75,73l32.56,23.3a10.1,10.1,0,0,0,6.89,2A7.49,7.49,0,0,0,165,88.92,10.1,10.1,0,0,0,161,83L97,36.51a1,1,0,1,1,1.17-1.62l64,46.47A12.1,12.1,0,0,1,167,88.48a9.48,9.48,0,0,1-8.55,11.79C158,100.31,157.67,100.32,157.3,100.32Z" transform="translate(-3.04 -0.57)"/><path class="a" d="M106.3,36.7l-15.86.64-20.59,14a10.31,10.31,0,0,1-7.21,1.74c-4.94-.69-8.29-2.78-9.92-6.46h0a9.28,9.28,0,0,1,4.72-12.2L84.06,14.32a13.74,13.74,0,0,1,5.87-2.57L116,3.35a11.1,11.1,0,0,1,4.91-.43l23.47,3.22a10.71,10.71,0,0,0,6.5-2.2L154,1.57" transform="translate(-3.04 -0.57)"/><path class="b" d="M64,54.2a10.88,10.88,0,0,1-1.51-.11c-5.36-.75-9-3.12-10.69-7a10.28,10.28,0,0,1,5.12-13.47L83.46,13.52a14.8,14.8,0,0,1,6.23-2.74l26-8.39a12.17,12.17,0,0,1,5.36-.47l23.4,3.21a9.77,9.77,0,0,0,5.83-2l3.1-2.37a1,1,0,1,1,1.21,1.59l-3.1,2.37a11.77,11.77,0,0,1-7.11,2.4h-0.14L120.79,3.91a10.15,10.15,0,0,0-4.47.39L90.24,12.71l-0.13,0a12.79,12.79,0,0,0-5.45,2.38L58,35.24a1,1,0,0,1-.2.12,8.28,8.28,0,0,0-4.21,10.88c1.46,3.29,4.45,5.21,9.14,5.87a9.27,9.27,0,0,0,6.51-1.57l20.59-14a1,1,0,0,1,.52-0.17l15.87-.64a1,1,0,1,1,.08,2l-15.58.63L70.41,52.2A11.37,11.37,0,0,1,64,54.2Z" transform="translate(-3.04 -0.57)"/></svg>