<svg xmlns="http://www.w3.org/2000/svg" viewBox="0 0 217.5 76"><defs><style>.a{fill:#ff7396;}.b{fill:#635da8;}.c{fill:none;}.d{fill:#fafaff;}</style></defs><title>handshake-arm-right</title><path class="a" d="M216.4,6.6l6.6-.1" transform="translate(-6.5 -5.5)"/><path class="b" d="M216.4,7.6a1,1,0,0,1-1-1,0.94,0.94,0,0,1,1-1l6.6-.1h0a1,1,0,0,1,1,1,0.94,0.94,0,0,1-1,1l-6.6.1h0Z" transform="translate(-6.5 -5.5)"/><line class="c" x1="185.8" y1="1.4" x2="201.5" y2="1.2"/><path class="b" d="M192.3,7.9a1,1,0,0,1-1-1,0.94,0.94,0,0,1,1-1L208,5.7a0.94,0.94,0,0,1,1,1,0.94,0.94,0,0,1-1,1l-15.7.2h0Z" transform="translate(-6.5 -5.5)"/><line class="c" x1="155.9" y1="1.7" x2="180.3" y2="1.4"/><path class="b" d="M162.4,8.2a1,1,0,0,1-1-1,0.94,0.94,0,0,1,1-1L186.8,6h0a1,1,0,0,1,1,1,0.94,0.94,0,0,1-1,1l-24.4.2h0Z" transform="translate(-6.5 -5.5)"/><path class="d" d="M174.2,78.9l-158,1.6a8.09,8.09,0,0,1-8.1-7.9L7.5,12.3A3.56,3.56,0,0,1,11,8.7L158.7,7.2" transform="translate(-6.5 -5.5)"/><path class="b" d="M16.1,81.5a8.77,8.77,0,0,1-6.3-2.6,8.86,8.86,0,0,1-2.7-6.3L6.5,12.3A4.63,4.63,0,0,1,7.8,9.1,4.72,4.72,0,0,1,11,7.7L158.7,6.2h0a1,1,0,0,1,1,1,0.94,0.94,0,0,1-1,1L11,9.7a2.5,2.5,0,0,0-1.8.8,2.41,2.41,0,0,0-.7,1.8L9.1,72.6a6.89,6.89,0,0,0,2.1,4.9,7,7,0,0,0,5,2l158-1.6h0a1,1,0,0,1,1,1,0.94,0.94,0,0,1-1,1L16.1,81.5h0Z" transform="translate(-6.5 -5.5)"/><line class="c" x1="189.6" y1="73.2" x2="172.8" y2="73.4"/><path class="b" d="M179.3,79.9a1,1,0,0,1-1-1,0.94,0.94,0,0,1,1-1l16.9-.2a1,1,0,0,1,1,1,0.94,0.94,0,0,1-1,1l-16.9.2h0Z" transform="translate(-6.5 -5.5)"/><line class="c" x1="208.3" y1="73" x2="199.5" y2="73.1"/><path class="b" d="M206,79.6a1,1,0,0,1-1-1,0.94,0.94,0,0,1,1-1l8.8-.1h0a1,1,0,0,1,1,1,0.94,0.94,0,0,1-1,1l-8.8.1h0Z" transform="translate(-6.5 -5.5)"/><polyline class="a" points="7.5 31.6 7.7 48.7 7.8 55.2 7.9 65.8"/><path class="b" d="M14.4,72.2a1,1,0,0,1-1-.9L13,37.1a0.94,0.94,0,0,1,1-1,1,1,0,0,1,1,1l0.4,34.2a1,1,0,0,1-1,.9h0Z" transform="translate(-6.5 -5.5)"/><line class="c" x1="7.3" y1="8.5" x2="7.4" y2="22.2"/><path class="b" d="M13.9,28.2a0.85,0.85,0,0,1-1-.8L12.8,13.8a1,1,0,0,1,1-1,1.08,1.08,0,0,1,1,1l0.1,13.5a0.83,0.83,0,0,1-1,.9h0Z" transform="translate(-6.5 -5.5)"/></svg>