<svg xmlns="http://www.w3.org/2000/svg" viewBox="0 0 175.47 126.96"><defs><style>.a{fill:#f4cb93;}.b{fill:#e3b270;}</style></defs><title>handshake-hands</title><path class="a" d="M82.37,102l-12.86,5.88c-4.12,3-3,10.8-.05,14.92h0a9.28,9.28,0,0,0,12.92,2.05L139,83.78" transform="translate(-0.96 -1)"/><path class="a" d="M68.71,87.22L51.52,99.86a8.9,8.9,0,0,0-2.47,12.34q0.2,0.3.42,0.58h0a9.28,9.28,0,0,0,12.92,2.05l20-12.79" transform="translate(-0.96 -1)"/><path class="a" d="M59.26,72l-26,19.47a9.28,9.28,0,0,0-2,12.92h0a9.28,9.28,0,0,0,12.92,2.05L68.71,87.22" transform="translate(-0.96 -1)"/><path class="a" d="M79.87,33.83l-64,46.47c-4.65,3.38-6,9.51-3,13.63h0c3,4.12,9.24,4.72,13.89,1.35L59.26,72" transform="translate(-0.96 -1)"/><polygon class="b" points="53.33 14.43 112.17 22.93 144.02 48.93 127.89 93.93 90.05 111.43 19.44 72.94 53.33 14.43"/><polyline class="a" points="72.52 17.2 112.17 22.93 144.02 48.93 137.46 67.23"/><path class="b" d="M92,103.34l12.86,5.88c4.12,3,3,10.8.05,14.92h0a9.28,9.28,0,0,1-13,2.05L41,96a13.18,13.18,0,0,1-1.29-.87l-14-10.78c-0.52-.39-5-3.83-5.46-4.29L1,59.35,27,11,58.41,4.71a13.74,13.74,0,0,1,6.41.23l32.15,9a9.28,9.28,0,0,1,8.87,9.62h0a9.28,9.28,0,0,1-9.62,8.87L67.7,29.62l-5.07,2.53" transform="translate(-0.96 -1)"/><path class="b" d="M105.67,88.52l17.19,12.64a8.9,8.9,0,0,1,2.52,12.33q-0.2.3-.42,0.59h0a9.28,9.28,0,0,1-13,2.09l0,0L92,103.35" transform="translate(-0.96 -1)"/><path class="b" d="M115.13,73.26l26,19.43a9.28,9.28,0,0,1,2.05,12.92h0a9.28,9.28,0,0,1-12.92,2.05L105.67,88.52" transform="translate(-0.96 -1)"/><path class="a" d="M103.26,36.13l-15.86.64-20.59,14a10.31,10.31,0,0,1-7.21,1.74c-4.94-.69-8.29-2.78-9.92-6.46h0a9.28,9.28,0,0,1,4.72-12.2L81,13.75a13.74,13.74,0,0,1,5.87-2.57L113,2.78a11.1,11.1,0,0,1,4.91-.43l23.47,3.22a10.71,10.71,0,0,0,6.5-2.2L151,1l25.47,4.5V55.63s-16.8,16.8-28.8,23.3S96.57,36.62,96.57,36.62L100,23.93" transform="translate(-0.96 -1)"/><path class="b" d="M94.52,35.13l64,46.47c4.65,3.38,6,9.51,3,13.63h0c-3,4.12-9.24,4.72-13.89,1.35l-32.56-23.3" transform="translate(-0.96 -1)"/></svg>