<svg xmlns="http://www.w3.org/2000/svg" viewBox="0 0 216.2 75.6"><defs><style>.a{fill:none;}.b{fill:#635da8;}.c{fill:#fafaff;}</style></defs><title>handshake-arm-left</title><line class="a" x1="16.1" y1="74.6" x2="8.3" y2="74.6"/><path class="b" d="M16.2,81.1a1,1,0,0,1-1-1,0.94,0.94,0,0,1,1-1L24,79h0a1,1,0,0,1,1,1,0.94,0.94,0,0,1-1,1l-7.8.1h0Z" transform="translate(-7.9 -5.5)"/><line class="a" x1="43.4" y1="74.3" x2="25.9" y2="74.5"/><path class="b" d="M33.8,81a1,1,0,0,1-1-1,0.94,0.94,0,0,1,1-1l17.4-.2h0a1,1,0,0,1,1,1,0.94,0.94,0,0,1-1,1L33.8,81h0Z" transform="translate(-7.9 -5.5)"/><path class="c" d="M48,8L218.5,6.5a4.14,4.14,0,0,1,4.2,4.1l0.5,59.7a8.09,8.09,0,0,1-7.9,8.1L56,79.8" transform="translate(-7.9 -5.5)"/><path class="b" d="M56,80.8a1,1,0,0,1-1-1,0.94,0.94,0,0,1,1-1l159.2-1.4a6.9,6.9,0,0,0,6.9-7.1l-0.5-59.7a3.07,3.07,0,0,0-3.1-3.1L48,9a0.94,0.94,0,0,1-1-1,0.94,0.94,0,0,1,1-1L218.5,5.5A4.75,4.75,0,0,1,222.1,7a5.33,5.33,0,0,1,1.5,3.6l0.5,59.7a9.09,9.09,0,0,1-8.9,9.1L56,80.8h0Z" transform="translate(-7.9 -5.5)"/><line class="a" x1="14.2" y1="2.7" x2="32.6" y2="2.6"/><path class="b" d="M22.1,9.2a1,1,0,0,1-1-1,0.94,0.94,0,0,1,1-1L40.5,7a1,1,0,0,1,1,1,0.94,0.94,0,0,1-1,1l-18.4.2h0Z" transform="translate(-7.9 -5.5)"/><line class="a" x1="1" y1="2.8" x2="6.7" y2="2.8"/><path class="b" d="M8.9,9.3a1,1,0,0,1-1-1,0.94,0.94,0,0,1,1-1l5.7-.1h0a1,1,0,0,1,1,1,0.94,0.94,0,0,1-1,1l-5.7.1h0Z" transform="translate(-7.9 -5.5)"/><line class="a" x1="208.5" y1="23.4" x2="208.9" y2="65"/><path class="b" d="M216.8,71.2a0.92,0.92,0,0,1-1-.9L215.4,29a0.81,0.81,0,0,1,1-.8h0a0.91,0.91,0,0,1,1,.8l0.4,41.3a0.83,0.83,0,0,1-1,.9h0Z" transform="translate(-7.9 -5.5)"/><line class="a" x1="208.4" y1="7" x2="208.5" y2="18.1"/><path class="b" d="M216.4,24.2a0.91,0.91,0,0,1-1-.8l-0.1-11a0.94,0.94,0,0,1,1-1,1,1,0,0,1,1,1l0.1,11a0.85,0.85,0,0,1-1,.8h0Z" transform="translate(-7.9 -5.5)"/></svg>