<?xml version="1.0" encoding="utf-8"?>
<!-- Generator: Adobe Illustrator 19.2.1, SVG Export Plug-In . SVG Version: 6.00 Build 0)  -->
<svg version="1.1" id="Layer_1" xmlns="http://www.w3.org/2000/svg" xmlns:xlink="http://www.w3.org/1999/xlink" x="0px" y="0px"
	 viewBox="0 0 231.5 86.5" style="enable-background:new 0 0 231.5 86.5;" xml:space="preserve">
<style type="text/css">
	.st0{fill:#FF7396;}
	.st1{fill:#FFFFFF;}
</style>
<g>
	<path class="st0" d="M216.4,6.6l6.6-0.1"/>
	<path class="st1" d="M216.4,7.6c-0.5,0-1-0.4-1-1c0-0.6,0.4-1,1-1l6.6-0.1c0,0,0,0,0,0c0.5,0,1,0.4,1,1c0,0.6-0.4,1-1,1L216.4,7.6
		C216.4,7.6,216.4,7.6,216.4,7.6z"/>
</g>
<g>
	<line class="st0" x1="192.3" y1="6.9" x2="208" y2="6.7"/>
	<path class="st1" d="M192.3,7.9c-0.5,0-1-0.4-1-1c0-0.6,0.4-1,1-1L208,5.7c0.6,0,1,0.4,1,1c0,0.6-0.4,1-1,1L192.3,7.9
		C192.3,7.9,192.3,7.9,192.3,7.9z"/>
</g>
<g>
	<line class="st0" x1="162.4" y1="7.2" x2="186.8" y2="6.9"/>
	<path class="st1" d="M162.4,8.2c-0.5,0-1-0.4-1-1c0-0.6,0.4-1,1-1l24.4-0.2c0,0,0,0,0,0c0.5,0,1,0.4,1,1c0,0.6-0.4,1-1,1L162.4,8.2
		C162.4,8.2,162.4,8.2,162.4,8.2z"/>
</g>
<g>
	<path class="st0" d="M174.2,78.9l-158,1.6c-4.4,0-8-3.5-8.1-7.9L7.5,12.3c0-2,1.6-3.6,3.5-3.6l147.7-1.5"/>
	<path class="st1" d="M16.1,81.5c-2.4,0-4.6-0.9-6.3-2.6c-1.7-1.7-2.7-3.9-2.7-6.3L6.5,12.3c0-1.2,0.5-2.4,1.3-3.2s2-1.4,3.2-1.4
		l147.7-1.5c0,0,0,0,0,0c0.5,0,1,0.4,1,1c0,0.6-0.4,1-1,1L11,9.7c-0.7,0-1.3,0.3-1.8,0.8c-0.5,0.5-0.7,1.1-0.7,1.8l0.6,60.3
		c0,1.9,0.8,3.6,2.1,4.9c1.3,1.3,3.1,2,5,2l158-1.6c0,0,0,0,0,0c0.5,0,1,0.4,1,1c0,0.6-0.4,1-1,1L16.1,81.5
		C16.2,81.5,16.1,81.5,16.1,81.5z"/>
</g>
<g>
	<line class="st0" x1="196.1" y1="78.7" x2="179.3" y2="78.9"/>
	<path class="st1" d="M179.3,79.9c-0.5,0-1-0.4-1-1c0-0.6,0.4-1,1-1l16.9-0.2c0.5,0,1,0.4,1,1s-0.4,1-1,1L179.3,79.9
		C179.3,79.9,179.3,79.9,179.3,79.9z"/>
</g>
<g>
	<line class="st0" x1="214.8" y1="78.5" x2="206" y2="78.6"/>
	<path class="st1" d="M206,79.6c-0.5,0-1-0.4-1-1c0-0.6,0.4-1,1-1l8.8-0.1c0,0,0,0,0,0c0.5,0,1,0.4,1,1c0,0.6-0.4,1-1,1L206,79.6
		C206,79.6,206,79.6,206,79.6z"/>
</g>
<g>
	<polyline class="st0" points="14,37.1 14.2,54.2 14.3,60.7 14.4,71.3 	"/>
	<path class="st1" d="M14.4,72.2c-0.5,0-1-0.4-1-0.9L13,37.1c0-0.6,0.4-1,1-1c0.5,0,1,0.4,1,1l0.4,34.2
		C15.4,71.8,14.9,72.2,14.4,72.2C14.4,72.2,14.4,72.2,14.4,72.2z"/>
</g>
<g>
	<line class="st0" x1="13.8" y1="14" x2="13.9" y2="27.7"/>
	<path class="st1" d="M13.9,28.2c-0.5,0-1-0.2-1-0.8l-0.1-13.6c0-0.6,0.4-0.9,1-1c0.5,0,1,0.5,1,1l0.1,13.5
		C14.9,28,14.5,28.2,13.9,28.2C13.9,28.2,13.9,28.2,13.9,28.2z"/>
</g>
</svg>
