<?xml version="1.0" encoding="utf-8"?>
<!-- Generator: Adobe Illustrator 19.2.1, SVG Export Plug-In . SVG Version: 6.00 Build 0)  -->
<svg version="1.1" id="Layer_1" xmlns="http://www.w3.org/2000/svg" xmlns:xlink="http://www.w3.org/1999/xlink" x="0px" y="0px"
	 viewBox="0 0 231.5 86.5" style="enable-background:new 0 0 231.5 86.5;" xml:space="preserve">
<style type="text/css">
	.st0{fill:#FF7396;}
	.st1{fill:#FFFFFF;}
</style>
<g>
	<line class="st0" x1="24" y1="80.1" x2="16.2" y2="80.1"/>
	<path class="st1" d="M16.2,81.1c-0.5,0-1-0.4-1-1c0-0.6,0.4-1,1-1l7.8-0.1c0,0,0,0,0,0c0.5,0,1,0.4,1,1c0,0.6-0.4,1-1,1L16.2,81.1
		C16.2,81.1,16.2,81.1,16.2,81.1z"/>
</g>
<g>
	<line class="st0" x1="51.3" y1="79.8" x2="33.8" y2="80"/>
	<path class="st1" d="M33.8,81c-0.5,0-1-0.4-1-1c0-0.6,0.4-1,1-1l17.4-0.2c0,0,0,0,0,0c0.5,0,1,0.4,1,1c0,0.6-0.4,1-1,1L33.8,81
		C33.8,81,33.8,81,33.8,81z"/>
</g>
<g>
	<path class="st0" d="M48,8l170.5-1.5c2.3,0,4.2,1.8,4.2,4.1l0.5,59.7c0,4.4-3.5,8-7.9,8.1L56,79.8"/>
	<path class="st1" d="M56,80.8c-0.5,0-1-0.4-1-1c0-0.6,0.4-1,1-1l159.2-1.4c3.9,0,7-3.2,6.9-7.1l-0.5-59.7c0-0.8-0.3-1.6-0.9-2.2
		s-1.4-0.9-2.2-0.9L48,9c-0.6,0-1-0.4-1-1s0.4-1,1-1l170.5-1.5c1.4,0,2.7,0.5,3.6,1.5s1.5,2.2,1.5,3.6l0.5,59.7c0,5-4,9-8.9,9.1
		L56,80.8C56,80.8,56,80.8,56,80.8z"/>
</g>
<g>
	<line class="st0" x1="22.1" y1="8.2" x2="40.5" y2="8.1"/>
	<path class="st1" d="M22.1,9.2c-0.5,0-1-0.4-1-1c0-0.6,0.4-1,1-1l18.4-0.2c0.5,0,1,0.4,1,1c0,0.6-0.4,1-1,1L22.1,9.2
		C22.1,9.2,22.1,9.2,22.1,9.2z"/>
</g>
<g>
	<line class="st0" x1="8.9" y1="8.3" x2="14.6" y2="8.3"/>
	<path class="st1" d="M8.9,9.3c-0.5,0-1-0.4-1-1c0-0.6,0.4-1,1-1l5.7-0.1c0,0,0,0,0,0c0.5,0,1,0.4,1,1c0,0.6-0.4,1-1,1L8.9,9.3
		C8.9,9.3,8.9,9.3,8.9,9.3z"/>
</g>
<g>
	<line class="st0" x1="216.4" y1="28.9" x2="216.8" y2="70.5"/>
	<path class="st1" d="M216.8,71.2c-0.5,0-1-0.3-1-0.9L215.4,29c0-0.6,0.4-0.8,1-0.8c0,0,0,0,0,0c0.5,0,1,0.3,1,0.8l0.4,41.3
		C217.8,71,217.4,71.2,216.8,71.2C216.8,71.2,216.8,71.2,216.8,71.2z"/>
</g>
<g>
	<line class="st0" x1="216.3" y1="12.5" x2="216.4" y2="23.6"/>
	<path class="st1" d="M216.4,24.2c-0.5,0-1-0.3-1-0.8l-0.1-11c0-0.6,0.4-1,1-1c0.6,0,1,0.5,1,1l0.1,11
		C217.4,24,216.9,24.2,216.4,24.2C216.4,24.2,216.4,24.2,216.4,24.2z"/>
</g>
</svg>
