<?xml version="1.0" encoding="utf-8"?>
<!-- Generator: Adobe Illustrator 19.2.1, SVG Export Plug-In . SVG Version: 6.00 Build 0)  -->
<svg version="1.1" id="Layer_1" xmlns="http://www.w3.org/2000/svg" xmlns:xlink="http://www.w3.org/1999/xlink" x="0px" y="0px"
	 viewBox="0 0 177.4 129" style="enable-background:new 0 0 177.4 129;" xml:space="preserve">
<style type="text/css">
	.st0{fill:#FAFAFF;}
	.st1{fill:#FF7396;}
</style>
<title>handshake-hands</title>
<path class="st0" d="M82.4,102l-12.9,5.9c-4.1,3-3,10.8-0.1,14.9l0,0c3,4.1,8.8,5,12.9,2.1L139,83.8"/>
<path class="st1" d="M77,127.7c-3.3,0-6.4-1.6-8.3-4.2c-1.7-2.5-2.7-5.4-2.9-8.4c-0.2-3.5,0.9-6.3,3.1-7.9l0.2-0.1l12.9-5.9
	c0.5-0.2,1.1,0,1.3,0.5c0.2,0.5,0,1.1-0.5,1.3L70,108.8c-2.1,1.6-2.3,4.5-2.2,6.1c0.1,2.6,1,5.2,2.4,7.3c2.7,3.7,7.8,4.5,11.5,1.8
	L138.5,83c0.4-0.3,1.1-0.3,1.4,0.2c0.3,0.4,0.3,1.1-0.2,1.4h-0.1L83,125.7C81.3,127,79.2,127.7,77,127.7z"/>
<path class="st0" d="M68.7,87.3L51.5,99.9c-4.1,2.7-5.2,8.3-2.5,12.3c0.1,0.2,0.3,0.4,0.4,0.6l0,0c3,4.1,8.8,5,12.9,2.1l20-12.8"/>
<path class="st1" d="M57,117.6c-3.3,0-6.4-1.6-8.3-4.2c-1.7-2.1-2.4-4.8-2-7.5c0.5-2.8,2-5.2,4.3-6.8l17.1-12.6
	c0.4-0.4,1.1-0.3,1.4,0.1c0.4,0.4,0.3,1.1-0.1,1.4l0,0h-0.1l-17.2,12.7c-1.9,1.3-3.1,3.3-3.5,5.5c-0.3,2.1,0.3,4.3,1.6,6
	c2.7,3.7,7.8,4.5,11.5,1.8l20-12.8c0.5-0.3,1.1-0.2,1.5,0.3c0.3,0.5,0.2,1.1-0.3,1.5l0,0l-20,12.8C61.3,117,59.2,117.7,57,117.6z"/>
<path class="st0" d="M59.3,72l-26,19.5c-4.1,3-5,8.8-2,12.9l0,0c3,4.1,8.8,5,12.9,2.1l24.5-19.2"/>
<path class="st1" d="M38.7,109.2c-5.7,0-10.2-4.6-10.2-10.3c0-3.3,1.6-6.3,4.2-8.3l26-19.4c0.4-0.3,1.1-0.2,1.4,0.2
	c0.3,0.4,0.2,1.1-0.2,1.4l-26,19.4c-3.7,2.6-4.6,7.8-2,11.5c2.6,3.7,7.8,4.6,11.5,2l0.2-0.1l24.6-19.1c0.4-0.4,1-0.3,1.4,0.1
	s0.3,1-0.1,1.4c0,0-0.1,0.1-0.1,0.1l-24.6,19.2C43,108.5,40.8,109.2,38.7,109.2z"/>
<path class="st0" d="M79.9,33.9l-64,46.5c-4.6,3.4-6,9.5-3,13.6l0,0c3,4.1,9.2,4.7,13.9,1.3L59.3,72"/>
<path class="st1" d="M20.1,98.5c-3.2,0.1-6.2-1.4-8.1-3.9c-3.3-4.6-1.9-11.3,3.3-15l64-46.5c0.5-0.3,1.1-0.2,1.4,0.3
	c0.3,0.4,0.2,1-0.2,1.3l-64,46.5c-4.2,3-5.4,8.5-2.8,12.2c1.3,1.8,3.4,2.9,5.6,3.1c2.5,0.2,4.9-0.5,6.9-2l32.6-23.2
	c0.5-0.3,1.1-0.2,1.4,0.2c0.3,0.5,0.2,1.1-0.2,1.4L27.3,96.1C25.2,97.6,22.7,98.5,20.1,98.5z"/>
<path class="st0" d="M176.4,55.7c0,0-16.8,16.8-28.8,23.3S91,57.5,91,57.5l9-33.5"/>
<path class="st1" d="M143,80.9c-16.3,0-50.9-21.6-52.5-22.6c-0.4-0.2-0.5-0.7-0.4-1.1l9-33.5c0.2-0.5,0.7-0.8,1.3-0.6
	c0.5,0.2,0.8,0.6,0.7,1.1L92.2,57c12.8,7.9,45.7,26.1,55,21.1c11.7-6.4,28.4-23,28.6-23.1c0.4-0.4,1.1-0.3,1.4,0.1
	c0.3,0.4,0.3,0.9,0,1.3c-0.7,0.7-17,17-29,23.5C146.6,80.6,144.8,81,143,80.9z"/>
<polygon class="st0" points="54.3,15.5 113.1,24 145,50 128.9,95 91,112.5 20.4,74 "/>
<path class="st0" d="M27,11l31.4-6.3c2.1-0.4,4.3-0.4,6.4,0.2L97,14c5.1,0.2,9.1,4.5,8.9,9.6l0,0c-0.2,5.1-4.5,9.1-9.6,8.9
	l-28.5-2.8l-5.1,2.5"/>
<path class="st1" d="M96.6,33.5h-0.4l-28.3-2.8L63.1,33c-0.5,0.2-1.1,0-1.3-0.5c-0.2-0.5,0-1,0.4-1.3l5.1-2.5
	c0.2-0.1,0.4-0.1,0.5-0.1l28.5,2.8c4.5,0.6,8.7-2.7,9.2-7.2c0.6-4.5-2.7-8.7-7.2-9.2c-0.4-0.1-0.9-0.1-1.4-0.1h-0.3l-32.2-9
	c-1.9-0.5-4-0.6-5.9-0.2L27.2,12c-0.6,0.1-1.1-0.2-1.2-0.8c-0.1-0.6,0.2-1.1,0.8-1.2l31.4-6.3c2.3-0.4,4.6-0.3,6.9,0.3l32,8.9
	c5.7-0.1,10.4,4.3,10.5,10c0.1,5.7-4.3,10.4-10,10.5C97.3,33.5,96.9,33.5,96.6,33.5z"/>
<path class="st0" d="M92,103.4l12.9,5.9c4.1,3,3,10.8,0.1,14.9l0,0c-3,4.2-8.8,5.1-13,2.1c0,0,0,0,0,0L41,96
	c-0.4-0.3-0.9-0.6-1.3-0.9l-14-10.8c-0.5-0.4-5-3.8-5.5-4.3L1,59.4"/>
<path class="st1" d="M97.4,129c-2.2,0-4.3-0.7-6-1.9L40.5,96.9c-0.5-0.3-0.9-0.6-1.4-0.9L25,85.2c-1.9-1.4-5.1-3.9-5.6-4.4L0.3,60
	c-0.4-0.4-0.4-1,0.1-1.4s1-0.4,1.4,0.1l0,0l0,0L21,79.5c0.3,0.3,2.5,2,5.3,4.2l14,10.8c0.4,0.3,0.8,0.6,1.2,0.8l51,30.2
	c3.7,2.7,8.9,1.9,11.6-1.8c0,0,0,0,0,0l0,0c1.5-2.2,2.3-4.7,2.4-7.3c0.1-1.6-0.1-4.6-2.2-6.1l-12.8-5.8c-0.5-0.2-0.7-0.8-0.5-1.3
	c0.2-0.5,0.8-0.7,1.3-0.5l12.9,5.9l0.2,0.1c2.2,1.6,3.3,4.4,3.1,7.9c-0.1,3-1.1,5.9-2.8,8.4C103.8,127.5,100.7,129.1,97.4,129z"/>
<path class="st0" d="M105.7,88.6l17.2,12.6c4.1,2.7,5.2,8.2,2.5,12.3c-0.1,0.2-0.3,0.4-0.4,0.6l0,0c-3,4.2-8.8,5.1-13,2.1
	c0,0,0,0,0,0l0,0l-20-12.8"/>
<path class="st1" d="M117.4,118.9c-2.2,0-4.3-0.7-6-2l-19.9-12.7c-0.5-0.3-0.6-0.9-0.4-1.4c0.3-0.5,0.9-0.6,1.4-0.4l0.1,0.1l20,12.8
	c3.7,2.7,8.9,1.9,11.6-1.8c0,0,0,0,0,0l0,0c1.3-1.7,1.9-3.9,1.7-6c-0.4-2.2-1.6-4.2-3.5-5.5l-17.2-12.7c-0.4-0.3-0.5-1-0.2-1.4
	s1-0.5,1.4-0.2l0,0l17.2,12.6c2.3,1.6,3.8,4.1,4.3,6.8c0.4,2.7-0.3,5.4-2,7.5C123.8,117.4,120.7,119,117.4,118.9z"/>
<path class="st0" d="M115.1,73.3l26,19.4c4.1,3,5,8.8,2.1,12.9l0,0c-3,4.1-8.8,5-12.9,2.1l-24.6-19.1"/>
<path class="st1" d="M135.7,110.5c-2.2,0-4.3-0.7-6-1.9l-24.6-19.2c-0.4-0.3-0.5-1-0.2-1.4c0.3-0.4,1-0.5,1.4-0.2l24.7,19.2
	c3.7,2.7,8.9,1.8,11.5-1.9c2.7-3.7,1.8-8.9-1.9-11.5l-26.1-19.4c-0.4-0.3-0.5-1-0.2-1.4c0.3-0.4,1-0.5,1.4-0.2l26,19.4
	c4.6,3.3,5.6,9.7,2.3,14.3c-1.6,2.2-4,3.7-6.7,4.1C136.8,110.4,136.2,110.5,135.7,110.5z"/>
<path class="st0" d="M94.5,35.2l64,46.5c4.6,3.4,6,9.5,3,13.6l0,0c-3,4.1-9.2,4.7-13.9,1.3l-32.6-23.3"/>
<path class="st1" d="M154.3,99.8c-2.6,0-5.1-0.9-7.2-2.4l-32.6-23.3c-0.5-0.3-0.6-1-0.2-1.4s1-0.6,1.4-0.2l32.6,23.3
	c2,1.5,4.4,2.2,6.9,2c4.1-0.2,7.3-3.8,7-7.9c0-0.5-0.1-1-0.2-1.5c-0.6-2.4-2-4.5-4-5.9L94,36c-0.5-0.3-0.6-0.9-0.3-1.4
	c0.3-0.4,0.9-0.6,1.4-0.3h0.1l64,46.5c2.4,1.7,4.2,4.3,4.8,7.2c1.3,5.1-1.8,10.2-6.9,11.5c-0.6,0.1-1.1,0.2-1.7,0.3
	C155,99.8,154.6,99.8,154.3,99.8z"/>
<path class="st0" d="M103.3,36.2l-15.9,0.6l-20.6,14c-2.1,1.5-4.7,2.1-7.2,1.7c-4.9-0.7-8.3-2.8-9.9-6.5l0,0
	c-2-4.7,0.1-10.1,4.7-12.2L81,13.8c1.7-1.3,3.7-2.2,5.9-2.6L113,2.8c1.6-0.5,3.3-0.7,4.9-0.4l23.5,3.2c2.3,0,4.6-0.8,6.5-2.2L151,1"
	/>
<path class="st1" d="M61,53.7c-0.5,0-1,0-1.5-0.1c-5.4-0.8-9-3.1-10.7-7c-2.3-5.1,0-11.2,5.1-13.5l26.5-20c1.8-1.4,4-2.3,6.2-2.7
	l26-8.4c1.7-0.6,3.6-0.7,5.3-0.5l23.4,3.2c2.1,0,4.2-0.7,5.8-2l3.1-2.4c0.4-0.4,1.1-0.3,1.4,0.1c0.4,0.4,0.3,1.1-0.1,1.4l-0.1,0
	l-3.1,2.4c-2,1.6-4.5,2.4-7.1,2.4h-0.1l-23.4-3.2c-1.5-0.2-3-0.1-4.5,0.4l-26.1,8.4h-0.1c-2,0.4-3.8,1.2-5.4,2.4L55,34.7
	c-0.1,0-0.1,0.1-0.2,0.1c-4.2,1.9-6,6.7-4.2,10.9c1.4,3.3,4.4,5.2,9.1,5.9c2.3,0.3,4.6-0.2,6.5-1.5l20.6-14c0.2-0.1,0.3-0.2,0.5-0.2
	l15.9-0.6c0.6,0,1,0.4,1,1s-0.4,1-1,1l-15.6,0.6L67.4,51.7C65.5,53,63.3,53.7,61,53.7z"/>
</svg>
