<svg xmlns="http://www.w3.org/2000/svg" viewBox="0 0 213.38 71.72"><defs><style>.a{fill:#4c3b7c;}.b{fill:#583f7e;}.c{fill:#3b367a;}.d{fill:#46397b;}</style></defs><title>handshake-arm-left</title><rect class="a" x="80.42" y="4.22" width="130.5" height="65.29" rx="12" ry="12"/><rect class="a" x="101.23" y="49.59" width="112" height="14.1" transform="translate(-0.38 -5.92) rotate(-0.43)"/><rect class="b" x="155.81" y="21.24" width="57.21" height="14.1" transform="translate(-0.16 -5.72) rotate(-0.43)"/><path class="c" d="M140.17,35.42h73a0,0,0,0,1,0,0v14.1a0,0,0,0,1,0,0h-73a6.93,6.93,0,0,1-6.93-6.93V42.35a6.93,6.93,0,0,1,6.93-6.93Z" transform="translate(-0.27 -5.8) rotate(-0.43)"/><rect class="d" x="71.49" y="21.75" width="110.81" height="14.1" rx="6.93" ry="6.93" transform="translate(-0.17 -6.15) rotate(-0.43)"/><path class="b" d="M96.53,28.91v0.23a6.94,6.94,0,0,1-6.88,7l-33,.25a7,7,0,0,0,6.83-7V29.17a7,7,0,0,0-7-6.89L89.55,22A7,7,0,0,1,96.53,28.91Z" transform="translate(0.05 -7.11)"/><rect class="a" x="45.2" y="36.04" width="110.81" height="14.1" rx="6.93" ry="6.93" transform="translate(-0.27 -6.35) rotate(-0.43)"/><rect class="a" x="-0.05" y="36.72" width="21.27" height="14.1" rx="6.93" ry="6.93" transform="translate(-0.28 -7.03) rotate(-0.43)"/><path class="b" d="M158.37,56.59v0.24a7,7,0,0,1-6.88,7l-78.25.6a7,7,0,0,0,6.67-7V57.19A7,7,0,0,0,73,50.3l78.4-.59A7,7,0,0,1,158.37,56.59Z" transform="translate(0.05 -7.11)"/><rect class="c" x="49.76" y="64.06" width="110.81" height="14.1" rx="6.93" ry="6.93" transform="translate(-0.49 -6.32) rotate(-0.43)"/><rect class="c" x="16.39" y="8.89" width="13.87" height="14.1" rx="6.93" ry="6.93" transform="translate(-0.07 -6.93) rotate(-0.43)"/><rect class="c" x="25.96" y="36.55" width="13.87" height="14.1" rx="6.93" ry="6.93" transform="translate(-0.28 -6.86) rotate(-0.43)"/><rect class="c" x="78.34" y="36.11" width="26.47" height="14.1" rx="6.93" ry="6.93" transform="translate(-0.28 -6.42) rotate(-0.43)"/><rect class="c" x="137.09" y="35.66" width="26.47" height="14.1" rx="6.93" ry="6.93" transform="translate(-0.27 -5.98) rotate(-0.43)"/><rect class="c" x="10.53" y="64.67" width="29.12" height="14.1" rx="6.93" ry="6.93" transform="translate(-0.49 -6.92) rotate(-0.43)"/><rect class="c" x="42.13" y="8.02" width="110.81" height="14.1" rx="6.93" ry="6.93" transform="matrix(1, -0.01, 0.01, 1, -0.06, -6.37)"/><path class="a" d="M133.85,7.4h74.93a4.13,4.13,0,0,1,4.13,4.13v10a0,0,0,0,1,0,0H133.85a6.93,6.93,0,0,1-6.93-6.93V14.34a6.93,6.93,0,0,1,6.93-6.93Z" transform="translate(-0.06 -5.83) rotate(-0.43)"/><path class="d" d="M133.2,63.58h80.14a0,0,0,0,1,0,0v6.95a7.15,7.15,0,0,1-7.15,7.15h-73a6.93,6.93,0,0,1-6.93-6.93V70.51A6.93,6.93,0,0,1,133.2,63.58Z" transform="translate(-0.48 -5.83) rotate(-0.43)"/></svg>