<svg xmlns="http://www.w3.org/2000/svg" viewBox="0 0 231.5 86.5"><defs><style>.a{fill:#4c3b7c;}.b{fill:#583f7e;}.c{fill:#3b367a;}.d{fill:#46397b;}</style></defs><title>handshake-arm-left</title><rect class="a" x="72.63" y="10.93" width="117.93" height="59.01" rx="12" ry="12"/><rect class="a" x="91.48" y="45.5" width="101.21" height="12.74" transform="translate(-0.39 1.07) rotate(-0.43)"/><rect class="b" x="140.8" y="19.88" width="51.7" height="12.74" transform="translate(-0.19 1.26) rotate(-0.43)"/><path class="c" d="M126.77,32.69H192.6a0,0,0,0,1,0,0V45.43a0,0,0,0,1,0,0H126.77a6.37,6.37,0,0,1-6.37-6.37v0A6.37,6.37,0,0,1,126.77,32.69Z" transform="translate(-0.29 1.18) rotate(-0.43)"/><rect class="d" x="64.6" y="20.34" width="100.14" height="12.74" rx="6.37" ry="6.37" transform="translate(-0.2 0.86) rotate(-0.43)"/><path class="b" d="M87.23,26.81V27A6.28,6.28,0,0,1,81,33.34l-29.84.23a6.28,6.28,0,0,0,6.18-6.31V27A6.28,6.28,0,0,0,51,20.82l29.89-.22A6.29,6.29,0,0,1,87.23,26.81Z"/><rect class="a" x="40.84" y="33.25" width="100.14" height="12.74" rx="6.37" ry="6.37" transform="translate(-0.3 0.69) rotate(-0.43)"/><rect class="a" x="-0.05" y="33.86" width="19.22" height="12.74" rx="6.37" ry="6.37" transform="translate(-0.3 0.07) rotate(-0.43)"/><path class="b" d="M143.12,51.83V52a6.28,6.28,0,0,1-6.22,6.31l-70.71.54a6.29,6.29,0,0,0,6-6.31V52.37A6.29,6.29,0,0,0,66,46.14l70.85-.54A6.28,6.28,0,0,1,143.12,51.83Z"/><rect class="c" x="44.96" y="58.58" width="100.14" height="12.74" rx="6.37" ry="6.37" transform="translate(-0.49 0.72) rotate(-0.43)"/><rect class="c" x="14.81" y="8.72" width="12.53" height="12.74" rx="6.27" ry="6.27" transform="translate(-0.11 0.16) rotate(-0.43)"/><rect class="c" x="23.45" y="33.71" width="12.53" height="12.74" rx="6.27" ry="6.27" transform="translate(-0.3 0.23) rotate(-0.43)"/><rect class="c" x="70.79" y="33.31" width="23.92" height="12.74" rx="6.37" ry="6.37" transform="translate(-0.3 0.62) rotate(-0.43)"/><rect class="c" x="123.88" y="32.91" width="23.92" height="12.74" rx="6.37" ry="6.37" transform="translate(-0.29 1.02) rotate(-0.43)"/><rect class="c" x="9.51" y="59.13" width="26.31" height="12.74" rx="6.37" ry="6.37" transform="translate(-0.49 0.17) rotate(-0.43)"/><rect class="c" x="38.07" y="7.94" width="100.14" height="12.74" rx="6.37" ry="6.37" transform="translate(-0.11 0.66) rotate(-0.43)"/><path class="a" d="M121.07,7.37h67.54a3.8,3.8,0,0,1,3.8,3.8v8.94a0,0,0,0,1,0,0H121.07a6.37,6.37,0,0,1-6.37-6.37v0a6.37,6.37,0,0,1,6.37-6.37Z" transform="translate(-0.1 1.16) rotate(-0.43)"/><path class="d" d="M120.47,58.14h72.32a0,0,0,0,1,0,0v6.17a6.57,6.57,0,0,1-6.57,6.57H120.47a6.37,6.37,0,0,1-6.37-6.37v0a6.37,6.37,0,0,1,6.37-6.37Z" transform="translate(-0.48 1.16) rotate(-0.43)"/></svg>