<svg xmlns="http://www.w3.org/2000/svg" viewBox="0 0 222.02 72.54"><defs><style>.a{fill:#ff7396;}.b{fill:#fff;}.c{fill:none;}.d{fill:#4c3b7c;}.e{fill:#583f7e;}.f{fill:#3b367a;}.g{fill:#46397b;}</style></defs><title>handshake-arm-right</title><polyline class="a" points="5.12 29.51 5.32 46.61 5.42 53.11 5.51 63.71"/><path class="b" d="M14.4,72.2a1,1,0,0,1-1-.9L13,37.1a0.94,0.94,0,0,1,1-1,1,1,0,0,1,1,1l0.4,34.2a1,1,0,0,1-1,.9h0Z" transform="translate(-8.89 -7.59)"/><line class="c" x1="4.91" y1="6.41" x2="5.01" y2="20.11"/><path class="b" d="M13.9,28.2a0.85,0.85,0,0,1-1-.8L12.8,13.8a1,1,0,0,1,1-1,1.08,1.08,0,0,1,1,1l0.1,13.5a0.83,0.83,0,0,1-1,.9h0Z" transform="translate(-8.89 -7.59)"/><rect class="d" x="11.48" y="10.44" width="130.5" height="65.29" rx="12" ry="12" transform="translate(144.72 78.33) rotate(179.8)"/><rect class="d" x="9.08" y="23.41" width="112" height="14.1" transform="translate(121.6 52.62) rotate(179.37)"/><rect class="e" x="9.39" y="51.86" width="57.21" height="14.1" transform="translate(67.75 109.8) rotate(179.37)"/><path class="f" d="M16.17,37.65h73a0,0,0,0,1,0,0v14.1a0,0,0,0,1,0,0h-73a6.93,6.93,0,0,1-6.93-6.93V44.58a6.93,6.93,0,0,1,6.93-6.93Z" transform="translate(89.96 81.26) rotate(179.37)"/><path class="g" d="M47,51.68l96.93-1.06c3.81,0-1.92,3.18-1.88,7h0c0,3.81,5.84,7.07,2,7.11L47.13,65.78a7,7,0,0,1-7-6.86V58.69A7,7,0,0,1,47,51.68Z" transform="translate(-8.89 -7.59)"/><path class="e" d="M112.87,58V57.75a6.94,6.94,0,0,1,6.85-7l33-.36a7,7,0,0,0-6.81,7v0.23a7,7,0,0,0,7,6.86l-33.07.36A7,7,0,0,1,112.87,58Z" transform="translate(-8.89 -7.59)"/><rect class="d" x="66.35" y="36.78" width="110.81" height="14.1" rx="6.93" ry="6.93" transform="translate(235.1 78.73) rotate(179.37)"/><rect class="d" x="186.53" y="35.55" width="35.85" height="14.1" rx="6.93" ry="6.93" transform="translate(400.48 75.37) rotate(179.37)"/><path class="e" d="M72.94,30.52V30.28a7,7,0,0,1,6.86-7L158,22.42a7,7,0,0,0-6.65,7v0.23a7,7,0,0,0,7,6.86l-78.4.86A7,7,0,0,1,72.94,30.52Z" transform="translate(-8.89 -7.59)"/><rect class="f" x="61.69" y="8.76" width="110.81" height="14.1" rx="6.93" ry="6.93" transform="translate(225.47 22.76) rotate(179.37)"/><rect class="f" x="192.19" y="63.65" width="16.06" height="14.1" rx="6.93" ry="6.93" transform="translate(392.31 131.61) rotate(179.37)"/><rect class="f" x="217.03" y="7.59" width="13.87" height="14.1" rx="6.93" ry="6.93" transform="translate(439.2 19.24) rotate(179.37)"/><rect class="f" x="117.55" y="36.68" width="26.47" height="14.1" rx="6.93" ry="6.93" transform="translate(253.16 78.43) rotate(179.37)"/><rect class="f" x="58.81" y="37.32" width="26.47" height="14.1" rx="6.93" ry="6.93" transform="translate(135.67 80.36) rotate(179.37)"/><rect class="f" x="182.61" y="7.89" width="29.12" height="14.1" rx="6.93" ry="6.93" transform="translate(385.6 20.13) rotate(179.37)"/><rect class="f" x="69.52" y="64.78" width="110.81" height="14.1" rx="6.93" ry="6.93" transform="translate(241.74 134.7) rotate(179.37)"/><path class="d" d="M16.47,65.65H87.36a8.17,8.17,0,0,1,8.17,8.17v5.93a0,0,0,0,1,0,0H16.47a6.93,6.93,0,0,1-6.93-6.93V72.58a6.93,6.93,0,0,1,6.93-6.93Z" transform="translate(96.98 137.23) rotate(179.37)"/><path class="g" d="M15.86,9.47H96a0,0,0,0,1,0,0V20.4a3.17,3.17,0,0,1-3.17,3.17h-77a6.93,6.93,0,0,1-6.93-6.93V16.4a6.93,6.93,0,0,1,6.93-6.93Z" transform="translate(96.22 24.87) rotate(179.37)"/></svg>