<?xml version="1.0" encoding="utf-8"?>
<!-- Generator: Adobe Illustrator 19.2.1, SVG Export Plug-In . SVG Version: 6.00 Build 0)  -->
<svg version="1.1" id="Layer_1" xmlns="http://www.w3.org/2000/svg" xmlns:xlink="http://www.w3.org/1999/xlink" x="0px" y="0px"
	 viewBox="0 0 404 224" style="enable-background:new 0 0 404 224;" xml:space="preserve">
<style type="text/css">
	.st0{fill:#635DA8;}
	.st1{fill:#FAFAFF;stroke:#FF7396;stroke-width:2;stroke-miterlimit:10;}
	.st2{fill:none;stroke:#635DA8;stroke-width:2;stroke-miterlimit:10;}
	.st3{fill:#FF7396;}
</style>
<title>ideation</title>
<path class="st0" d="M401,2c0.6,0,1,0.4,1,1v218c0,0.6-0.4,1-1,1H3c-0.6,0-1-0.4-1-1V3c0-0.6,0.4-1,1-1H401 M401,0H3
	C1.3,0,0,1.3,0,3v218c0,1.7,1.3,3,3,3h398c1.7,0,3-1.3,3-3V3C404,1.3,402.7,0,401,0L401,0z"/>
<path class="st1" d="M233,58.3l39.8-5.2c0.5-0.1,1,0.3,1.1,0.9l5.2,39.8c0.1,0.5-0.3,1-0.9,1.1l-39.8,5.2c-0.5,0.1-1-0.3-1.1-0.9
	l-5.2-39.8C232.1,58.9,232.5,58.4,233,58.3z"/>
<path class="st1" d="M284,74.3l2.6-40.2c0-0.6,0.5-1,1.1-0.9l40.2,2.6c0.6,0,1,0.5,0.9,1.1l-2.6,40.2c0,0.6-0.5,1-1.1,0.9l-40.2-2.6
	C284.4,75.3,284,74.9,284,74.3z"/>
<path class="st1" d="M303.8,152.2l39.8-5.2c0.5-0.1,1,0.3,1.1,0.9l5.2,39.8c0.1,0.5-0.3,1-0.9,1.1l-39.8,5.2c-0.5,0.1-1-0.3-1.1-0.9
	l-5.2-39.8C302.9,152.7,303.3,152.2,303.8,152.2z"/>
<path class="st1" d="M254.8,202.3l2.6-40.2c0-0.6,0.5-1,1.1-0.9l40.2,2.6c0.6,0,1,0.5,0.9,1.1l-2.6,40.2c0,0.6-0.5,1-1.1,0.9
	l-40.2-2.6C255.2,203.3,254.7,202.9,254.8,202.3z"/>
<path class="st1" d="M27.9,27.6l40.1-3.1c0.6,0,1,0.4,1.1,0.9l3.1,40.1c0,0.6-0.4,1-0.9,1.1l-40.1,3.1c-0.6,0-1-0.4-1.1-0.9L27,28.7
	C27,28.1,27.4,27.6,27.9,27.6z"/>
<path class="st1" d="M90.7,108l2.6-40.2c0-0.6,0.5-1,1.1-0.9l40.2,2.6c0.6,0,1,0.5,0.9,1.1l-2.6,40.2c0,0.6-0.5,1-1.1,0.9l-40.2-2.6
	C91.1,109.1,90.6,108.6,90.7,108z"/>
<path class="st1" d="M223.2,57.1l2.6-40.2c0-0.6,0.5-1,1.1-0.9l40.2,2.6c0.6,0,1,0.5,0.9,1.1l-2.6,40.2c0,0.6-0.5,1-1.1,0.9
	l-40.2-2.6C223.6,58.1,223.1,57.7,223.2,57.1z"/>
<path class="st1" d="M201.5,43.9l39.8-5.2c0.5-0.1,1,0.3,1.1,0.9l5.2,39.8c0.1,0.5-0.3,1-0.9,1.1L207,85.7c-0.5,0.1-1-0.3-1.1-0.9
	L200.7,45C200.6,44.5,201,44,201.5,43.9z"/>
<path class="st1" d="M46.7,115.7l38.6-11.3c0.5-0.2,1.1,0.1,1.2,0.7L97,140.5c0.2,0.5-0.1,1.1-0.7,1.2l-38.6,11.3
	c-0.5,0.2-1.1-0.1-1.2-0.7L46,116.9C45.8,116.4,46.1,115.8,46.7,115.7z"/>
<path class="st1" d="M88.4,134.4l39.1-9.7c0.5-0.1,1.1,0.2,1.2,0.7l9.7,39.1c0.1,0.5-0.2,1.1-0.7,1.2l-39.1,9.7
	c-0.5,0.1-1.1-0.2-1.2-0.7l-9.7-39.1C87.6,135,87.9,134.5,88.4,134.4z"/>
<path class="st1" d="M29.3,112.9l7.9-32.7c0.1-0.5,0.7-0.9,1.2-0.7l39.1,9.4c0.5,0.1,0.9,0.7,0.7,1.2l-7.9,32.7
	c-0.1,0.5-0.7,0.9-1.2,0.7L30,114.1C29.5,113.9,29.2,113.4,29.3,112.9z"/>
<path class="st1" d="M79.4,38.4h40.3c0.6,0,1,0.4,1,1v40.3c0,0.6-0.4,1-1,1H79.4c-0.6,0-1-0.4-1-1V39.4
	C78.4,38.8,78.8,38.4,79.4,38.4z"/>
<line class="st2" x1="0" y1="216" x2="402" y2="216"/>
<path class="st3" d="M47.5,32c0.8,0,1.5-0.7,1.5-1.5S48.3,29,47.5,29S46,29.7,46,30.5l0,0C46,31.3,46.7,32,47.5,32L47.5,32z"/>
<path class="st3" d="M98.5,44.5c0.8,0,1.5-0.7,1.5-1.5s-0.7-1.5-1.5-1.5S97,42.2,97,43S97.7,44.5,98.5,44.5L98.5,44.5z"/>
<path class="st3" d="M57,90c0.8,0,1.5-0.7,1.5-1.5S57.8,87,57,87l0,0c-0.8,0-1.5,0.7-1.5,1.5S56.2,90,57,90L57,90z"/>
<path class="st3" d="M81.5,112.5c0.8,0,1.5-0.7,1.5-1.5s-0.7-1.5-1.5-1.5S80,110.2,80,111l0,0C80,111.8,80.7,112.5,81.5,112.5
	L81.5,112.5z"/>
<path class="st3" d="M109.5,135.5c0.8,0,1.5-0.7,1.5-1.5s-0.7-1.5-1.5-1.5s-1.5,0.7-1.5,1.5S108.7,135.5,109.5,135.5L109.5,135.5z"
	/>
<path class="st3" d="M220.5,49c0.8,0,1.5-0.7,1.5-1.5s-0.7-1.5-1.5-1.5l0,0c-0.8,0-1.5,0.7-1.5,1.5S219.7,49,220.5,49L220.5,49
	L220.5,49z"/>
<path class="st3" d="M245,22.5c0.8,0,1.5-0.7,1.5-1.5s-0.7-1.5-1.5-1.5s-1.5,0.7-1.5,1.5S244.2,22.5,245,22.5L245,22.5z"/>
<path class="st3" d="M256.5,65c0.8,0,1.5-0.7,1.5-1.5c0-0.8-0.7-1.5-1.5-1.5s-1.5,0.7-1.5,1.5l0,0C255,64.3,255.7,65,256.5,65
	L256.5,65z"/>
<path class="st3" d="M306,40c0.8,0,1.5-0.7,1.5-1.5S306.8,37,306,37s-1.5,0.7-1.5,1.5S305.2,40,306,40L306,40z"/>
<path class="st3" d="M324.5,156.5c0.8,0,1.5-0.7,1.5-1.5s-0.7-1.5-1.5-1.5s-1.5,0.7-1.5,1.5S323.7,156.5,324.5,156.5L324.5,156.5z"
	/>
<path class="st3" d="M277.5,168c0.8,0,1.5-0.7,1.5-1.5s-0.7-1.5-1.5-1.5s-1.5,0.7-1.5,1.5S276.7,168,277.5,168L277.5,168z"/>
</svg>
