<svg xmlns="http://www.w3.org/2000/svg" viewBox="0 0 404 224"><defs><style>.a,.c{fill:#ff7396;}.b{fill:#fff;}.c{stroke:#fff;stroke-miterlimit:10;stroke-width:2px;}</style></defs><title>ideation</title><rect class="a" x="1" y="1" width="402" height="222" rx="2" ry="2"/><path class="b" d="M399,0a1,1,0,0,1,1,1V219a1,1,0,0,1-1,1H1a1,1,0,0,1-1-1V1A1,1,0,0,1,1,0H399m0-2H1A3,3,0,0,0-2,1V219a3,3,0,0,0,3,3H399a3,3,0,0,0,3-3V1a3,3,0,0,0-3-3h0Z" transform="translate(2 2)"/><rect class="c" x="232.76" y="54.86" width="42.25" height="42.25" rx="1" ry="1" transform="matrix(0.99, -0.13, 0.13, 0.99, -5.52, 34.38)"/><rect class="c" x="283.26" y="32.47" width="42.25" height="42.25" rx="1" ry="1" transform="translate(6.11 -17.58) rotate(3.71)"/><rect class="c" x="303.26" y="149.25" width="42.25" height="42.25" rx="1" ry="1" transform="matrix(0.99, -0.13, 0.13, 0.99, -16.78, 43.95)"/><rect class="c" x="254.03" y="160.46" width="42.25" height="42.25" rx="1" ry="1" transform="translate(14.33 -15.42) rotate(3.71)"/><rect class="c" x="26.5" y="24" width="42.25" height="42.25" rx="1" ry="1" transform="translate(-1.31 5.77) rotate(-4.38)"/><rect class="c" x="89.93" y="66.2" width="42.25" height="42.25" rx="1" ry="1" transform="translate(7.88 -5) rotate(3.71)"/><rect class="c" x="222.43" y="15.27" width="42.25" height="42.25" rx="1" ry="1" transform="translate(4.87 -13.68) rotate(3.71)"/><rect class="c" x="201.26" y="40.27" width="42.25" height="42.25" rx="1" ry="1" transform="matrix(0.99, -0.13, 0.13, 0.99, -3.94, 30.32)"/><rect class="c" x="48.35" y="107.19" width="42.25" height="39.01" rx="1" ry="1" transform="translate(-30.89 26.72) rotate(-16.37)"/><rect class="c" x="89.93" y="126.87" width="42.25" height="42.25" rx="1" ry="1" transform="translate(-30.5 33.26) rotate(-14)"/><rect class="c" x="30.64" y="81.67" width="42.25" height="35.6" rx="1" ry="1" transform="translate(26.75 -7.36) rotate(13.55)"/><rect class="c" x="78.38" y="38.4" width="42.25" height="42.25" rx="1" ry="1"/><line class="c" y1="216" x2="402" y2="216"/><path class="b" d="M45.5,30a1.5,1.5,0,0,0,0-3,1.5,1.5,0,0,0,0,3h0Z" transform="translate(2 2)"/><path class="b" d="M96.5,42.5a1.5,1.5,0,0,0,0-3,1.5,1.5,0,0,0,0,3h0Z" transform="translate(2 2)"/><path class="b" d="M55,88a1.5,1.5,0,0,0,0-3,1.5,1.5,0,0,0,0,3h0Z" transform="translate(2 2)"/><path class="b" d="M79.5,110.5a1.5,1.5,0,0,0,0-3,1.5,1.5,0,0,0,0,3h0Z" transform="translate(2 2)"/><path class="b" d="M107.5,133.5a1.5,1.5,0,0,0,0-3,1.5,1.5,0,0,0,0,3h0Z" transform="translate(2 2)"/><path class="b" d="M218.5,47a1.5,1.5,0,0,0,0-3,1.5,1.5,0,0,0,0,3h0Z" transform="translate(2 2)"/><path class="b" d="M243,20.5a1.5,1.5,0,0,0,0-3,1.5,1.5,0,0,0,0,3h0Z" transform="translate(2 2)"/><path class="b" d="M254.5,63a1.5,1.5,0,0,0,0-3,1.5,1.5,0,0,0,0,3h0Z" transform="translate(2 2)"/><path class="b" d="M304,38a1.5,1.5,0,0,0,0-3,1.5,1.5,0,0,0,0,3h0Z" transform="translate(2 2)"/><path class="b" d="M322.5,154.5a1.5,1.5,0,0,0,0-3,1.5,1.5,0,0,0,0,3h0Z" transform="translate(2 2)"/><path class="b" d="M275.5,166a1.5,1.5,0,0,0,0-3,1.5,1.5,0,0,0,0,3h0Z" transform="translate(2 2)"/></svg>