<svg xmlns="http://www.w3.org/2000/svg" viewBox="0 0 105 223"><defs><style>.a{fill:#ff7396;}.b{fill:#fff;}</style></defs><title>iPhone</title><path class="a" d="M101,12.62A12.62,12.62,0,0,0,88.38,0H10.62A12.62,12.62,0,0,0-2,12.62V208.38A12.62,12.62,0,0,0,10.62,221H88.38A12.62,12.62,0,0,0,101,208.38V12.62ZM95,190a1,1,0,0,1-1,1H6a1,1,0,0,1-1-1V31a1,1,0,0,1,1-1H94a1,1,0,0,1,1,1V190Z" transform="translate(3 1)"/><path class="b" d="M88.38,222H10.62A13.64,13.64,0,0,1-3,208.38V12.62A13.64,13.64,0,0,1,10.62-1H88.38A13.64,13.64,0,0,1,102,12.62V208.38A13.64,13.64,0,0,1,88.38,222ZM10.62,1A11.63,11.63,0,0,0-1,12.62V208.38A11.63,11.63,0,0,0,10.62,220H88.38A11.63,11.63,0,0,0,100,208.38V12.62A11.63,11.63,0,0,0,88.38,1H10.62ZM94,192H6a2,2,0,0,1-2-2V31a2,2,0,0,1,2-2H94a2,2,0,0,1,2,2V190A2,2,0,0,1,94,192ZM6,31V190H94V31H6Z" transform="translate(3 1)"/><path class="b" d="M49.5,216.83A10.13,10.13,0,1,1,59.63,206.7,10.14,10.14,0,0,1,49.5,216.83Zm0-18.26a8.13,8.13,0,1,0,8.13,8.13A8.14,8.14,0,0,0,49.5,198.57Z" transform="translate(3 1)"/><path class="b" d="M59,20H40a1,1,0,0,1,0-2H59A1,1,0,0,1,59,20Z" transform="translate(3 1)"/><path class="b" d="M49,12.29s2-3,0-3a1.5,1.5,0,0,0,0,3h0Z" transform="translate(3 1)"/></svg>