<svg xmlns="http://www.w3.org/2000/svg" viewBox="0 0 93.62 164.33"><defs><style>.a{fill:#ff7396;}.b{fill:#fff;}</style></defs><title>iphonescreen1</title><rect class="a" x="1" y="1" width="91.61" height="162.33"/><path class="b" d="M95.67,191.67H4.05a1,1,0,0,1-1-1V28.33a1,1,0,0,1,1-1H95.67a1,1,0,0,1,1,1V190.67A1,1,0,0,1,95.67,191.67Zm-90.62-2H94.67V29.33H5.05V189.67Z" transform="translate(-3.05 -27.33)"/><line class="a" x1="2.95" y1="151.67" x2="90.95" y2="151.67"/><path class="b" d="M94,180H6a1,1,0,0,1,0-2H94A1,1,0,0,1,94,180Z" transform="translate(-3.05 -27.33)"/><line class="a" x1="0.95" y1="11.67" x2="92.95" y2="11.67"/><rect class="b" x="0.95" y="10.67" width="92" height="2"/><path class="a" d="M64.21,82.87a19.14,19.14,0,0,1-28.13-.8A15,15,0,0,1,64.21,82.87Z" transform="translate(-3.05 -27.33)"/><path class="b" d="M50.51,89.64a20.13,20.13,0,0,1-15.18-6.91,1,1,0,0,1-.17-1,16,16,0,0,1,30,.85,1,1,0,0,1-.23,1A20,20,0,0,1,50.51,89.64ZM37.25,81.87a18.14,18.14,0,0,0,25.8.73A14,14,0,0,0,37.25,81.87Z" transform="translate(-3.05 -27.33)"/><circle class="a" cx="46.81" cy="40.17" r="8.17"/><path class="b" d="M49.86,76.67A9.17,9.17,0,1,1,59,67.5,9.18,9.18,0,0,1,49.86,76.67Zm0-16.33A7.17,7.17,0,1,0,57,67.5,7.17,7.17,0,0,0,49.86,60.33Z" transform="translate(-3.05 -27.33)"/><path class="b" d="M50.51,89.64a20.17,20.17,0,1,1,14.42-6.07A20.13,20.13,0,0,1,50.51,89.64Zm0-38.31a18.16,18.16,0,0,0,0,36.31A18.17,18.17,0,0,0,68.67,69.49,18.18,18.18,0,0,0,50.51,51.33Z" transform="translate(-3.05 -27.33)"/><path class="b" d="M63,96H36a1,1,0,0,1,0-2H63A1,1,0,0,1,63,96Z" transform="translate(-3.05 -27.33)"/><path class="b" d="M70,109H29a1,1,0,0,1,0-2H70A1,1,0,0,1,70,109Z" transform="translate(-3.05 -27.33)"/><path class="b" d="M66,115H33a1,1,0,0,1,0-2H66A1,1,0,0,1,66,115Z" transform="translate(-3.05 -27.33)"/><path class="b" d="M70,121H29a1,1,0,0,1,0-2H70A1,1,0,0,1,70,121Z" transform="translate(-3.05 -27.33)"/><path class="b" d="M95.67,180H4.19a1,1,0,0,1-1-1V129a1,1,0,0,1,1-1H95.67a1,1,0,0,1,1,1v50A1,1,0,0,1,95.67,180ZM5.19,178H94.67V130H5.19v48Z" transform="translate(-3.05 -27.33)"/><path class="b" d="M19.18,160.71c-1.08,0-2.29,0-3.64,0-2.69-.07-5.88-0.21-9.74-0.43a1,1,0,1,1,.11-2c3.85,0.22,7,.36,9.68.43a78.77,78.77,0,0,0,8-.1c4.17-.37,13.39-1,22.95-1.47,7-.36,19.29-0.88,22.89-0.39a182,182,0,0,0,24.37,1,1,1,0,1,1,.09,2,181.83,181.83,0,0,1-24.73-1c-2.51-.34-10.71-0.2-22.51.41-9.53.48-18.72,1.1-22.87,1.47C22.62,160.66,21.09,160.71,19.18,160.71Z" transform="translate(-3.05 -27.33)"/><path class="b" d="M19.07,160.71q-1.6,0-3.52,0a1,1,0,0,1-.93-0.71,17,17,0,1,1,33-1.67,1,1,0,0,1-.93.81c-9.42.48-18.64,1.1-22.88,1.47C22.59,160.66,21,160.71,19.07,160.71Zm-2.72-2c3.18,0.06,5.62,0,7.27-.12,4.14-.36,13-1,22.15-1.43A15,15,0,1,0,16.34,158.68ZM46.61,158h0Z" transform="translate(-3.05 -27.33)"/><path class="b" d="M30.9,172c-0.07,0-7.37-.05-7.37-2a1.2,1.2,0,0,1,0-.23,26.77,26.77,0,0,0-3.89-1.28c-1.06-.24-2.34-0.66-2.77-1.71a3,3,0,0,1,.56-2.73c0.25-.39-0.9-2.21-2.54-3.7a1,1,0,1,1,1.34-1.48c1,0.92,4.24,4.09,2.9,6.24a1.83,1.83,0,0,0-.4.91h0a2.88,2.88,0,0,0,1.37.52c0.63,0.14,5.82,1.37,6.35,3a25.69,25.69,0,0,0,4.44.45,50.4,50.4,0,0,0,9.2-1.59,2.12,2.12,0,0,1-.26-0.65c-0.22-1,.27-2.42,2.32-3.35a0.83,0.83,0,0,0,.34-0.22,3.58,3.58,0,0,0-.6-1.09,2.26,2.26,0,0,1-.62-2.07,1.42,1.42,0,0,1,1.07-.86c1-.25,2.81-2,3.52-2.77a1,1,0,0,1,1.5,1.33,14.49,14.49,0,0,1-3.88,3.15L43.54,162a3.43,3.43,0,0,1,.88,2.77,2.38,2.38,0,0,1-1.43,1.5c-1,.45-1.23.94-1.2,1.11a0.57,0.57,0,0,0,.57.26l0.37,0a1.08,1.08,0,0,1,.83,1c0,0.78,0,1.1-5.43,2.28A44,44,0,0,1,30.9,172Zm-6.16-2h0Z" transform="translate(-3.05 -27.33)"/></svg>