<svg xmlns="http://www.w3.org/2000/svg" viewBox="0 0 105 223"><defs><style>.a{fill:#fafaff;}.b{fill:#635da8;}</style></defs><title>iPhone</title><path class="a" d="M104,13.62A12.62,12.62,0,0,0,91.38,1H13.62A12.62,12.62,0,0,0,1,13.62V209.38A12.62,12.62,0,0,0,13.62,222H91.38A12.62,12.62,0,0,0,104,209.38V13.62ZM98,191a1,1,0,0,1-1,1H9a1,1,0,0,1-1-1V32a1,1,0,0,1,1-1H97a1,1,0,0,1,1,1V191Z"/><path class="b" d="M91.38,223H13.62A13.64,13.64,0,0,1,0,209.38V13.62A13.64,13.64,0,0,1,13.62,0H91.38A13.64,13.64,0,0,1,105,13.62V209.38A13.64,13.64,0,0,1,91.38,223ZM13.62,2A11.63,11.63,0,0,0,2,13.62V209.38A11.63,11.63,0,0,0,13.62,221H91.38A11.63,11.63,0,0,0,103,209.38V13.62A11.63,11.63,0,0,0,91.38,2H13.62ZM97,193H9a2,2,0,0,1-2-2V32a2,2,0,0,1,2-2H97a2,2,0,0,1,2,2V191A2,2,0,0,1,97,193ZM9,32V191H97V32H9Z"/><path class="b" d="M52.5,217.83A10.13,10.13,0,1,1,62.63,207.7,10.13,10.13,0,0,1,52.5,217.83Zm0-18.26a8.13,8.13,0,1,0,8.13,8.13A8.13,8.13,0,0,0,52.5,199.57Z"/><path class="b" d="M62,21H43a1,1,0,0,1,0-2H62A1,1,0,0,1,62,21Z"/><path class="b" d="M52,13.29s2-3,0-3a1.5,1.5,0,0,0,0,3h0Z"/></svg>