<?xml version="1.0" encoding="utf-8"?>
<!-- Generator: Adobe Illustrator 19.2.1, SVG Export Plug-In . SVG Version: 6.00 Build 0)  -->
<svg version="1.1" id="Layer_1" xmlns="http://www.w3.org/2000/svg" xmlns:xlink="http://www.w3.org/1999/xlink" x="0px" y="0px"
	 viewBox="0 0 93.6 164.3" style="enable-background:new 0 0 93.6 164.3;" xml:space="preserve">
<style type="text/css">
	.st0{fill:#FAFAFF;}
	.st1{fill:#635DA8;}
	.st2{fill:none;}
	.st3{fill:#FFFFFF;}
	.st4{fill:#FF7396;}
</style>
<title>iphonescreen1</title>
<rect x="1" y="1" class="st0" width="91.6" height="162.3"/>
<path class="st1" d="M92.6,164.3H1c-0.6,0-1-0.4-1-1V1c0-0.6,0.4-1,1-1h91.6c0.6,0,1,0.4,1,1v162.3
	C93.6,163.9,93.2,164.3,92.6,164.3z M2,162.3h89.6V2H2V162.3z"/>
<line class="st2" x1="3" y1="151.7" x2="90.9" y2="151.7"/>
<path class="st3" d="M90.9,152.7H3c-0.6,0-1-0.4-1-1s0.4-1,1-1h88c0.6,0,1,0.4,1,1S91.5,152.7,90.9,152.7z"/>
<line class="st2" x1="0.9" y1="11.7" x2="92.9" y2="11.7"/>
<rect x="0.9" y="10.7" class="st1" width="92" height="2"/>
<path class="st0" d="M61.2,55.5c-7.4,7.6-19.5,7.7-27.1,0.3c-0.4-0.4-0.7-0.7-1.1-1.1c3.1-7.7,11.8-11.4,19.5-8.3
	C56.6,48.1,59.8,51.4,61.2,55.5z"/>
<path class="st4" d="M47.5,62.3c-5.8,0-11.4-2.5-15.2-6.9c-0.2-0.3-0.3-0.7-0.2-1c3.3-8.2,12.6-12.2,20.8-8.9
	c4.3,1.7,7.7,5.3,9.2,9.7c0.1,0.4,0,0.7-0.2,1C58.1,60.1,52.9,62.3,47.5,62.3z M34.2,54.5c6.8,7.3,18.3,7.7,25.6,0.9
	c0.1-0.1,0.1-0.1,0.2-0.2c-2.8-7.2-10.9-10.8-18.1-8C38.5,48.6,35.7,51.2,34.2,54.5z"/>
<circle class="st0" cx="46.8" cy="40.2" r="8.2"/>
<path class="st4" d="M46.8,49.3c-5.1,0-9.2-4.1-9.2-9.1c0-5.1,4.1-9.2,9.1-9.2c5.1,0,9.2,4.1,9.2,9.1l0,0
	C55.9,45.2,51.9,49.3,46.8,49.3z M46.8,33c-4,0-7.2,3.2-7.2,7.1c0,4,3.2,7.2,7.1,7.2s7.2-3.2,7.2-7.1l0,0C54,36.2,50.8,33,46.8,33
	L46.8,33z"/>
<path class="st4" d="M47.5,62.3c-11.1,0-20.2-9-20.2-20.2c0-11.1,9-20.2,20.2-20.2s20.2,9,20.2,20.2c0,5.3-2.1,10.3-5.7,14.1
	C58.1,60.1,52.9,62.3,47.5,62.3z M47.5,24c-10,0.2-18,8.6-17.7,18.6c0.2,9.7,8,17.5,17.7,17.7c10,0,18.1-8.1,18.2-18.2
	C65.6,32.1,57.5,24,47.5,24z"/>
<path class="st4" d="M60,68.7H33c-0.6,0-1-0.4-1-1s0.4-1,1-1h27c0.6,0,1,0.4,1,1S60.5,68.7,60,68.7z"/>
<path class="st4" d="M66.9,81.7H26c-0.6,0-1-0.4-1-1s0.4-1,1-1h41c0.6,0,1,0.4,1,1S67.5,81.7,66.9,81.7z"/>
<path class="st4" d="M63,87.7H30c-0.6,0-1-0.4-1-1s0.4-1,1-1h33c0.6,0,1,0.4,1,1S63.5,87.7,63,87.7z"/>
<path class="st4" d="M66.9,93.7H26c-0.6,0-1-0.4-1-1s0.4-1,1-1h41c0.6,0,1,0.4,1,1S67.5,93.7,66.9,93.7z"/>
<path class="st1" d="M92.6,152.7H1.1c-0.6,0-1-0.4-1-1v-50c0-0.6,0.4-1,1-1h91.5c0.6,0,1,0.4,1,1v50
	C93.6,152.2,93.2,152.7,92.6,152.7z M2.1,150.7h89.5v-48H2.1V150.7z"/>
<path class="st4" d="M16.1,133.4c-1.1,0-2.3,0-3.6,0c-2.7-0.1-5.9-0.2-9.7-0.4c-0.6,0-1-0.5-0.9-1.1c0-0.6,0.5-1,1.1-0.9
	c3.8,0.2,7,0.4,9.7,0.4c2.7,0.1,5.3,0.1,8-0.1c4.2-0.4,13.4-1,23-1.5c7-0.4,19.3-0.9,22.9-0.4c8.1,0.9,16.2,1.2,24.4,1
	c0.6,0,1,0.4,1,1s-0.4,1-1,1c-8.3,0.2-16.5-0.1-24.7-1c-2.5-0.3-10.7-0.2-22.5,0.4c-9.5,0.5-18.7,1.1-22.9,1.5
	C19.6,133.3,18,133.4,16.1,133.4z"/>
<path class="st4" d="M16,133.4c-1.1,0-2.2,0-3.5,0c-0.4,0-0.8-0.3-0.9-0.7c-2.7-9,2.5-18.5,11.5-21.1S41.5,114,44.2,123
	c0.8,2.6,0.9,5.3,0.4,8c-0.1,0.5-0.5,0.8-0.9,0.8c-9.4,0.5-18.6,1.1-22.9,1.5C19.5,133.3,18,133.4,16,133.4z M13.3,131.4
	c3.2,0.1,5.6,0,7.3-0.1c4.1-0.4,13-1,22.1-1.4c1.1-8.2-4.6-15.8-12.8-16.9s-15.8,4.6-16.9,12.8C12.7,127.6,12.8,129.5,13.3,131.4
	L13.3,131.4z M43.6,130.7L43.6,130.7z"/>
<path class="st4" d="M27.9,144.7c-0.1,0-7.4-0.1-7.4-2c0-0.1,0-0.2,0-0.2c-1.3-0.5-2.6-1-3.9-1.3c-1.1-0.2-2.3-0.7-2.8-1.7
	c-0.3-0.9-0.1-2,0.6-2.7c0.3-0.4-0.9-2.2-2.5-3.7c-0.4-0.3-0.5-1-0.2-1.4s1-0.5,1.4-0.2l0.1,0.1c1,0.9,4.2,4.1,2.9,6.2
	c-0.2,0.3-0.4,0.6-0.4,0.9l0,0c0.4,0.3,0.9,0.5,1.4,0.5c0.6,0.1,5.8,1.4,6.4,3c1.5,0.3,2.9,0.4,4.4,0.4c3.1-0.2,6.2-0.8,9.2-1.6
	c-0.1-0.2-0.2-0.4-0.3-0.6c-0.2-1,0.3-2.4,2.3-3.4c0.1,0,0.2-0.1,0.3-0.2c-0.1-0.4-0.3-0.8-0.6-1.1c-0.5-0.5-0.8-1.3-0.6-2.1
	c0.2-0.5,0.6-0.8,1.1-0.9c1-0.3,2.8-2,3.5-2.8c0.4-0.4,1-0.5,1.4-0.1s0.5,1,0.1,1.4c-1.1,1.3-2.4,2.3-3.9,3.1l0.1,0.1
	c0.7,0.7,1,1.8,0.9,2.8c-0.2,0.7-0.7,1.2-1.4,1.5c-1,0.4-1.2,0.9-1.2,1.1c0.1,0.2,0.3,0.3,0.6,0.3h0.4c0.5,0.1,0.8,0.5,0.8,1
	c0,0.8,0,1.1-5.4,2.3C32.7,144.1,30.3,144.5,27.9,144.7z M21.7,142.7L21.7,142.7z"/>
</svg>
