<?xml version="1.0" encoding="utf-8"?>
<!-- Generator: Adobe Illustrator 19.2.1, SVG Export Plug-In . SVG Version: 6.00 Build 0)  -->
<svg version="1.1" id="Layer_1" xmlns="http://www.w3.org/2000/svg" xmlns:xlink="http://www.w3.org/1999/xlink" x="0px" y="0px"
	 viewBox="0 0 93.6 164.3" style="enable-background:new 0 0 93.6 164.3;" xml:space="preserve">
<style type="text/css">
	.st0{fill:#FAFAFF;}
	.st1{fill:#635DA8;}
	.st2{fill:none;}
	.st3{fill:#FF7396;}
</style>
<title>iphonescreen2</title>
<rect x="1" y="1" class="st0" width="91.6" height="162.3"/>
<path class="st1" d="M92.6,164.3H1c-0.6,0-1-0.4-1-1V1c0-0.6,0.4-1,1-1h91.6c0.6,0,1,0.4,1,1v162.3
	C93.6,163.9,93.2,164.3,92.6,164.3z M2,162.3h89.6V2H2C2,2,2,162.3,2,162.3z"/>
<line class="st2" x1="3" y1="151.7" x2="90.9" y2="151.7"/>
<path class="st1" d="M91.9,152.7H2c-0.6,0-1-0.4-1-1s0.5-1,1-1h89.9c0.6,0,1,0.4,1,1S92.5,152.7,91.9,152.7z"/>
<line class="st2" x1="0.9" y1="11.7" x2="92.9" y2="11.7"/>
<rect x="0.9" y="10.7" class="st1" width="92" height="2"/>
<path class="st0" d="M36.6,44.9c-4.9,5-12.9,5.1-18,0.2c-0.2-0.2-0.5-0.5-0.7-0.7c2.1-5.1,8-7.5,13.1-5.4
	C33.6,40.1,35.6,42.2,36.6,44.9z"/>
<path class="st3" d="M27.5,49.8c-4,0-7.7-1.7-10.3-4.7c-0.2-0.3-0.3-0.7-0.2-1c2.3-5.6,8.8-8.3,14.4-6c2.9,1.2,5.2,3.6,6.2,6.6
	c0.1,0.4,0,0.7-0.2,1C34.7,48.3,31.2,49.8,27.5,49.8z M19.1,44.2c4.4,4.6,11.7,4.8,16.4,0.4c-2-4.6-7.2-6.7-11.8-4.7
	C21.6,40.8,20,42.3,19.1,44.2L19.1,44.2z"/>
<circle class="st0" cx="27" cy="34.7" r="5.4"/>
<path class="st3" d="M27,41.2c-3.5,0-6.4-2.9-6.4-6.4s2.9-6.4,6.4-6.4s6.4,2.9,6.4,6.4l0,0C33.4,38.3,30.6,41.2,27,41.2z M27,30.3
	c-2.4,0-4.4,2-4.4,4.4c0,2.4,2,4.4,4.4,4.4s4.4-2,4.4-4.4l0,0C31.4,32.3,29.5,30.3,27,30.3z"/>
<path class="st3" d="M27.5,49.8c-7.6,0-13.7-6.2-13.7-13.8c0-7.6,6.2-13.7,13.8-13.7s13.7,6.2,13.7,13.8c0,3.6-1.4,7-3.9,9.6
	C34.7,48.3,31.2,49.8,27.5,49.8z M27.5,24.3c-6.5,0-11.7,5.2-11.7,11.7S21,47.8,27.5,47.8c6.5,0,11.7-5.2,11.7-11.7
	C39.2,29.6,33.9,24.3,27.5,24.3L27.5,24.3z"/>
<path class="st3" d="M36,55.7H18c-0.6,0-1-0.4-1-1s0.4-1,1-1h18c0.6,0,1,0.4,1,1S36.5,55.7,36,55.7z"/>
<path class="st0" d="M74.6,44.9c-4.9,5-12.9,5.1-18,0.2c-0.2-0.2-0.5-0.5-0.7-0.7c2.1-5.1,8-7.5,13.1-5.4
	C71.6,40.1,73.6,42.2,74.6,44.9z"/>
<path class="st3" d="M65.5,49.8c-4,0-7.7-1.7-10.3-4.7c-0.2-0.3-0.3-0.7-0.2-1c2.3-5.6,8.8-8.3,14.4-6c2.9,1.2,5.2,3.6,6.2,6.6
	c0.1,0.4,0,0.7-0.2,1C72.7,48.3,69.2,49.8,65.5,49.8z M57.1,44.2c4.4,4.6,11.7,4.8,16.3,0.4c-2-4.6-7.2-6.7-11.8-4.7
	C59.6,40.8,58,42.3,57.1,44.2L57.1,44.2z"/>
<circle class="st0" cx="65" cy="34.7" r="5.4"/>
<path class="st3" d="M65,41.2c-3.5,0-6.4-2.9-6.4-6.4s2.9-6.4,6.4-6.4c3.5,0,6.4,2.9,6.4,6.4l0,0C71.4,38.3,68.6,41.2,65,41.2z
	 M65,30.3c-2.4,0-4.4,2-4.4,4.4c0,2.4,2,4.4,4.4,4.4c2.4,0,4.4-2,4.4-4.4v0C69.4,32.3,67.5,30.3,65,30.3z"/>
<path class="st3" d="M65.5,49.8c-7.6,0-13.7-6.2-13.7-13.8c0-7.6,6.2-13.7,13.8-13.7c7.6,0,13.7,6.2,13.7,13.8c0,3.6-1.4,7-3.9,9.6
	C72.7,48.3,69.2,49.8,65.5,49.8z M65.5,24.3c-6.5,0-11.7,5.2-11.7,11.7S59,47.8,65.5,47.8c6.5,0,11.7-5.2,11.7-11.7
	C77.2,29.6,71.9,24.3,65.5,24.3L65.5,24.3z"/>
<path class="st3" d="M73.9,55.7H56c-0.6,0-1-0.4-1-1s0.4-1,1-1h18c0.6,0,1,0.4,1,1S74.5,55.7,73.9,55.7z"/>
<path class="st0" d="M74.6,88.9c-4.9,5-12.9,5.1-18,0.2c-0.2-0.2-0.5-0.5-0.7-0.7c2.1-5.1,8-7.5,13.1-5.4
	C71.6,84.1,73.6,86.2,74.6,88.9z"/>
<path class="st3" d="M65.5,93.8c-4,0-7.7-1.7-10.3-4.7c-0.2-0.3-0.3-0.7-0.2-1c2.3-5.6,8.7-8.3,14.4-6c2.9,1.2,5.2,3.6,6.2,6.6
	c0.1,0.4,0,0.7-0.2,1C72.7,92.3,69.2,93.8,65.5,93.8z M57.1,88.2c4.4,4.6,11.7,4.8,16.3,0.5c-2-4.6-7.3-6.7-11.8-4.7
	C59.6,84.8,58,86.3,57.1,88.2L57.1,88.2z"/>
<circle class="st0" cx="65" cy="78.7" r="5.4"/>
<path class="st3" d="M65,85.2c-3.5,0-6.4-2.9-6.4-6.4s2.9-6.4,6.4-6.4c3.5,0,6.4,2.9,6.4,6.4l0,0C71.4,82.3,68.6,85.2,65,85.2z
	 M65,74.3c-2.4,0-4.4,2-4.4,4.4s2,4.4,4.4,4.4c2.4,0,4.4-2,4.4-4.4l0,0C69.4,76.3,67.5,74.3,65,74.3z"/>
<path class="st3" d="M65.5,93.8c-7.6,0-13.7-6.2-13.7-13.8c0-7.6,6.2-13.7,13.8-13.7c7.6,0,13.7,6.2,13.7,13.8c0,3.6-1.4,7-3.9,9.6
	C72.7,92.3,69.2,93.8,65.5,93.8z M65.5,68.3c-6.5,0-11.7,5.2-11.7,11.7S59,91.8,65.5,91.8c6.5,0,11.7-5.2,11.7-11.7
	C77.2,73.6,71.9,68.3,65.5,68.3L65.5,68.3z"/>
<path class="st3" d="M73.9,99.7H56c-0.6,0-1-0.4-1-1s0.4-1,1-1h18c0.6,0,1,0.4,1,1S74.5,99.7,73.9,99.7z"/>
<path class="st0" d="M36.6,88.9c-4.9,5-12.9,5.1-18,0.2c-0.2-0.2-0.5-0.5-0.7-0.7c2.1-5.1,8-7.5,13.1-5.4
	C33.6,84.1,35.6,86.2,36.6,88.9z"/>
<path class="st3" d="M27.5,93.8c-4,0-7.7-1.7-10.3-4.7c-0.2-0.3-0.3-0.7-0.2-1c2.3-5.6,8.7-8.3,14.4-6c2.9,1.2,5.2,3.6,6.2,6.6
	c0.1,0.4,0,0.7-0.2,1C34.7,92.3,31.2,93.8,27.5,93.8z M19.1,88.2c4.4,4.6,11.7,4.8,16.3,0.5c-2-4.6-7.3-6.7-11.8-4.7
	C21.6,84.8,20,86.3,19.1,88.2L19.1,88.2z"/>
<circle class="st0" cx="27" cy="78.7" r="5.4"/>
<path class="st3" d="M27,85.2c-3.5,0-6.4-2.9-6.4-6.4s2.9-6.4,6.4-6.4s6.4,2.9,6.4,6.4l0,0C33.4,82.3,30.6,85.2,27,85.2z M27,74.3
	c-2.4,0-4.4,2-4.4,4.4c0,2.4,2,4.4,4.4,4.4s4.4-2,4.4-4.4l0,0C31.4,76.3,29.5,74.3,27,74.3z"/>
<path class="st3" d="M27.5,93.8c-7.6,0-13.7-6.2-13.7-13.8c0-7.6,6.2-13.7,13.8-13.7c7.6,0,13.7,6.2,13.7,13.8c0,3.6-1.4,7-3.9,9.6
	C34.7,92.3,31.2,93.8,27.5,93.8z M27.5,68.3c-6.5,0-11.7,5.2-11.7,11.7S21,91.8,27.5,91.8c6.5,0,11.7-5.2,11.7-11.7
	C39.2,73.6,33.9,68.3,27.5,68.3L27.5,68.3z"/>
<path class="st3" d="M36,99.7H18c-0.6,0-1-0.4-1-1s0.4-1,1-1h18c0.6,0,1,0.4,1,1S36.5,99.7,36,99.7z"/>
<path class="st0" d="M36.6,130.9c-4.9,5-12.9,5.1-18,0.2c-0.2-0.2-0.5-0.5-0.7-0.7c2.1-5.1,8-7.5,13.1-5.4
	C33.6,126.1,35.6,128.2,36.6,130.9z"/>
<path class="st3" d="M27.5,135.8c-4,0-7.7-1.7-10.3-4.7c-0.2-0.3-0.3-0.7-0.2-1c2.3-5.6,8.7-8.3,14.4-6c2.9,1.2,5.2,3.6,6.2,6.6
	c0.1,0.4,0,0.7-0.2,1C34.7,134.3,31.2,135.8,27.5,135.8z M19.1,130.2c4.4,4.6,11.7,4.8,16.3,0.5c-2-4.6-7.3-6.7-11.8-4.7
	C21.6,126.8,20,128.3,19.1,130.2L19.1,130.2z"/>
<circle class="st0" cx="27" cy="120.7" r="5.4"/>
<path class="st3" d="M27,127.2c-3.5,0-6.4-2.9-6.4-6.4s2.9-6.4,6.4-6.4s6.4,2.9,6.4,6.4l0,0C33.4,124.3,30.6,127.2,27,127.2z
	 M27,116.3c-2.4,0-4.4,2-4.4,4.4s2,4.4,4.4,4.4s4.4-2,4.4-4.4l0,0C31.4,118.3,29.5,116.3,27,116.3z"/>
<path class="st3" d="M27.5,135.8c-7.6,0-13.7-6.2-13.7-13.8c0-7.6,6.2-13.7,13.8-13.7s13.7,6.2,13.7,13.8c0,3.6-1.4,7-3.9,9.6
	C34.7,134.3,31.2,135.8,27.5,135.8z M27.5,110.3c-6.5,0-11.7,5.2-11.7,11.7s5.2,11.7,11.7,11.7c6.5,0,11.7-5.2,11.7-11.7
	C39.2,115.6,33.9,110.3,27.5,110.3L27.5,110.3z"/>
<path class="st3" d="M36,141.7H18c-0.6,0-1-0.4-1-1s0.4-1,1-1h18c0.6,0,1,0.4,1,1S36.5,141.7,36,141.7z"/>
<path class="st0" d="M74.6,130.9c-4.9,5-12.9,5.1-18,0.2c-0.2-0.2-0.5-0.5-0.7-0.7c2.1-5.1,8-7.5,13.1-5.4
	C71.6,126.1,73.6,128.2,74.6,130.9z"/>
<path class="st3" d="M65.5,135.8c-4,0-7.7-1.7-10.3-4.7c-0.2-0.3-0.3-0.7-0.2-1c2.3-5.6,8.7-8.3,14.4-6c2.9,1.2,5.2,3.6,6.2,6.6
	c0.1,0.4,0,0.7-0.2,1C72.7,134.3,69.2,135.8,65.5,135.8z M57.1,130.2c4.4,4.6,11.7,4.8,16.3,0.5c-2-4.6-7.3-6.7-11.8-4.7
	C59.6,126.8,58,128.3,57.1,130.2L57.1,130.2z"/>
<circle class="st0" cx="65" cy="120.7" r="5.4"/>
<path class="st3" d="M65,127.2c-3.5,0-6.4-2.9-6.4-6.4s2.9-6.4,6.4-6.4c3.5,0,6.4,2.9,6.4,6.4l0,0C71.4,124.3,68.6,127.2,65,127.2z
	 M65,116.3c-2.4,0-4.4,2-4.4,4.4s2,4.4,4.4,4.4c2.4,0,4.4-2,4.4-4.4l0,0C69.4,118.3,67.5,116.3,65,116.3z"/>
<path class="st3" d="M65.5,135.8c-7.6,0-13.7-6.2-13.7-13.8c0-7.6,6.2-13.7,13.8-13.7s13.7,6.2,13.7,13.8c0,3.6-1.4,7-3.9,9.6
	C72.7,134.3,69.2,135.8,65.5,135.8z M65.5,110.3c-6.5,0-11.7,5.2-11.7,11.7s5.2,11.7,11.7,11.7c6.5,0,11.7-5.2,11.7-11.7
	C77.2,115.6,71.9,110.3,65.5,110.3L65.5,110.3z"/>
<path class="st3" d="M73.9,141.7H56c-0.6,0-1-0.4-1-1s0.4-1,1-1h18c0.6,0,1,0.4,1,1S74.5,141.7,73.9,141.7z"/>
</svg>
