<svg xmlns="http://www.w3.org/2000/svg" viewBox="0 0 93.62 164.33"><defs><style>.a{fill:#ff7396;}.b{fill:#fff;}</style></defs><title>iphonescreen2</title><rect class="a" x="1" y="1" width="91.61" height="162.33"/><path class="b" d="M95.67,191.67H4.05a1,1,0,0,1-1-1V28.33a1,1,0,0,1,1-1H95.67a1,1,0,0,1,1,1V190.67A1,1,0,0,1,95.67,191.67Zm-90.62-2H94.67V29.33H5.05V189.67Z" transform="translate(-3.05 -27.33)"/><line class="a" x1="2.95" y1="151.67" x2="90.95" y2="151.67"/><path class="b" d="M94,180H6a1,1,0,0,1,0-2H94A1,1,0,0,1,94,180Z" transform="translate(-3.05 -27.33)"/><line class="a" x1="0.95" y1="11.67" x2="92.95" y2="11.67"/><rect class="b" x="0.95" y="10.67" width="92" height="2"/><path class="a" d="M39.61,72.27a12.71,12.71,0,0,1-18.68-.53A10,10,0,0,1,39.61,72.27Z" transform="translate(-3.05 -27.33)"/><path class="b" d="M30.51,77.11A13.7,13.7,0,0,1,20.17,72.4a1,1,0,0,1-.17-1A11,11,0,0,1,40.56,72a1,1,0,0,1-.23,1A13.6,13.6,0,0,1,30.51,77.11Zm-8.41-5.56A11.71,11.71,0,0,0,38.45,72,9,9,0,0,0,22.11,71.55Z" transform="translate(-3.05 -27.33)"/><circle class="a" cx="27.03" cy="34.73" r="5.42"/><path class="b" d="M30.08,68.49a6.42,6.42,0,1,1,6.42-6.42A6.43,6.43,0,0,1,30.08,68.49Zm0-10.85a4.42,4.42,0,1,0,4.42,4.42A4.43,4.43,0,0,0,30.08,57.64Z" transform="translate(-3.05 -27.33)"/><path class="b" d="M30.51,77.11A13.73,13.73,0,1,1,40.33,73,13.7,13.7,0,0,1,30.51,77.11Zm0-25.44a11.72,11.72,0,0,0,0,23.44A11.73,11.73,0,0,0,42.24,63.39,11.74,11.74,0,0,0,30.51,51.66Z" transform="translate(-3.05 -27.33)"/><path class="b" d="M39,83H21a1,1,0,0,1,0-2H39A1,1,0,0,1,39,83Z" transform="translate(-3.05 -27.33)"/><path class="a" d="M77.61,72.27a12.71,12.71,0,0,1-18.68-.53A10,10,0,0,1,77.61,72.27Z" transform="translate(-3.05 -27.33)"/><path class="b" d="M68.51,77.11A13.7,13.7,0,0,1,58.17,72.4a1,1,0,0,1-.17-1A11,11,0,0,1,78.56,72a1,1,0,0,1-.23,1A13.6,13.6,0,0,1,68.51,77.11Zm-8.41-5.56A11.71,11.71,0,0,0,76.45,72,9,9,0,0,0,60.11,71.55Z" transform="translate(-3.05 -27.33)"/><circle class="a" cx="65.03" cy="34.73" r="5.42"/><path class="b" d="M68.08,68.49a6.42,6.42,0,1,1,6.42-6.42A6.43,6.43,0,0,1,68.08,68.49Zm0-10.85a4.42,4.42,0,1,0,4.42,4.42A4.43,4.43,0,0,0,68.08,57.64Z" transform="translate(-3.05 -27.33)"/><path class="b" d="M68.51,77.11A13.73,13.73,0,1,1,78.33,73,13.7,13.7,0,0,1,68.51,77.11Zm0-25.44a11.72,11.72,0,0,0,0,23.44A11.73,11.73,0,0,0,80.24,63.39,11.74,11.74,0,0,0,68.51,51.66Z" transform="translate(-3.05 -27.33)"/><path class="b" d="M77,83H59a1,1,0,0,1,0-2H77A1,1,0,0,1,77,83Z" transform="translate(-3.05 -27.33)"/><path class="a" d="M77.61,116.27a12.71,12.71,0,0,1-18.68-.53A10,10,0,0,1,77.61,116.27Z" transform="translate(-3.05 -27.33)"/><path class="b" d="M68.51,121.11a13.7,13.7,0,0,1-10.34-4.71,1,1,0,0,1-.17-1,11,11,0,0,1,20.56.59,1,1,0,0,1-.23,1A13.6,13.6,0,0,1,68.51,121.11Zm-8.41-5.56a11.71,11.71,0,0,0,16.34.46A9,9,0,0,0,60.11,115.55Z" transform="translate(-3.05 -27.33)"/><circle class="a" cx="65.03" cy="78.73" r="5.42"/><path class="b" d="M68.08,112.49a6.42,6.42,0,1,1,6.42-6.42A6.43,6.43,0,0,1,68.08,112.49Zm0-10.85a4.42,4.42,0,1,0,4.42,4.42A4.43,4.43,0,0,0,68.08,101.64Z" transform="translate(-3.05 -27.33)"/><path class="b" d="M68.51,121.11A13.73,13.73,0,1,1,78.33,117,13.7,13.7,0,0,1,68.51,121.11Zm0-25.44a11.72,11.72,0,0,0,0,23.44,11.73,11.73,0,0,0,11.72-11.72A11.74,11.74,0,0,0,68.51,95.66Z" transform="translate(-3.05 -27.33)"/><path class="b" d="M77,127H59a1,1,0,0,1,0-2H77A1,1,0,0,1,77,127Z" transform="translate(-3.05 -27.33)"/><path class="a" d="M39.61,116.27a12.71,12.71,0,0,1-18.68-.53A10,10,0,0,1,39.61,116.27Z" transform="translate(-3.05 -27.33)"/><path class="b" d="M30.51,121.11a13.7,13.7,0,0,1-10.34-4.71,1,1,0,0,1-.17-1,11,11,0,0,1,20.56.59,1,1,0,0,1-.23,1A13.6,13.6,0,0,1,30.51,121.11Zm-8.41-5.56a11.71,11.71,0,0,0,16.34.46A9,9,0,0,0,22.11,115.55Z" transform="translate(-3.05 -27.33)"/><circle class="a" cx="27.03" cy="78.73" r="5.42"/><path class="b" d="M30.08,112.49a6.42,6.42,0,1,1,6.42-6.42A6.43,6.43,0,0,1,30.08,112.49Zm0-10.85a4.42,4.42,0,1,0,4.42,4.42A4.43,4.43,0,0,0,30.08,101.64Z" transform="translate(-3.05 -27.33)"/><path class="b" d="M30.51,121.11A13.73,13.73,0,1,1,40.33,117,13.7,13.7,0,0,1,30.51,121.11Zm0-25.44a11.72,11.72,0,0,0,0,23.44,11.73,11.73,0,0,0,11.73-11.72A11.74,11.74,0,0,0,30.51,95.66Z" transform="translate(-3.05 -27.33)"/><path class="b" d="M39,127H21a1,1,0,0,1,0-2H39A1,1,0,0,1,39,127Z" transform="translate(-3.05 -27.33)"/><path class="a" d="M39.61,158.27a12.71,12.71,0,0,1-18.68-.53A10,10,0,0,1,39.61,158.27Z" transform="translate(-3.05 -27.33)"/><path class="b" d="M30.51,163.11a13.7,13.7,0,0,1-10.34-4.71,1,1,0,0,1-.17-1,11,11,0,0,1,20.56.59,1,1,0,0,1-.23,1A13.6,13.6,0,0,1,30.51,163.11Zm-8.41-5.56a11.71,11.71,0,0,0,16.34.46A9,9,0,0,0,22.11,157.55Z" transform="translate(-3.05 -27.33)"/><circle class="a" cx="27.03" cy="120.73" r="5.42"/><path class="b" d="M30.08,154.49a6.42,6.42,0,1,1,6.42-6.42A6.43,6.43,0,0,1,30.08,154.49Zm0-10.85a4.42,4.42,0,1,0,4.42,4.42A4.43,4.43,0,0,0,30.08,143.64Z" transform="translate(-3.05 -27.33)"/><path class="b" d="M30.51,163.11A13.73,13.73,0,1,1,40.33,159,13.7,13.7,0,0,1,30.51,163.11Zm0-25.44a11.72,11.72,0,0,0,0,23.44,11.73,11.73,0,0,0,11.73-11.72A11.74,11.74,0,0,0,30.51,137.66Z" transform="translate(-3.05 -27.33)"/><path class="b" d="M39,169H21a1,1,0,0,1,0-2H39A1,1,0,0,1,39,169Z" transform="translate(-3.05 -27.33)"/><path class="a" d="M77.61,158.27a12.71,12.71,0,0,1-18.68-.53A10,10,0,0,1,77.61,158.27Z" transform="translate(-3.05 -27.33)"/><path class="b" d="M68.51,163.11a13.7,13.7,0,0,1-10.34-4.71,1,1,0,0,1-.17-1,11,11,0,0,1,20.56.59,1,1,0,0,1-.23,1A13.6,13.6,0,0,1,68.51,163.11Zm-8.41-5.56a11.71,11.71,0,0,0,16.34.46A9,9,0,0,0,60.11,157.55Z" transform="translate(-3.05 -27.33)"/><circle class="a" cx="65.03" cy="120.73" r="5.42"/><path class="b" d="M68.08,154.49a6.42,6.42,0,1,1,6.42-6.42A6.43,6.43,0,0,1,68.08,154.49Zm0-10.85a4.42,4.42,0,1,0,4.42,4.42A4.43,4.43,0,0,0,68.08,143.64Z" transform="translate(-3.05 -27.33)"/><path class="b" d="M68.51,163.11A13.73,13.73,0,1,1,78.33,159,13.7,13.7,0,0,1,68.51,163.11Zm0-25.44a11.72,11.72,0,0,0,0,23.44,11.73,11.73,0,0,0,11.72-11.72A11.74,11.74,0,0,0,68.51,137.66Z" transform="translate(-3.05 -27.33)"/><path class="b" d="M77,169H59a1,1,0,0,1,0-2H77A1,1,0,0,1,77,169Z" transform="translate(-3.05 -27.33)"/></svg>