<svg xmlns="http://www.w3.org/2000/svg" viewBox="0 0 259 57.72"><defs><style>.a{fill:#fff;}</style></defs><title>iteration</title><path class="a" d="M155,130H111a1,1,0,0,1,0-2h44a22,22,0,0,0,22-22,1,1,0,0,1,2,0A24,24,0,0,1,155,130Z" transform="translate(80 -82)"/><path class="a" d="M176.8,99.64a1,1,0,0,1-.95-0.68,21.89,21.89,0,0,0-3.21-6.1,1,1,0,0,1,1.6-1.2,23.92,23.92,0,0,1,3.5,6.66A1,1,0,0,1,176.8,99.64Z" transform="translate(80 -82)"/><path class="a" d="M-78.26,112.82a1,1,0,0,1-1-.75A24.07,24.07,0,0,1-80,106,24,24,0,0,1-56,82H155a1,1,0,0,1,0,2H-56a22,22,0,0,0-22,22,22.08,22.08,0,0,0,.71,5.56,1,1,0,0,1-.72,1.22A1,1,0,0,1-78.26,112.82Z" transform="translate(80 -82)"/><path class="a" d="M-56,130a24,24,0,0,1-19.82-10.46,1,1,0,0,1,.26-1.39,1,1,0,0,1,1.39.26A22,22,0,0,0-56,128a1,1,0,0,1,1,1A1,1,0,0,1-56,130Z" transform="translate(80 -82)"/><path class="a" d="M-37,130H-47a1,1,0,0,1-1-1,1,1,0,0,1,1-1h10a1,1,0,0,1,1,1A1,1,0,0,1-37,130Z" transform="translate(80 -82)"/><path class="a" d="M50,130H-22a1,1,0,0,1-1-1,1,1,0,0,1,1-1H50A1,1,0,0,1,50,130Z" transform="translate(80 -82)"/><path class="a" d="M77,130H57a1,1,0,0,1,0-2H77A1,1,0,0,1,77,130Z" transform="translate(80 -82)"/><path class="a" d="M97,130H89a1,1,0,0,1,0-2h8A1,1,0,0,1,97,130Z" transform="translate(80 -82)"/><path class="a" d="M-22.15,130.05a1,1,0,0,1-.71-0.29,1,1,0,0,1,0-1.41l9.67-9.67a1,1,0,0,1,1.41,0,1,1,0,0,1,0,1.41l-9.67,9.67A1,1,0,0,1-22.15,130.05Z" transform="translate(80 -82)"/><path class="a" d="M-12.48,139.72a1,1,0,0,1-.71-0.29l-9.67-9.67a1,1,0,0,1,0-1.41,1,1,0,0,1,1.41,0l9.67,9.67a1,1,0,0,1,0,1.41A1,1,0,0,1-12.48,139.72Z" transform="translate(80 -82)"/><path class="a" d="M110.41,130.05a1,1,0,0,1-.71-1.71l9.67-9.67a1,1,0,0,1,1.41,1.41l-9.67,9.67A1,1,0,0,1,110.41,130.05Z" transform="translate(80 -82)"/><path class="a" d="M120.07,139.72a1,1,0,0,1-.71-0.29l-9.67-9.67a1,1,0,0,1,1.41-1.41l9.67,9.67A1,1,0,0,1,120.07,139.72Z" transform="translate(80 -82)"/></svg>