<svg xmlns="http://www.w3.org/2000/svg" viewBox="0 0 259 57.72"><defs><style>.a{fill:#ff7396;}</style></defs><title>iteration</title><path class="a" d="M235,48H191a1,1,0,0,1,0-2h44a22,22,0,0,0,22-22,1,1,0,0,1,2,0A24,24,0,0,1,235,48Z" transform="translate(0)"/><path class="a" d="M256.8,17.64a1,1,0,0,1-.95-0.68,21.89,21.89,0,0,0-3.21-6.1,1,1,0,1,1,1.6-1.2,23.92,23.92,0,0,1,3.5,6.66A1,1,0,0,1,256.8,17.64Z" transform="translate(0)"/><path class="a" d="M1.74,30.82a1,1,0,0,1-1-.75A24.14,24.14,0,0,1,24,0H235a1,1,0,0,1,0,2H24A22,22,0,0,0,2.71,29.56,1,1,0,0,1,2,30.78H2A1,1,0,0,1,1.74,30.82Z" transform="translate(0)"/><path class="a" d="M24,48A24,24,0,0,1,4.18,37.54a1,1,0,0,1,1.65-1.13A22,22,0,0,0,24,46,1,1,0,0,1,24,48Z" transform="translate(0)"/><path class="a" d="M43,48H33a1,1,0,0,1,0-2H43A1,1,0,0,1,43,48Z" transform="translate(0)"/><path class="a" d="M130,48H58a1,1,0,0,1,0-2h72A1,1,0,0,1,130,48Z" transform="translate(0)"/><path class="a" d="M157,48H137a1,1,0,0,1,0-2h20A1,1,0,0,1,157,48Z" transform="translate(0)"/><path class="a" d="M177,48h-8a1,1,0,0,1,0-2h8A1,1,0,0,1,177,48Z" transform="translate(0)"/><path class="a" d="M57.85,48.05a1,1,0,0,1-.71-1.7l9.67-9.67a1,1,0,0,1,1.41,1.41l-9.67,9.67A1,1,0,0,1,57.85,48.05Z" transform="translate(0)"/><path class="a" d="M67.52,57.72a1,1,0,0,1-.71-0.29l-9.67-9.67a1,1,0,0,1,1.41-1.41L68.22,56A1,1,0,0,1,67.52,57.72Z" transform="translate(0)"/><path class="a" d="M190.41,48.05a1,1,0,0,1-.71-1.71l9.67-9.67a1,1,0,0,1,1.41,1.41l-9.67,9.67A1,1,0,0,1,190.41,48.05Z" transform="translate(0)"/><path class="a" d="M200.07,57.72a1,1,0,0,1-.71-0.29l-9.67-9.67a1,1,0,0,1,1.41-1.41L200.77,56A1,1,0,0,1,200.07,57.72Z" transform="translate(0)"/></svg>