<svg xmlns="http://www.w3.org/2000/svg" viewBox="0 0 48.03 61"><defs><style>.a{fill:#ff7396;}.b{fill:#fff;}</style></defs><title>launchpointer</title><path class="a" d="M74,107.3v10.59a1.84,1.84,0,0,1,0,.23,100.24,100.24,0,0,1-5.28,20.42A3.74,3.74,0,0,1,65.35,141H43.82a3.23,3.23,0,0,1-3.05-2.76C39,127.41,29.47,114.63,27.2,112.09a4.08,4.08,0,0,1-.85-4.61c1-2,3.56-3.37,6.35-3.25a7.41,7.41,0,0,1,5.3,2.7V84.58A4.64,4.64,0,0,1,42.37,80h1.9A5,5,0,0,1,49,84.58V94.65A1.48,1.48,0,0,1,50.42,94h2a4.51,4.51,0,0,1,4.32,3.23A2.88,2.88,0,0,1,57.87,97h2.37a5.28,5.28,0,0,1,4.66,3,2.88,2.88,0,0,1,1.44-.31A7.66,7.66,0,0,1,74,107.3Z" transform="translate(-25.97 -80)"/><path class="b" d="M66.34,99.68a2.88,2.88,0,0,0-1.44.31,5.28,5.28,0,0,0-4.66-3H57.87a2.88,2.88,0,0,0-1.09.23A4.51,4.51,0,0,0,52.46,94h-2a1.48,1.48,0,0,0-1.42.65V84.58A5,5,0,0,0,44.27,80h-1.9A4.64,4.64,0,0,0,38,84.58v22.35a7.41,7.41,0,0,0-5.3-2.7c-2.79-.12-5.38,1.21-6.35,3.25a4.08,4.08,0,0,0,.85,4.61c2.27,2.54,11.83,15.32,13.57,26.15A3.23,3.23,0,0,0,43.82,141H65.35a3.74,3.74,0,0,0,3.33-2.46A100.24,100.24,0,0,0,74,118.12a1.84,1.84,0,0,0,0-.23V107.3A7.66,7.66,0,0,0,66.34,99.68ZM72,117.82a83.5,83.5,0,0,1-5.16,20A1.79,1.79,0,0,1,65.35,139H43.82a1.23,1.23,0,0,1-1.07-1.07c-1.82-11.31-11.7-24.46-14.05-27.09a2.16,2.16,0,0,1-.52-2.46,4.65,4.65,0,0,1,4.43-2.13c3,0.14,5.39,3.13,5.39,4v7.65a1,1,0,0,0,2,0V84.58A2.64,2.64,0,0,1,42.37,82h1.9A3,3,0,0,1,47,84.58v23.33a1,1,0,0,0,2,0V98c0-1,.39-2,1.42-2h2A2.66,2.66,0,0,1,55,98.67V108a1,1,0,0,0,2,0v-8a1,1,0,0,1,.87-1h2.37C62,99,63,100.6,63,102.36v8.24a1,1,0,0,0,2,0v-8s0.23,0,.23,0a1,1,0,0,1,1-.85A5.75,5.75,0,0,1,72,107.3v10.52Z" transform="translate(-25.97 -80)"/></svg>