<?xml version="1.0" encoding="utf-8"?>
<!-- Generator: Adobe Illustrator 19.2.1, SVG Export Plug-In . SVG Version: 6.00 Build 0)  -->
<svg version="1.1" id="Layer_1" xmlns="http://www.w3.org/2000/svg" xmlns:xlink="http://www.w3.org/1999/xlink" x="0px" y="0px"
	 viewBox="0 0 48 61" style="enable-background:new 0 0 48 61;" xml:space="preserve">
<style type="text/css">
	.st0{fill:#FAFAFF;}
	.st1{fill:#FF7396;}
</style>
<title>launchpointer</title>
<path class="st0" d="M48,27.3v10.6c0,0.1,0,0.2,0,0.2c-1,7-2.8,13.8-5.3,20.4c-0.5,1.4-1.9,2.4-3.4,2.5H17.9c-1.5-0.1-2.8-1.2-3-2.8
	C13,47.4,3.5,34.6,1.2,32.1c-1.2-1.2-1.6-3-0.9-4.6c1-2,3.6-3.4,6.4-3.3c2.1,0.1,4,1.1,5.3,2.7V4.6c0-2.4,1.9-4.4,4.4-4.6h1.9
	c2.5,0.1,4.5,2.1,4.7,4.6v10.1c0.3-0.5,0.9-0.7,1.4-0.7h2c2,0,3.8,1.3,4.3,3.2c0.4-0.2,0.7-0.2,1.1-0.2h2.4c2,0,3.8,1.2,4.7,3
	c0.4-0.2,0.9-0.3,1.4-0.3C44.6,19.7,48,23.1,48,27.3z"/>
<path class="st1" d="M40.4,19.7c-0.5,0-1,0.1-1.4,0.3c-0.9-1.8-2.7-3-4.7-3h-2.4c-0.4,0-0.7,0.1-1.1,0.2c-0.6-1.9-2.3-3.2-4.3-3.2
	h-2c-0.6-0.1-1.1,0.2-1.4,0.7V4.6c-0.2-2.5-2.3-4.5-4.8-4.6h-1.9C14,0.1,12.1,2.1,12,4.6v22.3c-1.3-1.6-3.2-2.6-5.3-2.7
	c-2.8-0.1-5.4,1.2-6.4,3.3C-0.3,29,0,30.9,1.2,32.1C3.5,34.6,13,47.4,14.8,58.3c0.2,1.5,1.5,2.7,3,2.8h21.5c1.5-0.1,2.8-1,3.3-2.5
	c2.5-6.6,4.3-13.4,5.3-20.4c0-0.1,0-0.2,0-0.2V27.3C48,23.1,44.6,19.7,40.4,19.7z M46,37.8c-0.9,6.9-2.6,13.6-5.2,20
	c-0.2,0.6-0.8,1.1-1.5,1.2H17.9c-0.6-0.1-1-0.5-1.1-1.1C15,46.6,5.1,33.5,2.7,30.8c-0.7-0.6-0.9-1.6-0.5-2.5c1-1.5,2.7-2.3,4.4-2.1
	c3,0.1,5.4,3.1,5.4,4v7.7c0,0.6,0.4,1,1,1s1-0.4,1-1V4.6c0-1.3,1-2.4,2.4-2.6h1.9c1.4,0.1,2.5,1.2,2.7,2.6v23.3c0,0.6,0.4,1,1,1
	s1-0.4,1-1V18c0-1,0.4-2,1.4-2h2c1.4,0,2.6,1.2,2.6,2.7V28c0,0.6,0.4,1,1,1s1-0.4,1-1v-8c0-0.5,0.4-0.9,0.9-1h2.4
	c1.8,0,2.8,1.6,2.8,3.4v8.2c0,0.6,0.4,1,1,1s1-0.4,1-1v-8h0.2c0.1-0.5,0.5-0.9,1-0.8c3.1,0,5.7,2.4,5.8,5.6C46,27.3,46,37.8,46,37.8
	z"/>
</svg>
