<svg xmlns="http://www.w3.org/2000/svg" viewBox="0 0 82 123.47"><defs><style>.a,.c{fill:#ff7396;}.b{fill:#fff;}.c{stroke:#fff;stroke-linecap:round;stroke-linejoin:round;stroke-width:2px;}</style></defs><title>lightbulb</title><path class="a" d="M26.51,88.46H55.32a0,0,0,0,1,0,0v20.77a13.24,13.24,0,0,1-13.24,13.24H39.74a13.24,13.24,0,0,1-13.24-13.24V88.46a0,0,0,0,1,0,0Z"/><path class="b" d="M42.09,123.46H39.74a14.25,14.25,0,0,1-14.24-14.24V88.46a1,1,0,0,1,1-1H55.32a1,1,0,0,1,1,1v20.77A14.25,14.25,0,0,1,42.09,123.46Zm-14.58-34v19.77a12.25,12.25,0,0,0,12.24,12.24h2.34a12.25,12.25,0,0,0,12.24-12.24V89.46H27.51Z" transform="translate(0 0.01)"/><path class="a" d="M81,41A40,40,0,1,0,15.41,71.77a11.45,11.45,0,0,1,4,8.21L20,91.52a7,7,0,0,0,7,6.61H55a7,7,0,0,0,7-6.61l0.6-11.6a11.67,11.67,0,0,1,4.2-8.29A40,40,0,0,0,81,41Z" transform="translate(0 0.01)"/><path class="b" d="M55,99.13H27a8,8,0,0,1-8-7.56L18.45,80a10.47,10.47,0,0,0-3.68-7.5A40.91,40.91,0,0,1,0,40.3,41.35,41.35,0,0,1,40.12,0,41,41,0,0,1,67.4,72.39,10.72,10.72,0,0,0,63.56,80L63,91.57A8,8,0,0,1,55,99.13ZM41,2H40.16A39.33,39.33,0,0,0,2,40.33,38.92,38.92,0,0,0,16.05,71a12.47,12.47,0,0,1,4.39,8.93L21,91.47a6,6,0,0,0,6,5.67H55a6,6,0,0,0,6-5.67l0.6-11.6a12.73,12.73,0,0,1,4.55-9A39,39,0,0,0,41,2Z" transform="translate(0 0.01)"/><path class="a" d="M35,68.26s-9.61-24.81-9.61-28.32S43.6,40.2,47,39.94a87.23,87.23,0,0,1,9.87.26L47,68.26" transform="translate(0 0.01)"/><path class="b" d="M47,69.26a1,1,0,0,1-.33-0.06A1,1,0,0,1,46,67.93l9.44-26.82a73.68,73.68,0,0,0-8.42-.17,46.85,46.85,0,0,1-6.48-.57c-4-.49-13.24-1.62-14.18-0.37,0,2.38,5.73,18,9.56,27.9a1,1,0,1,1-1.87.72c-1-2.56-9.68-25.09-9.68-28.68a1.91,1.91,0,0,1,.68-1.46c1.86-1.65,7.69-1.08,15.73-.1a49.74,49.74,0,0,0,6.08.56,86.81,86.81,0,0,1,10,.26,1,1,0,0,1,.86,1.33L47.92,68.59A1,1,0,0,1,47,69.26Z" transform="translate(0 0.01)"/><path class="a" d="M33.21,104.41c2.9-.89,5.45-1.73,8.92-3.07" transform="translate(0 0.01)"/><path class="b" d="M33.21,105.41a1,1,0,0,1-.29-2c2.93-.9,5.43-1.72,8.85-3a1,1,0,1,1,.72,1.87c-3.48,1.34-6,2.18-9,3.09A1,1,0,0,1,33.21,105.41Z" transform="translate(0 0.01)"/><path class="c" d="M26.51,109.41" transform="translate(0 0.01)"/><path class="a" d="M42.77,109.92a57.86,57.86,0,0,0,12.55-6.4" transform="translate(0 0.01)"/><path class="b" d="M42.77,110.92A1,1,0,0,1,42.4,109a55.88,55.88,0,0,0,12.34-6.28,1,1,0,1,1,1.17,1.63,57.77,57.77,0,0,1-12.77,6.52A1,1,0,0,1,42.77,110.92Z" transform="translate(0 0.01)"/><path class="a" d="M27.55,115.12s3.46-1.1,9.19-3" transform="translate(0 0.01)"/><path class="b" d="M27.55,116.12a1,1,0,0,1-.3-2s3.52-1.12,9.18-3a1,1,0,0,1,.63,1.9c-5.68,1.9-9.17,3-9.21,3A1,1,0,0,1,27.55,116.12Z" transform="translate(0 0.01)"/><rect class="a" x="35.03" y="68.27" width="11.95" height="29.87"/><path class="b" d="M47,99.13H35a1,1,0,0,1-1-1V68.26a1,1,0,0,1,1-1H47a1,1,0,0,1,1,1V98.13A1,1,0,0,1,47,99.13ZM36,97.13H46V69.26H36V97.13Z" transform="translate(0 0.01)"/></svg>