<?xml version="1.0" encoding="utf-8"?>
<!-- Generator: Adobe Illustrator 19.2.1, SVG Export Plug-In . SVG Version: 6.00 Build 0)  -->
<svg version="1.1" id="Layer_1" xmlns="http://www.w3.org/2000/svg" xmlns:xlink="http://www.w3.org/1999/xlink" x="0px" y="0px"
	 viewBox="0 0 404 224" style="enable-background:new 0 0 404 224;" xml:space="preserve">
<style type="text/css">
	.st0{fill:#FAFAFF;}
	.st1{fill:#635DA8;}
	.st2{fill:#FF7396;}
	.st3{fill:#FFFFFF;}
</style>
<title>mockup</title>
<path class="st0" d="M3,1h398c1.1,0,2,0.9,2,2v218c0,1.1-0.9,2-2,2H3c-1.1,0-2-0.9-2-2V3C1,1.9,1.9,1,3,1z"/>
<path class="st1" d="M401,2c0.6,0,1,0.4,1,1v218c0,0.6-0.4,1-1,1H3c-0.6,0-1-0.4-1-1V3c0-0.6,0.4-1,1-1H401 M401,0H3
	C1.3,0,0,1.3,0,3v218c0,1.7,1.3,3,3,3h398c1.7,0,3-1.3,3-3V3C404,1.3,402.7,0,401,0L401,0z"/>
<rect x="155.3" y="90.5" class="st2" width="93.5" height="3.1"/>
<rect x="160.5" y="100.1" class="st2" width="82.9" height="3.1"/>
<rect x="157.2" y="109.7" class="st2" width="89.5" height="3.1"/>
<rect x="160.5" y="119.3" class="st2" width="82.9" height="3.1"/>
<path class="st2" d="M290.3,212H113.8c-0.6,0-1-0.4-1-1v-63c0-0.6,0.4-1,1-1h176.5c0.6,0,1,0.4,1,1v63
	C291.3,211.6,290.8,212,290.3,212z M114.8,210h174.5v-61H114.8V210z"/>
<path class="st2" d="M290.3,136H113.8c-0.6,0-1-0.4-1-1V24.5c0-0.6,0.4-1,1-1h176.5c0.6,0,1,0.4,1,1V135
	C291.3,135.6,290.8,136,290.3,136z M114.8,134h174.5V25.5H114.8V134z"/>
<path class="st0" d="M216.6,74.1c-8.1,7.3-20.3,7.5-28.6,0.5c1.2-7.9,8.6-13.4,16.5-12.2C210.6,63.4,215.5,68,216.6,74.1z"/>
<path class="st2" d="M202,80.7c-5.4,0-10.6-1.9-14.7-5.4c-0.3-0.2-0.4-0.6-0.3-0.9c1.3-8.5,9.2-14.3,17.7-13c6.5,1,11.7,6,12.9,12.5
	c0.1,0.3-0.1,0.7-0.3,0.9C213.1,78.6,207.6,80.7,202,80.7z M189.1,74.2c7.8,6.2,18.9,6,26.4-0.5c-1.7-7.3-9-11.8-16.2-10.1
	C194.1,64.8,190.1,69,189.1,74.2z"/>
<circle class="st0" cx="202.3" cy="57.3" r="8.3"/>
<path class="st2" d="M202.3,66.7c-5.2,0-9.3-4.2-9.3-9.3s4.2-9.3,9.3-9.3s9.3,4.2,9.3,9.3C211.7,62.5,207.5,66.7,202.3,66.7z
	 M202.3,50c-4,0-7.3,3.3-7.3,7.3s3.3,7.3,7.3,7.3s7.3-3.3,7.3-7.3C209.7,53.3,206.4,50,202.3,50z"/>
<path class="st2" d="M202,80.7c-5.4,0-10.6-1.9-14.7-5.4c-0.5-0.4-1-0.9-1.4-1.3c-8.9-8.9-8.9-23.3,0-32.1c8.9-8.9,23.3-8.9,32.1,0
	s8.9,23.3,0,32.1l0,0c-0.3,0.3-0.5,0.5-0.8,0.8C213.1,78.6,207.6,80.7,202,80.7z M202,37.3c-11.4,0-20.7,9.3-20.7,20.7
	c0,5.5,2.2,10.8,6.1,14.7c0.4,0.4,0.8,0.8,1.3,1.2c7.9,6.7,19.6,6.5,27.3-0.5c0.3-0.2,0.5-0.4,0.7-0.7l0,0c8.1-8.1,8.1-21.2,0-29.3
	C212.7,39.5,207.5,37.3,202,37.3z"/>
<path class="st2" d="M156.2,187.5c-1.3,0-2.8,0-4.4-0.1c-15.2-0.4-37.9-2.4-38.2-2.5c-0.6,0-1-0.5-0.9-1.1c0-0.6,0.5-1,1.1-0.9
	c0.2,0,22.9,2.1,38,2.5c3.3,0.1,6.7,0.1,10-0.1c5.3-0.5,16.9-1.2,28.7-1.8c8.8-0.4,24.1-1.1,28.6-0.5c8.6,1.2,34.7,2.3,38.1,0.1
	c0.4-0.3,1.1-0.2,1.4,0.2s0.2,1.1-0.2,1.4c0,0-0.1,0-0.1,0.1c-4.3,2.9-33,1.1-39.4,0.2c-3.1-0.4-13.2-0.3-28.2,0.5
	c-11.8,0.6-23.3,1.4-28.6,1.8C160.6,187.4,158.6,187.5,156.2,187.5z"/>
<path class="st2" d="M156.2,187.5c-1.3,0-2.8,0-4.4-0.1c-0.4,0-0.8-0.3-0.9-0.7c-3.4-11.1,2.9-22.8,14-26.2s22.8,2.9,26.2,14
	c1,3.3,1.2,6.7,0.5,10.1c-0.1,0.5-0.5,0.8-0.9,0.8c-11.8,0.6-23.3,1.4-28.6,1.8C160.6,187.4,158.6,187.5,156.2,187.5z M152.6,185.5
	c4.1,0.1,7.2,0,9.3-0.1c5.2-0.4,16.3-1.2,27.9-1.8c1.6-10.4-5.5-20.1-15.9-21.7c-10.4-1.6-20.1,5.5-21.7,15.9
	C151.8,180.4,152,183,152.6,185.5L152.6,185.5z M190.6,184L190.6,184z"/>
<path class="st2" d="M171,201.7c-1.8,0-3.7-0.2-5.5-0.5c-2.8-0.5-3.5-0.8-3.5-1.7c0-0.1,0-0.3,0.1-0.4c-1.7-0.7-3.4-1.3-5.1-1.7
	c-1.3-0.3-2.8-0.8-3.3-2c-0.3-1.1,0-2.3,0.7-3.2c0.5-0.7-1.3-3.2-3.2-4.9c-0.4-0.3-0.5-1-0.2-1.4s1-0.5,1.4-0.2l0.1,0.1
	c1.2,1.1,5.1,5,3.6,7.5c-0.3,0.4-0.5,0.8-0.5,1.4c0,0.1,0.3,0.4,1.9,0.8c0.1,0,7.5,1.8,7.8,3.7c1.9,0.4,3.8,0.6,5.8,0.6
	c2.8,0,8.7-1.3,11.9-2.1c-0.2-0.3-0.4-0.6-0.5-1c-0.1-0.6-0.3-2.5,2.8-3.9c0.2-0.1,0.4-0.2,0.6-0.4c-0.1-0.6-0.4-1.1-0.8-1.6
	c-0.6-0.8-1.1-1.5-0.8-2.4c0.2-0.5,0.6-0.8,1.2-0.9c1.3-0.3,3.5-2.3,4.5-3.5c0.4-0.4,1-0.5,1.4-0.1s0.5,1,0.1,1.4
	c-0.3,0.3-2.8,3.1-5,4l0.3,0.4c0.6,0.9,1.4,2,1.1,3.3c-0.3,0.8-0.9,1.4-1.6,1.7c-1.3,0.6-1.7,1.3-1.6,1.7c0.2,0.4,0.6,0.6,1,0.5h0.4
	c0.5,0.1,0.8,0.5,0.9,1c0,0.8,0,1.2-6.6,2.6C177.1,201,174.1,201.5,171,201.7z M163.5,200L163.5,200z"/>
<path class="st2" d="M290.3,196.5c-0.4,0-0.7-0.2-0.9-0.5l0,0c0,0-2.4-3.1-17.5-5.5c-9.2-1.5-14.1-3.3-15-5.4
	c-0.3-0.5-0.2-1.2,0.1-1.7c0.1-0.1,0.2-0.2,0.4-0.3c2.2-1.1,21.9-11.3,26.4-11.5c2.1,0,4.2-0.6,6-1.6c0.5-0.3,1.1-0.1,1.4,0.3
	c0.3,0.4,0.2,1-0.2,1.3c-0.1,0.1-2.4,1.7-7,1.9c-3.3,0.2-18.6,7.7-25,11c0.6,0.6,3,2.4,13.3,4c16,2.6,18.6,5.9,19,6.5
	c0.3,0.5,0.1,1.1-0.4,1.4l0,0C290.6,196.5,290.4,196.5,290.3,196.5z"/>
<rect y="11" class="st1" width="404" height="2"/>
<path class="st3" d="M6,8.2c0.8,0,1.5-0.7,1.5-1.5S6.8,5.2,6,5.2S4.5,5.8,4.5,6.7S5.2,8.2,6,8.2L6,8.2z"/>
<path class="st3" d="M11,8.2c0.8,0,1.5-0.7,1.5-1.5S11.8,5.2,11,5.2S9.5,5.8,9.5,6.7S10.2,8.2,11,8.2L11,8.2z"/>
<path class="st3" d="M16,7.8c0.8,0,1.5-0.7,1.5-1.5S16.8,4.8,16,4.8c-0.8,0-1.5,0.7-1.5,1.5S15.2,7.8,16,7.8L16,7.8z"/>
<rect x="9" y="12" class="st1" width="2" height="210"/>
<rect x="390" y="12" class="st1" width="2" height="210"/>
<path class="st1" d="M391,102.7h-45c-0.6,0-1-0.4-1-1V49c0-0.6,0.4-1,1-1h45c0.6,0,1,0.4,1,1v52.7C392,102.2,391.6,102.7,391,102.7z
	 M347,100.7h43V50h-43V100.7z"/>
<rect x="346" y="56" class="st1" width="45" height="2"/>
</svg>
