<svg xmlns="http://www.w3.org/2000/svg" viewBox="0 0 404 224"><defs><style>.a{fill:#ff7396;}.b{fill:#fff;}</style></defs><title>mockup</title><rect class="a" x="1" y="1" width="402" height="222" rx="2" ry="2"/><path class="b" d="M399,0a1,1,0,0,1,1,1V219a1,1,0,0,1-1,1H1a1,1,0,0,1-1-1V1A1,1,0,0,1,1,0H399m0-2H1A3,3,0,0,0-2,1V219a3,3,0,0,0,3,3H399a3,3,0,0,0,3-3V1a3,3,0,0,0-3-3h0Z" transform="translate(2 2)"/><rect class="b" x="155.25" y="90.5" width="93.5" height="3.14"/><rect class="b" x="160.53" y="100.11" width="82.94" height="3.14"/><rect class="b" x="157.24" y="109.72" width="89.53" height="3.14"/><rect class="b" x="160.53" y="119.33" width="82.94" height="3.14"/><path class="b" d="M288.25,210H111.75a1,1,0,0,1-1-1V146a1,1,0,0,1,1-1h176.5a1,1,0,0,1,1,1v63A1,1,0,0,1,288.25,210Zm-175.5-2h174.5V147H112.75v61Z" transform="translate(2 2)"/><path class="b" d="M288.25,134H111.75a1,1,0,0,1-1-1V22.5a1,1,0,0,1,1-1h176.5a1,1,0,0,1,1,1V133A1,1,0,0,1,288.25,134Zm-175.5-2h174.5V23.5H112.75V132Z" transform="translate(2 2)"/><path class="a" d="M214.6,72.08a21.7,21.7,0,0,1-28.62.51A14.52,14.52,0,0,1,214.6,72.08Z" transform="translate(2 2)"/><path class="b" d="M200,78.72a22.63,22.63,0,0,1-14.67-5.37,1,1,0,0,1-.34-0.91,15.52,15.52,0,0,1,30.59-.54,1,1,0,0,1-.31.92A22.62,22.62,0,0,1,200,78.72Zm-12.94-6.53a20.73,20.73,0,0,0,26.44-.47A13.52,13.52,0,0,0,187.06,72.19Z" transform="translate(2 2)"/><circle class="a" cx="202.33" cy="57.33" r="8.33"/><path class="b" d="M200.33,64.67a9.33,9.33,0,1,1,9.33-9.33A9.34,9.34,0,0,1,200.33,64.67Zm0-16.67a7.33,7.33,0,1,0,7.33,7.33A7.34,7.34,0,0,0,200.33,48Z" transform="translate(2 2)"/><path class="b" d="M200,78.72a22.64,22.64,0,0,1-14.67-5.37c-0.5-.42-1-0.86-1.4-1.29a22.73,22.73,0,1,1,32.13,0c-0.26.26-.53,0.52-0.81,0.76A22.59,22.59,0,0,1,200,78.72Zm0-43.45a20.72,20.72,0,0,0-14.65,35.38c0.39,0.39.82,0.79,1.28,1.17a20.72,20.72,0,0,0,27.3-.49c0.26-.23.49-0.45,0.73-0.69h0A20.73,20.73,0,0,0,200,35.27Z" transform="translate(2 2)"/><path class="b" d="M154.22,185.52q-2,0-4.4-.06c-15.16-.39-37.94-2.44-38.17-2.46a1,1,0,1,1,.18-2c0.23,0,22.94,2.07,38,2.46a99.78,99.78,0,0,0,10-.13c5.3-.46,16.85-1.24,28.67-1.84,8.77-.44,24.15-1.1,28.56-0.48,8.61,1.2,34.74,2.3,38.06.08a1,1,0,1,1,1.11,1.66c-4.34,2.91-33,1.14-39.44.24-3.15-.44-13.16-0.26-28.18.5-11.79.6-23.31,1.38-28.59,1.84C158.61,185.45,156.64,185.52,154.22,185.52Z" transform="translate(2 2)"/><path class="b" d="M154.22,185.52q-2,0-4.4-.06a1,1,0,0,1-.93-0.71,21,21,0,1,1,40.72-2.07,1,1,0,0,1-.93.81c-11.79.6-23.31,1.38-28.59,1.84C158.61,185.45,156.64,185.52,154.22,185.52Zm-3.61-2c4.08,0.08,7.21,0,9.3-.14,5.18-.45,16.34-1.21,27.87-1.8A19,19,0,1,0,150.61,183.48Zm38-1.48h0Z" transform="translate(2 2)"/><path class="b" d="M169,199.67a33.84,33.84,0,0,1-5.49-.51c-2.75-.48-3.47-0.83-3.47-1.72a1.05,1.05,0,0,1,.09-0.43,34.54,34.54,0,0,0-5.12-1.71c-1.27-.29-2.79-0.77-3.29-2a3.57,3.57,0,0,1,.68-3.18c0.46-.74-1.32-3.21-3.22-4.94a1,1,0,1,1,1.34-1.48c1.24,1.12,5.15,5,3.58,7.48a1.93,1.93,0,0,0-.53,1.35c0,0.07.26,0.44,1.89,0.81,0.08,0,7.51,1.76,7.79,3.72a32,32,0,0,0,5.75.59c2.79,0,8.7-1.26,11.9-2.09a2.43,2.43,0,0,1-.49-1c-0.12-.56-0.29-2.52,2.75-3.91a1,1,0,0,0,.56-0.43,3.38,3.38,0,0,0-.78-1.58c-0.55-.79-1.06-1.54-0.75-2.36a1.52,1.52,0,0,1,1.16-.93c1.29-.31,3.46-2.33,4.53-3.53a1,1,0,0,1,1.5,1.33c-0.3.34-2.83,3.14-5,4l0.25,0.37c0.62,0.9,1.4,2,1.06,3.25a2.74,2.74,0,0,1-1.65,1.71c-1.25.57-1.72,1.26-1.63,1.67a0.91,0.91,0,0,0,1,.53l0.41,0a1.1,1.1,0,0,1,.85,1c0,0.8,0,1.17-6.59,2.6A54.9,54.9,0,0,1,169,199.67ZM161.46,198h0Z" transform="translate(2 2)"/><path class="b" d="M288.25,194.5a1,1,0,0,1-.87-0.51h0s-2.38-3.07-17.53-5.5c-9.2-1.47-14.11-3.26-15-5.45a1.76,1.76,0,0,1,.12-1.7,1,1,0,0,1,.35-0.3c2.23-1.15,21.94-11.28,26.4-11.53a12.65,12.65,0,0,0,6-1.57,1,1,0,0,1,1.15,1.63c-0.1.07-2.41,1.67-7,1.93-3.3.19-18.59,7.72-25,11,0.56,0.63,3,2.36,13.34,4,16,2.57,18.61,5.87,19,6.5a1,1,0,0,1-.39,1.36A1,1,0,0,1,288.25,194.5Z" transform="translate(2 2)"/><rect class="b" y="11" width="404" height="2"/><path class="b" d="M4,6.17a1.5,1.5,0,0,0,0-3,1.5,1.5,0,0,0,0,3H4Z" transform="translate(2 2)"/><path class="b" d="M9,6.17a1.5,1.5,0,0,0,0-3,1.5,1.5,0,0,0,0,3H9Z" transform="translate(2 2)"/><path class="b" d="M14,5.83a1.5,1.5,0,0,0,0-3,1.5,1.5,0,0,0,0,3h0Z" transform="translate(2 2)"/><rect class="b" x="9" y="12" width="2" height="210"/><rect class="b" x="390" y="12" width="2" height="210"/><path class="b" d="M389,100.68H344a1,1,0,0,1-1-1V47a1,1,0,0,1,1-1h45a1,1,0,0,1,1,1V99.68A1,1,0,0,1,389,100.68Zm-44-2h43V48H345V98.68Z" transform="translate(2 2)"/><rect class="b" x="346" y="56" width="45" height="2"/></svg>