<svg xmlns="http://www.w3.org/2000/svg" viewBox="0 0 575.44 240.3"><defs><style>.a{fill:#ff7396;}.b{fill:#fff;}</style></defs><title>relax</title><circle class="a" cx="217.79" cy="71.56" r="67" transform="translate(101.16 267.73) rotate(-78.79)"/><path class="b" d="M217.93,139.59a68.62,68.62,0,0,1-13.37-1.32h0A68,68,0,0,1,180,15,68,68,0,0,1,284.49,84.79,68.05,68.05,0,0,1,217.93,139.59Zm-0.28-134a66,66,0,0,0-54.72,102.72,65.57,65.57,0,0,0,42,28h0A66,66,0,0,0,272.64,34.86a65.57,65.57,0,0,0-42-28A66.67,66.67,0,0,0,217.65,5.54Z" transform="translate(-4.07 -3.54)"/><path class="b" d="M217.79,87.22a15.65,15.65,0,0,1-3-.3h0A15.64,15.64,0,1,1,217.79,87.22ZM215.13,85a13.65,13.65,0,1,0-10.74-16,13.67,13.67,0,0,0,10.74,16h0Z" transform="translate(-4.07 -3.54)"/><path class="b" d="M256.64,109.8a1,1,0,0,1-.72-1.69,52.92,52.92,0,0,0,13.95-45.35,1,1,0,0,1,2-.33,54.92,54.92,0,0,1-14.48,47.07A1,1,0,0,1,256.64,109.8Z" transform="translate(-4.07 -3.54)"/><path class="b" d="M268.45,54.42a1,1,0,0,1-.94-0.66A53.26,53.26,0,0,0,240.9,24.07a1,1,0,0,1,.87-1.8,55.28,55.28,0,0,1,27.62,30.81,1,1,0,0,1-.6,1.28A1,1,0,0,1,268.45,54.42Z" transform="translate(-4.07 -3.54)"/><path class="b" d="M230.66,20.32l-0.24,0q-1.17-.29-2.37-0.53a1,1,0,1,1,.39-2q1.24,0.25,2.46.54A1,1,0,0,1,230.66,20.32Z" transform="translate(-4.07 -3.54)"/><path class="b" d="M165.12,83.68a1,1,0,0,1-1-.79,54.45,54.45,0,0,1-.12-22,1,1,0,0,1,2,.39,52.46,52.46,0,0,0,.12,21.17,1,1,0,0,1-.77,1.19Z" transform="translate(-4.07 -3.54)"/><path class="b" d="M167.78,92.45a1,1,0,0,1-.93-0.63c-0.51-1.28-1-2.6-1.39-3.92a1,1,0,0,1,1.91-.6c0.4,1.27.85,2.54,1.34,3.77A1,1,0,0,1,167.78,92.45Z" transform="translate(-4.07 -3.54)"/><path class="b" d="M207.32,125.34l-0.2,0a54.8,54.8,0,0,1-15.51-5.59,1,1,0,1,1,1-1.76,52.81,52.81,0,0,0,14.94,5.38A1,1,0,0,1,207.32,125.34Z" transform="translate(-4.07 -3.54)"/><path class="b" d="M229.86,111a1,1,0,0,1-.3-2c0.89-.28,1.78-0.59,2.64-0.93a1,1,0,1,1,.73,1.86c-0.91.36-1.84,0.69-2.77,1A1,1,0,0,1,229.86,111Z" transform="translate(-4.07 -3.54)"/><path class="b" d="M237.36,107.81a1,1,0,0,1-.49-1.87A39.32,39.32,0,0,0,221.22,32.4a1,1,0,0,1,.18-2,41.32,41.32,0,0,1,16.44,77.28A1,1,0,0,1,237.36,107.81Z" transform="translate(-4.07 -3.54)"/><path class="b" d="M205.71,34.11a1,1,0,0,1-.3-2,41.72,41.72,0,0,1,6.52-1.49,1,1,0,1,1,.29,2A39.68,39.68,0,0,0,206,34.06,1,1,0,0,1,205.71,34.11Z" transform="translate(-4.07 -3.54)"/><path class="b" d="M177.61,75.91a1,1,0,0,1-1-.92,41.39,41.39,0,0,1,.66-11.46,1,1,0,0,1,2,.39,39.38,39.38,0,0,0-.63,10.9,1,1,0,0,1-.91,1.08h-0.08Z" transform="translate(-4.07 -3.54)"/><path class="b" d="M209.95,112.1l-0.2,0a41.33,41.33,0,0,1-29.94-24.26,1,1,0,1,1,1.84-.79,39.33,39.33,0,0,0,28.49,23.08A1,1,0,0,1,209.95,112.1Z" transform="translate(-4.07 -3.54)"/><path class="b" d="M217.79,72.68s2-3,0-3a1.5,1.5,0,1,0,0,3h0Z" transform="translate(-4.07 -3.54)"/><rect class="a" x="20.74" y="84.56" width="133.44" height="133.44" rx="1" ry="1" transform="translate(-42.66 26.71) rotate(-16.13)"/><path class="b" d="M170.78,195.6L134.26,69.34A2,2,0,0,0,131.78,68L5.52,104.49A2,2,0,0,0,4.15,107L40.67,233.23a2,2,0,0,0,2.48,1.37l126.27-36.52A2,2,0,0,0,170.78,195.6ZM42.59,232.68L6.07,106.41,132.34,69.89l36.52,126.26Z" transform="translate(-4.07 -3.54)"/><path class="b" d="M85.37,186.15a41.89,41.89,0,1,1,40.29-53.54h0A41.94,41.94,0,0,1,85.37,186.15Zm0.12-81.8a39.94,39.94,0,0,0-38.37,51A39.86,39.86,0,1,0,85.48,104.34Z" transform="translate(-4.07 -3.54)"/><rect class="b" x="47.32" y="117.51" width="62" height="2" transform="translate(-33.91 22.87) rotate(-16.13)"/><rect class="b" x="43.38" y="128.08" width="76" height="2" transform="matrix(0.96, -0.28, 0.28, 0.96, -36.73, 24.15)"/><rect class="b" x="43.43" y="138.64" width="82" height="2" transform="matrix(0.96, -0.28, 0.28, 0.96, -39.55, 25.42)"/><rect class="b" x="44.68" y="146.47" width="83" height="2" transform="matrix(0.96, -0.28, 0.28, 0.96, -41.66, 26.21)"/><rect class="b" x="48.9" y="154.15" width="79" height="2" transform="matrix(0.96, -0.28, 0.28, 0.96, -43.7, 27.13)"/><rect class="b" x="54.12" y="161.84" width="73" height="2" transform="matrix(0.96, -0.28, 0.28, 0.96, -45.75, 28.05)"/><rect class="b" x="62.34" y="169.52" width="61" height="2" transform="matrix(0.96, -0.28, 0.28, 0.96, -47.8, 28.97)"/><path class="b" d="M88.79,202.25s2-3,0-3a1.5,1.5,0,0,0,0,3h0Z" transform="translate(-4.07 -3.54)"/><path class="b" d="M89.79,206.24s2-3,0-3a1.5,1.5,0,0,0,0,3h0Z" transform="translate(-4.07 -3.54)"/><path class="b" d="M93.79,205.1s2-3,0-3a1.5,1.5,0,0,0,0,3h0Z" transform="translate(-4.07 -3.54)"/><path class="b" d="M92.79,201.08s2-3,0-3a1.5,1.5,0,0,0,0,3h0Z" transform="translate(-4.07 -3.54)"/><path class="b" d="M96.79,199.93s2-3,0-3a1.5,1.5,0,1,0,0,3h0Z" transform="translate(-4.07 -3.54)"/><path class="b" d="M100.79,198.76s2-3,0-3a1.5,1.5,0,1,0,0,3h0Z" transform="translate(-4.07 -3.54)"/><path class="b" d="M101.79,202.79s2-3,0-3a1.5,1.5,0,1,0,0,3h0Z" transform="translate(-4.07 -3.54)"/><path class="b" d="M105.79,201.6s2-3,0-3a1.5,1.5,0,0,0,0,3h0Z" transform="translate(-4.07 -3.54)"/><path class="b" d="M109.79,200.45s2-3,0-3a1.5,1.5,0,1,0,0,3h0Z" transform="translate(-4.07 -3.54)"/><path class="b" d="M113.79,199.3s2-3,0-3a1.5,1.5,0,0,0,0,3h0Z" transform="translate(-4.07 -3.54)"/><path class="b" d="M108.79,196.43s2-3,0-3a1.5,1.5,0,1,0,0,3h0Z" transform="translate(-4.07 -3.54)"/><rect class="a" x="145.25" y="98.28" width="134.16" height="134.16" rx="1" ry="1" transform="translate(-29.38 35.5) rotate(-9.92)"/><path class="b" d="M158.61,243.84a2,2,0,0,1-2-1.66L133.89,112a2,2,0,0,1,1.63-2.31L265.7,86.92A2,2,0,0,1,268,88.54l22.76,130.19a2,2,0,0,1-1.62,2.31L159,243.81A2,2,0,0,1,158.61,243.84ZM266,88.89L135.86,111.65l22.76,130.19,130.19-22.76Zm22.76,130.19,0.17,1-0.17-1h0Z" transform="translate(-4.07 -3.54)"/><path class="b" d="M158.61,243.84a2,2,0,0,1-2-1.66L133.89,112a2,2,0,0,1,1.63-2.31L265.7,86.92A2,2,0,0,1,268,88.54l22.76,130.19a2,2,0,0,1-1.62,2.31L159,243.81A2,2,0,0,1,158.61,243.84ZM266,88.89L135.86,111.65l22.76,130.19,130.19-22.76Zm22.76,130.19,0.17,1-0.17-1h0Z" transform="translate(-4.07 -3.54)"/><path class="b" d="M179.21,188.69a1,1,0,0,1-.93-0.63,38.5,38.5,0,0,1-2.09-7.46,38.23,38.23,0,0,1,75.32-13.17,38.58,38.58,0,0,1,.57,7.42,1,1,0,0,1-1,1,1,1,0,0,1-1-1,36.55,36.55,0,0,0-.54-7,36.23,36.23,0,0,0-71.38,12.48,36.52,36.52,0,0,0,2,7.07A1,1,0,0,1,179.21,188.69Z" transform="translate(-4.07 -3.54)"/><rect class="b" x="147.58" y="179.08" width="30" height="2" transform="translate(-32.67 27.16) rotate(-9.92)"/><rect class="b" x="250.03" y="161.17" width="30" height="2" transform="translate(-28.05 44.55) rotate(-9.92)"/><path class="b" d="M188,202.32a1,1,0,0,1-.67-0.26c-5.75-5.23-9-13.66-9.1-14a1,1,0,0,1,0-.55c2.37-11.82,13.86-13.59,14-13.61l45-7.87c0.13,0,10.56-1.51,14.77,8.43a1,1,0,0,1,.05.61,79.83,79.83,0,0,1-2.67,9.42,1,1,0,0,1-1.83-.81,74.36,74.36,0,0,0,2.48-8.73c-3.69-8.2-12.39-7-12.48-6.94l-45,7.87c-0.44.06-10.06,1.59-12.27,11.74,0.59,1.45,3.62,8.57,8.47,13A1,1,0,0,1,188,202.32Z" transform="translate(-4.07 -3.54)"/><path class="b" d="M224.86,228.94l-0.57-.09c-2.72-.45-11.72-2.06-13.3-3.81a7.06,7.06,0,0,0-3.87-2.2c-0.37.13-1.63,0.55-9.79-8.22a2.11,2.11,0,0,0-1.3-.31c-0.91-.05-2.44-0.15-2.86-1.81l-0.11-.42c-0.42-1.69-.77-2.81-1.76-3-1.57-.25-1.85-1.51-2.09-2.62a11.24,11.24,0,0,0-2-4.58l-3-4.21,4.35,2.79a47.92,47.92,0,0,0,7,3.79c2.38,0.78,4.48,4.27,5.09,5.38,1.13,0.55,5.53,2.62,8.8,2.84l1.67,0.11c5.59,0.36,10.33.71,11.8,1.48,1.26,0.49,9.92-1.77,11.87-5.38a58.07,58.07,0,0,0,2.59-7c2.58-7.77,4.61-13.37,7.17-14.71a5.72,5.72,0,0,0,2.84-3l0.08-.26,1.93,0.52s0,0.13-.09.32c-0.74,2.41-1.42,5.28-1.29,5.9,0.25,1.07-.66,1.92-1.8,3s-2.5,2.34-2.21,3.39c0.87,3.12.77,7.35-2,10-0.92,2-4.62,10-7,11.2-1.5.78-6.82,6.82-9.83,10.45Zm-17.72-8.1c1.58,0,4,1.41,5.34,2.86,0.74,0.81,6.47,2.2,11.58,3.08,1.72-2.06,7.94-9.39,10.08-10.5,1.33-.69,4.39-6.52,6.14-10.43l0.09-.2,0.16-.14c2.27-2,2.28-5.62,1.59-8.1-0.61-2.21,1.34-4,2.77-5.38a9.29,9.29,0,0,0,1.19-1.24,8.76,8.76,0,0,1,.24-2.5c-0.25.16-.51,0.32-0.8,0.47-2,1.07-4.54,8.6-6.2,13.57a57,57,0,0,1-2.73,7.31c-2.37,4.4-12.32,7.36-14.55,6.21-1.22-.63-7.59-1-11-1.26l-1.68-.11c-4.18-.28-9.62-3.08-9.85-3.2l-0.28-.15-0.15-.28c-0.82-1.57-2.66-4.22-4.09-4.69a27.73,27.73,0,0,1-4.36-2.13,15.74,15.74,0,0,1,.55,2,3.72,3.72,0,0,0,.31,1,0.38,0.38,0,0,0,.15,0c2.37,0.38,3,2.74,3.38,4.47l0.1,0.41c0,0.18.06,0.25,1,.31a3.65,3.65,0,0,1,2.64.94c2.18,2.34,6.85,7,8.05,7.61Zm-0.18.07h0Z" transform="translate(-4.07 -3.54)"/><path class="b" d="M233.79,107s2-3,0-3a1.5,1.5,0,0,0,0,3h0Z" transform="translate(-4.07 -3.54)"/><path class="b" d="M234.79,111.13s2-3,0-3a1.5,1.5,0,0,0,0,3h0Z" transform="translate(-4.07 -3.54)"/><path class="b" d="M238.79,110.43s2-3,0-3a1.5,1.5,0,0,0,0,3h0Z" transform="translate(-4.07 -3.54)"/><path class="b" d="M237.79,106.31s2-3,0-3a1.5,1.5,0,0,0,0,3h0Z" transform="translate(-4.07 -3.54)"/><path class="b" d="M241.79,105.6s2-3,0-3a1.5,1.5,0,0,0,0,3h0Z" transform="translate(-4.07 -3.54)"/><path class="b" d="M245.79,104.87s2-3,0-3a1.5,1.5,0,0,0,0,3h0Z" transform="translate(-4.07 -3.54)"/><path class="b" d="M246.79,109s2-3,0-3a1.5,1.5,0,0,0,0,3h0Z" transform="translate(-4.07 -3.54)"/><path class="b" d="M250.79,108.26s2-3,0-3a1.5,1.5,0,0,0,0,3h0Z" transform="translate(-4.07 -3.54)"/><path class="b" d="M254.79,107.55s2-3,0-3a1.5,1.5,0,0,0,0,3h0Z" transform="translate(-4.07 -3.54)"/><path class="b" d="M258.79,106.84s2-3,0-3a1.5,1.5,0,0,0,0,3h0Z" transform="translate(-4.07 -3.54)"/><path class="b" d="M254.79,103.43s1-3,0-3a1.5,1.5,0,0,0,0,3h0Z" transform="translate(-4.07 -3.54)"/><rect class="a" x="255.7" y="51.25" width="134.16" height="134.16" rx="1" ry="1" transform="translate(-1.02 -11.55) rotate(1.43)"/><path class="b" d="M387.2,188.26h-0.42v-0.11L254.85,184.8a2,2,0,0,1-1.86-2.08l3.34-132.14a2,2,0,0,1,2.08-2l132.13,3.29a2,2,0,0,1,2,2L389.2,186.2A2.1,2.1,0,0,1,387.2,188.26ZM258.37,50.62l-3.29,132.12L387.2,186l3.29-132.12Z" transform="translate(-4.07 -3.54)"/><polygon class="b" points="333.95 121.61 319.24 95.75 303.27 120.84 301.58 119.77 319.34 91.88 335.69 120.62 333.95 121.61"/><rect class="b" x="319.41" y="92.27" width="8" height="2" transform="translate(218.05 410.71) rotate(-88.57)"/><polygon class="b" points="318.2 137.49 301.72 121.02 303.13 119.6 318.27 134.73 334.15 120.37 335.49 121.86 318.2 137.49"/><path class="b" d="M339.66,125.68l-34-.85-5.13-24.67,22.65-3.72,0.16,1,0.22-1,22.54,4.92Zm-32.34-2.81,30.81,0.77,5.52-20.83-20.14-4.39-20.58,3.38Z" transform="translate(-4.07 -3.54)"/><path class="b" d="M322.32,141.17l-22.87-14,0.67-26.79,23.53-12.82,22.87,14-0.67,26.79Zm-20.84-15.08,20.89,12.77,21.51-11.71,0.61-24.48L323.6,89.9l-21.5,11.71Z" transform="translate(-4.07 -3.54)"/><rect class="b" x="300.16" y="124.25" width="6.64" height="2" transform="translate(-28.6 135.81) rotate(-24.89)"/><rect class="b" x="340.88" y="122.84" width="2" height="6.73" transform="translate(68.69 368.4) rotate(-62.66)"/><path class="b" d="M288.1,66.26h0l-24-.54a1,1,0,1,1,0-2l24,0.61A0.94,0.94,0,1,1,288.1,66.26Z" transform="translate(-4.07 -3.54)"/><rect class="a" x="368.08" y="94.86" width="138.49" height="138.49" rx="1" ry="1" transform="translate(16.17 -49.73) rotate(6.19)"/><path class="b" d="M497.82,241.31H497.6l-135.7-14.71a2,2,0,0,1-1.77-2.2L374.85,88.69a2,2,0,0,1,2.2-1.77l135.7,14.71a2,2,0,0,1,1.77,2.2L499.8,239.53A2,2,0,0,1,497.82,241.31Zm0-2-0.11,1,0.11-1h0ZM376.84,88.9L362.12,224.6l135.69,14.71,14.71-135.7Z" transform="translate(-4.07 -3.54)"/><path class="b" d="M444.15,164.08H444l-13.92-1.51a1,1,0,0,1-.89-1.1l1.08-9.94-5.54-.6a1,1,0,0,1-.81-0.61L421.33,144a1,1,0,0,1,1-1.38l6.82,0.74,0.32-3-10.11-1.1a1,1,0,0,1-.82-0.61l-2.45-5.89-1.4-3.1a1,1,0,0,1-.53-0.46L411.9,125a1,1,0,0,1,1-1.47l57,6.18a1,1,0,0,1,.64,1.66l-3,3.43a1,1,0,0,1-.44.29l-1.76,2.25-0.07.08-0.17.18-3.93,5.6a1,1,0,0,1-.52.38l-0.31.1a1,1,0,0,1-.4,0l-9.51-1-0.32,3,6.39,0.69a1,1,0,0,1,.78,1.46l-3.07,5.8a1,1,0,0,1-1.18.49,1,1,0,0,1-.24-0.11l-6.53-.71-1.08,9.94A1,1,0,0,1,444.15,164.08Zm-12.82-3.4L443.26,162l1.08-9.94a1,1,0,0,1,1.1-.89l7.32,0.79,2-3.8-5.92-.64a1,1,0,0,1-.89-1.1l0.54-5a1,1,0,0,1,1.1-.89l10.14,1.1,3.72-5.31,0.1-.12,0.19-.2,2.11-2.69a1,1,0,0,1,.54-0.35l1.35-1.52-53.19-5.77,0.83,1.54a1,1,0,0,1,.68.56L418,132l2.24,5.37,10.52,1.14a1,1,0,0,1,.89,1.1l-0.54,5a1,1,0,0,1-1.1.89l-6.14-.67,1.75,4.21,5.94,0.65a1,1,0,0,1,.89,1.1Z" transform="translate(-4.07 -3.54)"/><path class="b" d="M444.15,164.08H444l-5-.54a1,1,0,0,1-.89-1.1l2.74-25.25c0.19-1.72,2.29-4.39,4.28-4.16l19.08,2.07-0.21,2L445,135c-0.58,0-2,1.4-2.08,2.39l-2.63,24.26,3,0.32,1.08-9.94a1,1,0,0,1,1.1-.89l8,0.86-0.21,2-7-.75-1.08,9.94A1,1,0,0,1,444.15,164.08Z" transform="translate(-4.07 -3.54)"/><path class="b" d="M455.81,148.26l-7-.75a1,1,0,0,1-.89-1.1l0.54-5a1,1,0,0,1,1.1-.89l9.93,1.08,3.7-5.57,1.67,1.11-4.12,6.14a1,1,0,0,1-.89.37l-9.51-1-0.32,3,6,0.65Z" transform="translate(-4.07 -3.54)"/><path class="b" d="M434.21,163H434.1l-4-.43,0.22-2,3,0.32L436,136.65c0.18-1.71-.15-2.63-0.34-2.65l-19.26-2.09,0.21-2L435.83,132c1.63,0.18,2.42,2,2.11,4.86l-2.74,25.25A1,1,0,0,1,434.21,163Z" transform="translate(-4.07 -3.54)"/><rect class="b" x="425.22" y="117.45" width="2" height="23" transform="translate(248.02 535.25) rotate(-83.81)"/><rect class="b" x="455.05" y="120.69" width="2" height="23" transform="translate(271.4 567.78) rotate(-83.81)"/><path class="b" d="M440.66,133.26a1,1,0,0,1-.84-0.45,3.75,3.75,0,0,0-2.74-1.67,1,1,0,0,1,.21-2,5.74,5.74,0,0,1,4.2,2.57A1,1,0,0,1,440.66,133.26Z" transform="translate(-4.07 -3.54)"/><path class="b" d="M440.67,133.28a1,1,0,0,1-.7-1.71,6.2,6.2,0,0,1,4.88-1.6,1,1,0,1,1-.22,2,4.21,4.21,0,0,0-3.25,1A1,1,0,0,1,440.67,133.28Z" transform="translate(-4.07 -3.54)"/><path class="b" d="M425.07,173.08H425l-15.91-1.72a1,1,0,0,1,.21-2l15.91,1.72A1,1,0,0,1,425.07,173.08Z" transform="translate(-4.07 -3.54)"/><path class="b" d="M437,174.37h-0.11l-4-.43a1,1,0,1,1,.21-2l4,0.43A1,1,0,0,1,437,174.37Z" transform="translate(-4.07 -3.54)"/><path class="b" d="M462.85,177.18h-0.11l-18.89-2a1,1,0,1,1,.21-2l18.89,2A1,1,0,0,1,462.85,177.18Z" transform="translate(-4.07 -3.54)"/><path class="a" d="M578.11,179.93a67.1,67.1,0,0,1-73.94,59.37c-1.6-.17-2.87-0.37-4.84-0.71l14.41-132.86c2,0.1,3.28.17,4.88,0.35A67.09,67.09,0,0,1,578.11,179.93Z" transform="translate(-4.07 -3.54)"/><path class="b" d="M511.53,240.71a69.32,69.32,0,0,1-7.47-.41c-1.61-.17-2.86-0.37-4.9-0.71l-0.93-.16L512.84,104.7l0.94,0c2.06,0.1,3.32.18,4.94,0.35A68,68,0,0,1,511.53,240.71Zm-11.1-2.94c1.48,0.24,2.55.4,3.85,0.54a66.14,66.14,0,0,0,72.84-58.49h0a66.09,66.09,0,0,0-58.61-72.74c-1.31-.14-2.39-0.22-3.88-0.3Z" transform="translate(-4.07 -3.54)"/><path class="b" d="M511.51,188.36a15.83,15.83,0,0,1-1.7-.09,15.57,15.57,0,0,1-5-1.4l-0.28-.14a1,1,0,0,1-.51-1l3-27.38a1,1,0,0,1,.6-0.81,1.86,1.86,0,0,1,.34-0.11,15.65,15.65,0,0,1,19.1,16.94h0A15.67,15.67,0,0,1,511.51,188.36Zm-5.4-3.11a13.65,13.65,0,0,0,19-11.07h0a13.65,13.65,0,0,0-16.14-14.89Zm2-26.76h0l0,0v0Z" transform="translate(-4.07 -3.54)"/><path class="b" d="M545.19,131.74a1,1,0,0,1-.63-0.22,52.63,52.63,0,0,0-27.37-11.31c-1.61-.17-3.26-0.28-4.9-0.3a0.84,0.84,0,1,1,0-1.65h0a47.45,47.45,0,0,1,5.09.14A54.52,54.52,0,0,1,545.82,130,0.94,0.94,0,0,1,545.19,131.74Z" transform="translate(-4.07 -3.54)"/><path class="b" d="M511.6,227.52a55.6,55.6,0,0,1-6-.33,1,1,0,1,1,.21-2,52.43,52.43,0,0,0,21.08-2,1,1,0,0,1,.58,1.91A54.24,54.24,0,0,1,511.6,227.52Z" transform="translate(-4.07 -3.54)"/><path class="b" d="M532,223.48a1,1,0,0,1-.38-1.92c1.22-.5,2.45-1.06,3.64-1.67a1,1,0,0,1,.9,1.79c-1.24.63-2.51,1.21-3.78,1.73A1,1,0,0,1,532,223.48Z" transform="translate(-4.07 -3.54)"/><path class="b" d="M560.86,195.15a1,1,0,0,1-.92-1.4A52.82,52.82,0,0,0,564,178.4a1,1,0,1,1,2,.21,54.79,54.79,0,0,1-4.21,15.94A1,1,0,0,1,560.86,195.15Z" transform="translate(-4.07 -3.54)"/><path class="b" d="M548.75,158.31a1,1,0,0,1-.92-0.62c-0.36-.87-0.75-1.72-1.16-2.55a1,1,0,0,1,1.79-.89c0.43,0.87.84,1.77,1.22,2.68A1,1,0,0,1,548.75,158.31Z" transform="translate(-4.07 -3.54)"/><path class="b" d="M544.9,151.12a1,1,0,0,1-.83-0.44,39.16,39.16,0,0,0-33.21-17.28,1,1,0,0,1-1-1,1,1,0,0,1,1-1,41.21,41.21,0,0,1,34.9,18.17A1,1,0,0,1,544.9,151.12Z" transform="translate(-4.07 -3.54)"/><path class="b" d="M511.55,214a41.61,41.61,0,0,1-4.5-.24,1,1,0,1,1,.21-2,39.43,39.43,0,0,0,10.92-.33,1,1,0,1,1,.34,2A41.18,41.18,0,0,1,511.55,214Z" transform="translate(-4.07 -3.54)"/><path class="b" d="M530.56,209.23a1,1,0,0,1-.47-1.88,39.33,39.33,0,0,0,20.5-30.41,1,1,0,1,1,2,.21,41.33,41.33,0,0,1-21.54,32A1,1,0,0,1,530.56,209.23Z" transform="translate(-4.07 -3.54)"/><path class="b" d="M510.79,174.24s2-3,0-3a1.5,1.5,0,0,0,0,3h0Z" transform="translate(-4.07 -3.54)"/></svg>