<?xml version="1.0" encoding="utf-8"?>
<!-- Generator: Adobe Illustrator 19.2.1, SVG Export Plug-In . SVG Version: 6.00 Build 0)  -->
<svg version="1.1" id="Layer_1" xmlns="http://www.w3.org/2000/svg" xmlns:xlink="http://www.w3.org/1999/xlink" x="0px" y="0px"
	 viewBox="0 0 575.4 240.3" style="enable-background:new 0 0 575.4 240.3;" xml:space="preserve">
<style type="text/css">
	.st0{fill:#FAFAFF;}
	.st1{fill:#635DA8;}
	.st2{fill:#FFFFFF;}
	.st3{fill:#FF7396;}
</style>
<title>relax</title>
<ellipse transform="matrix(0.1944 -0.9809 0.9809 0.1944 105.4416 264.4032)" class="st0" cx="213.7" cy="68" rx="67" ry="67"/>
<path class="st1" d="M213.9,136.1c-4.5,0-9-0.4-13.4-1.3l0,0c-36.8-7.3-60.8-43.1-53.5-79.9c3.5-17.7,13.9-33.3,29-43.4
	C207.1-9.4,249.4-1,270.3,30.2c10,15,13.7,33.4,10.2,51.1C274.1,113,246.3,136,213.9,136.1z M213.6,2c-36.5,0.1-65.9,29.7-65.9,66.1
	c0,13,3.9,25.8,11.2,36.6c9.7,14.6,24.8,24.6,42,28l0,0c35.8,7.1,70.5-16.1,77.6-51.9c3.4-17.2-0.1-35-9.9-49.6
	c-9.7-14.6-24.8-24.6-42-28C222.3,2.5,217.9,2,213.6,2L213.6,2z"/>
<path class="st1" d="M213.7,83.7c-1,0-2-0.1-3-0.3l0,0c-8.5-1.7-14-9.9-12.3-18.4c1.7-8.5,9.9-14,18.4-12.3
	c8.5,1.7,14,9.9,12.3,18.4C227.7,78.4,221.2,83.7,213.7,83.7z M211.1,81.5c7.4,1.5,14.6-3.3,16-10.7c1.5-7.4-3.3-14.6-10.7-16
	s-14.6,3.3-16,10.7c0,0,0,0,0,0C198.9,72.8,203.7,80,211.1,81.5L211.1,81.5z"/>
<path class="st2" d="M252.6,106.3c-0.6,0-1-0.5-1-1c0-0.3,0.1-0.5,0.3-0.7c11.5-12.1,16.7-28.9,14-45.3c-0.1-0.6,0.3-1.1,0.8-1.2
	c0.6-0.1,1.1,0.3,1.2,0.8c2.9,17.1-2.5,34.5-14.5,47.1C253.1,106.2,252.9,106.3,252.6,106.3z"/>
<path class="st1" d="M264.4,50.9c-0.4,0-0.8-0.3-0.9-0.7c-4.7-13-14.2-23.6-26.6-29.7c-0.5-0.3-0.7-0.9-0.4-1.3
	c0.2-0.5,0.8-0.7,1.3-0.5c12.8,6.3,22.7,17.4,27.6,30.8c0.2,0.5-0.1,1.1-0.6,1.3C264.6,50.9,264.5,50.9,264.4,50.9z"/>
<path class="st1" d="M226.6,16.8h-0.2c-0.8-0.2-1.6-0.4-2.4-0.5c-0.6-0.1-0.9-0.6-0.8-1.2c0.1-0.6,0.6-0.9,1.2-0.8
	c0.8,0.2,1.6,0.3,2.5,0.5c0.5,0.1,0.9,0.6,0.9,1.1C227.6,16.5,227.1,16.8,226.6,16.8z"/>
<path class="st1" d="M161,80.1c-0.5,0-0.9-0.3-1-0.8c-1.5-7.2-1.6-14.7-0.1-22c0.1-0.6,0.6-0.9,1.2-0.8c0.6,0.1,0.9,0.6,0.8,1.2
	c-1.4,7-1.4,14.2,0.1,21.2c0.1,0.5-0.2,1.1-0.8,1.2c0,0,0,0,0,0L161,80.1z"/>
<path class="st1" d="M163.7,88.9c-0.4,0-0.8-0.2-0.9-0.6c-0.5-1.3-1-2.6-1.4-3.9c-0.2-0.5,0.1-1.1,0.7-1.3c0.5-0.2,1.1,0.1,1.3,0.7
	l0,0c0.4,1.3,0.9,2.5,1.3,3.8c0.2,0.5,0,1.1-0.5,1.3C164,88.9,163.8,88.9,163.7,88.9z"/>
<path class="st2" d="M203.3,121.8h-0.2c-5.4-1.1-10.7-3-15.5-5.6c-0.5-0.3-0.7-0.9-0.4-1.4c0.3-0.5,0.9-0.7,1.4-0.4
	c4.7,2.5,9.7,4.3,14.9,5.4c0.5,0.1,0.9,0.7,0.7,1.2C204.1,121.5,203.7,121.8,203.3,121.8z"/>
<path class="st2" d="M225.8,107.5c-0.6,0.1-1.1-0.3-1.2-0.8c-0.1-0.6,0.3-1.1,0.9-1.2c0.9-0.3,1.8-0.6,2.6-0.9
	c0.5-0.2,1.1,0,1.3,0.5c0.2,0.5,0,1.1-0.5,1.3c0,0-0.1,0-0.1,0c-0.9,0.4-1.8,0.7-2.8,1C226,107.4,225.9,107.5,225.8,107.5z"/>
<path class="st1" d="M233.3,104.3c-0.6,0-1-0.5-1-1c0-0.4,0.2-0.7,0.5-0.9c19-10.5,25.8-34.5,15.3-53.5
	c-6.3-11.4-17.9-18.9-30.9-20.1c-0.6,0-1-0.5-0.9-1.1s0.5-1,1.1-0.9c22.7,2,39.5,22.1,37.5,44.8c-1.2,13.7-9.1,25.8-21.1,32.5
	C233.6,104.2,233.5,104.3,233.3,104.3z"/>
<path class="st1" d="M201.6,30.6c-0.6,0.1-1.1-0.3-1.2-0.8c-0.1-0.6,0.3-1.1,0.9-1.2c2.1-0.7,4.3-1.2,6.5-1.5
	c0.6-0.1,1.1,0.3,1.1,0.9c0.1,0.6-0.3,1.1-0.9,1.1l0,0c-2.1,0.3-4.2,0.8-6.2,1.4C201.8,30.6,201.7,30.6,201.6,30.6z"/>
<path class="st1" d="M173.5,72.4c-0.5,0-1-0.4-1-0.9c-0.3-3.8-0.1-7.7,0.7-11.5c0.1-0.6,0.6-0.9,1.2-0.8c0.6,0.1,0.9,0.6,0.8,1.2
	c-0.7,3.6-0.9,7.3-0.6,10.9c0,0.5-0.4,1-0.9,1.1L173.5,72.4L173.5,72.4z"/>
<path class="st1" d="M205.9,108.6h-0.2c-13.4-2.7-24.6-11.7-29.9-24.3c-0.2-0.5,0-1.1,0.5-1.3c0.5-0.2,1.1,0,1.3,0.5
	c5.1,11.9,15.8,20.6,28.5,23.1c0.5,0.1,0.9,0.7,0.7,1.2C206.7,108.2,206.3,108.5,205.9,108.6z"/>
<path class="st1" d="M213.7,69.1c0,0,2-3,0-3c-0.8,0-1.5,0.7-1.5,1.5S212.9,69.1,213.7,69.1L213.7,69.1z"/>
<path class="st0" d="M1.7,101.9L128,65.4c0.5-0.2,1.1,0.2,1.2,0.7l36.5,126.3c0.2,0.5-0.2,1.1-0.7,1.2L38.8,230.1
	c-0.5,0.2-1.1-0.2-1.2-0.7L1,103.1C0.9,102.6,1.2,102.1,1.7,101.9z"/>
<path class="st1" d="M166.7,192.1L130.2,65.8c-0.3-1.1-1.4-1.7-2.5-1.3L1.4,100.9c-1.1,0.3-1.7,1.4-1.4,2.5c0,0,0,0,0,0l36.5,126.2
	c0.3,1.1,1.4,1.7,2.5,1.4c0,0,0,0,0,0l126.3-36.5C166.4,194.2,167,193.1,166.7,192.1z M38.5,229.1L2,102.9l126.3-36.5l36.5,126.3
	L38.5,229.1z"/>
<path class="st3" d="M81.3,182.6c-23.1,0-41.9-18.8-41.8-41.9s18.8-41.9,41.9-41.8c18.6,0,35,12.3,40.2,30.2l0,0
	c6.4,22.3-6.4,45.5-28.7,51.9C89.1,182.1,85.2,182.6,81.3,182.6z M81.4,100.8c-22.1,0-39.9,17.9-39.9,39.9c0,3.7,0.5,7.5,1.6,11.1
	c6.2,21.1,28.3,33.3,49.4,27.1s33.3-28.3,27.1-49.4C114.6,112.5,99.1,100.8,81.4,100.8L81.4,100.8z"/>
<rect x="43.3" y="114" transform="matrix(0.9606 -0.2778 0.2778 0.9606 -29.0138 25.1536)" class="st3" width="62" height="2"/>
<rect x="39.5" y="124.3" transform="matrix(0.96 -0.28 0.28 0.96 -31.977 26.7216)" class="st3" width="76" height="2"/>
<rect x="39.6" y="134.8" transform="matrix(0.96 -0.28 0.28 0.96 -34.8094 28.0019)" class="st3" width="82" height="2"/>
<rect x="40.9" y="142.7" transform="matrix(0.96 -0.28 0.28 0.96 -36.9276 28.8081)" class="st3" width="83" height="2"/>
<rect x="45.1" y="150.3" transform="matrix(0.96 -0.28 0.28 0.96 -38.9859 29.7426)" class="st3" width="79" height="2"/>
<rect x="50.3" y="158" transform="matrix(0.96 -0.28 0.28 0.96 -41.0472 30.6754)" class="st3" width="73" height="2"/>
<rect x="58.6" y="165.7" transform="matrix(0.96 -0.28 0.28 0.96 -43.1058 31.6071)" class="st3" width="61" height="2"/>
<path class="st3" d="M84.7,198.7c0,0,2-3,0-3c-0.8,0-1.5,0.7-1.5,1.5S83.9,198.7,84.7,198.7L84.7,198.7z"/>
<path class="st3" d="M85.7,202.7c0,0,2-3,0-3c-0.8,0-1.5,0.7-1.5,1.5S84.9,202.7,85.7,202.7L85.7,202.7z"/>
<path class="st3" d="M89.7,201.6c0,0,2-3,0-3c-0.8,0-1.5,0.7-1.5,1.5S88.9,201.6,89.7,201.6L89.7,201.6z"/>
<path class="st3" d="M88.7,197.5c0,0,2-3,0-3c-0.8,0-1.5,0.7-1.5,1.5S87.9,197.5,88.7,197.5L88.7,197.5z"/>
<path class="st3" d="M92.7,196.4c0,0,2-3,0-3c-0.8,0-1.5,0.7-1.5,1.5S91.9,196.4,92.7,196.4L92.7,196.4z"/>
<path class="st3" d="M96.7,195.2c0,0,2-3,0-3c-0.8,0-1.5,0.7-1.5,1.5S95.9,195.2,96.7,195.2L96.7,195.2z"/>
<path class="st3" d="M97.7,199.3c0,0,2-3,0-3c-0.8,0-1.5,0.7-1.5,1.5S96.9,199.3,97.7,199.3L97.7,199.3z"/>
<path class="st3" d="M101.7,198.1c0,0,2-3,0-3c-0.8,0-1.5,0.7-1.5,1.5S100.9,198.1,101.7,198.1L101.7,198.1z"/>
<path class="st3" d="M105.7,196.9c0,0,2-3,0-3c-0.8,0-1.5,0.7-1.5,1.5S104.9,196.9,105.7,196.9L105.7,196.9z"/>
<path class="st3" d="M109.7,195.8c0,0,2-3,0-3c-0.8,0-1.5,0.7-1.5,1.5S108.9,195.8,109.7,195.8L109.7,195.8L109.7,195.8z"/>
<path class="st3" d="M104.7,192.9c0,0,2-3,0-3c-0.8,0-1.5,0.7-1.5,1.5S103.9,192.9,104.7,192.9L104.7,192.9z"/>
<path class="st0" d="M131.6,107.1l130.2-22.8c0.5-0.1,1.1,0.3,1.2,0.8l22.8,130.2c0.1,0.5-0.3,1.1-0.8,1.2l-130.2,22.8
	c-0.5,0.1-1.1-0.3-1.2-0.8l-22.8-130.2C130.7,107.7,131.1,107.2,131.6,107.1z"/>
<rect x="143.5" y="175.5" transform="matrix(0.985 -0.1723 0.1723 0.985 -28.0433 29.945)" class="st3" width="30" height="2"/>
<path class="st2" d="M154.5,240.3c-1,0-1.8-0.7-2-1.7l-22.7-130.2c-0.2-1.1,0.5-2.1,1.6-2.3l130.2-22.8c1.1-0.2,2.1,0.5,2.3,1.6
	l22.8,130.2c0.2,1.1-0.5,2.1-1.6,2.3l-130.1,22.8C154.8,240.3,154.7,240.3,154.5,240.3z M261.9,85.3l-130.1,22.8l22.8,130.2
	l130.2-22.8L261.9,85.3z M284.7,215.5l0.2,1L284.7,215.5L284.7,215.5z"/>
<path class="st1" d="M154.5,240.3c-1,0-1.8-0.7-2-1.7l-22.7-130.2c-0.2-1.1,0.5-2.1,1.6-2.3l130.2-22.8c1.1-0.2,2.1,0.5,2.3,1.6
	l22.8,130.2c0.2,1.1-0.5,2.1-1.6,2.3l-130.1,22.8C154.8,240.3,154.7,240.3,154.5,240.3z M261.9,85.3l-130.1,22.8l22.8,130.2
	l130.2-22.8L261.9,85.3z M284.7,215.5l0.2,1L284.7,215.5L284.7,215.5z"/>
<path class="st3" d="M175.1,185.2c-0.4,0-0.8-0.2-0.9-0.6c-0.9-2.4-1.6-4.9-2.1-7.5c-3.6-20.8,10.3-40.6,31.1-44.2
	s40.6,10.3,44.2,31.1c0.4,2.4,0.6,4.9,0.6,7.4c0,0.6-0.4,1-1,1s-1-0.4-1-1c0-2.3-0.1-4.7-0.5-7c-3.4-19.7-22.2-32.9-41.9-29.4
	s-32.9,22.2-29.4,41.9c0.4,2.4,1.1,4.8,2,7.1c0.2,0.5-0.1,1.1-0.7,1.2C175.3,185.1,175.2,185.1,175.1,185.2z"/>
<rect x="246" y="157.6" transform="matrix(0.985 -0.1723 0.1723 0.985 -23.4276 47.3273)" class="st3" width="30" height="2"/>
<path class="st3" d="M183.9,198.8c-0.2,0-0.5-0.1-0.7-0.3c-5.8-5.2-9-13.7-9.1-14c-0.1-0.2-0.1-0.4,0-0.6
	c2.4-11.8,13.9-13.6,14-13.6l45-7.9c0.1,0,10.6-1.5,14.8,8.4c0.1,0.2,0.1,0.4,0.1,0.6c-0.7,3.2-1.6,6.3-2.7,9.4
	c-0.2,0.5-0.8,0.7-1.3,0.5c-0.5-0.2-0.7-0.8-0.5-1.3c1-2.9,1.8-5.8,2.5-8.7c-3.7-8.2-12.4-7-12.5-6.9l-45,7.9
	c-0.4,0.1-10.1,1.6-12.3,11.7c0.6,1.4,3.6,8.6,8.5,13c0.4,0.4,0.4,1,0,1.4C184.5,198.7,184.2,198.8,183.9,198.8z"/>
<path class="st3" d="M220.8,225.4l-0.6-0.1c-2.7-0.4-11.7-2.1-13.3-3.8c-1-1.1-2.4-1.9-3.9-2.2c-0.4,0.1-1.6,0.6-9.8-8.2
	c-0.4-0.2-0.8-0.4-1.3-0.3c-0.9-0.1-2.4-0.1-2.9-1.8l-0.1-0.4c-0.4-1.7-0.8-2.8-1.8-3c-1.6-0.3-1.9-1.5-2.1-2.6
	c-0.3-1.7-1-3.2-2-4.6l-3-4.2l4.4,2.8c2.2,1.5,4.6,2.7,7,3.8c2.4,0.8,4.5,4.3,5.1,5.4c1.1,0.6,5.5,2.6,8.8,2.8l1.7,0.1
	c5.6,0.4,10.3,0.7,11.8,1.5c1.3,0.5,9.9-1.8,11.9-5.4c1-2.3,1.9-4.6,2.6-7c2.6-7.8,4.6-13.4,7.2-14.7c1.3-0.6,2.3-1.7,2.8-3l0.1-0.3
	l1.9,0.5c0,0,0,0.1-0.1,0.3c-0.7,2.4-1.4,5.3-1.3,5.9c0.3,1.1-0.7,1.9-1.8,3s-2.5,2.3-2.2,3.4c0.9,3.1,0.8,7.4-2,10
	c-0.9,2-4.6,10-7,11.2c-1.5,0.8-6.8,6.8-9.8,10.4L220.8,225.4z M203.1,217.3c1.6,0,4,1.4,5.3,2.9c0.7,0.8,6.5,2.2,11.6,3.1
	c1.7-2.1,7.9-9.4,10.1-10.5c1.3-0.7,4.4-6.5,6.1-10.4l0.1-0.2l0.2-0.1c2.3-2,2.3-5.6,1.6-8.1c-0.6-2.2,1.3-4,2.8-5.4
	c0.4-0.4,0.8-0.8,1.2-1.2c0-0.8,0-1.7,0.2-2.5c-0.3,0.2-0.5,0.3-0.8,0.5c-2,1.1-4.5,8.6-6.2,13.6c-0.7,2.5-1.7,4.9-2.7,7.3
	c-2.4,4.4-12.3,7.4-14.6,6.2c-1.2-0.6-7.6-1-11-1.3l-1.7-0.1c-4.2-0.3-9.6-3.1-9.9-3.2l-0.3-0.1l-0.1-0.3c-0.8-1.6-2.7-4.2-4.1-4.7
	c-1.5-0.6-3-1.3-4.4-2.1c0.2,0.7,0.4,1.3,0.6,2c0.1,0.3,0.2,0.7,0.3,1c0,0,0.1,0,0.1,0c2.4,0.4,3,2.7,3.4,4.5l0.1,0.4
	c0,0.2,0.1,0.3,1,0.3c1-0.1,1.9,0.3,2.6,0.9c2.2,2.3,6.9,7,8.1,7.6L203.1,217.3z M202.9,217.4L202.9,217.4z"/>
<path class="st3" d="M229.7,103.5c0,0,2-3,0-3c-0.8,0-1.5,0.7-1.5,1.5S228.9,103.5,229.7,103.5L229.7,103.5z"/>
<path class="st3" d="M230.7,107.6c0,0,2-3,0-3c-0.8,0-1.5,0.7-1.5,1.5S229.9,107.6,230.7,107.6L230.7,107.6z"/>
<path class="st3" d="M234.7,106.9c0,0,2-3,0-3c-0.8,0-1.5,0.7-1.5,1.5S233.9,106.9,234.7,106.9L234.7,106.9z"/>
<path class="st3" d="M233.7,102.8c0,0,2-3,0-3c-0.8,0-1.5,0.7-1.5,1.5S232.9,102.8,233.7,102.8L233.7,102.8L233.7,102.8z"/>
<path class="st3" d="M237.7,102.1c0,0,2-3,0-3c-0.8,0-1.5,0.7-1.5,1.5S236.9,102.1,237.7,102.1L237.7,102.1z"/>
<path class="st3" d="M241.7,101.3c0,0,2-3,0-3c-0.8,0-1.5,0.7-1.5,1.5S240.9,101.3,241.7,101.3L241.7,101.3z"/>
<path class="st3" d="M242.7,105.5c0,0,2-3,0-3c-0.8,0-1.5,0.7-1.5,1.5S241.9,105.5,242.7,105.5L242.7,105.5z"/>
<path class="st3" d="M246.7,104.7c0,0,2-3,0-3c-0.8,0-1.5,0.7-1.5,1.5S245.9,104.7,246.7,104.7L246.7,104.7z"/>
<path class="st3" d="M250.7,104c0,0,2-3,0-3c-0.8,0-1.5,0.7-1.5,1.5S249.9,104,250.7,104L250.7,104z"/>
<path class="st2" d="M254.7,103.3c0,0,2-3,0-3c-0.8,0-1.5,0.7-1.5,1.5S253.9,103.3,254.7,103.3L254.7,103.3z"/>
<path class="st3" d="M250.7,99.9c0,0,1-3,0-3c-0.8,0-1.5,0.7-1.5,1.5S249.9,99.9,250.7,99.9L250.7,99.9z"/>
<path class="st0" d="M254.3,46.1l132.1,3.3c0.6,0,1,0.5,1,1l-3.3,132.1c0,0.6-0.5,1-1,1L251,180.2c-0.6,0-1-0.5-1-1l3.3-132.1
	C253.3,46.5,253.8,46.1,254.3,46.1z"/>
<path class="st1" d="M383.1,184.7h-0.4v-0.1l-131.9-3.3c-1.1-0.1-1.9-1-1.9-2.1L252.3,47c0-1.1,0.9-2,2-2c0,0,0.1,0,0.1,0l132.1,3.3
	c1.1,0,2,0.9,2,2l-3.3,132.3C385.1,183.8,384.2,184.7,383.1,184.7z M254.3,47.1L251,179.2l132.1,3.3l3.3-132.1L254.3,47.1z"/>
<polygon class="st3" points="334,121.6 319.2,95.8 303.3,120.8 301.6,119.8 319.3,91.9 335.7,120.6 "/>
<rect x="315.4" y="88.7" transform="matrix(2.495562e-002 -0.9997 0.9997 2.495562e-002 221.6916 406.7515)" class="st3" width="8" height="2"/>
<polygon class="st3" points="318.2,137.5 301.7,121 303.1,119.6 318.3,134.7 334.1,120.4 335.5,121.9 "/>
<path class="st3" d="M335.6,122.1l-34-0.8l-5.1-24.7l22.6-3.7l0.2,1l0.2-1l22.5,4.9L335.6,122.1z M303.3,119.3l30.8,0.8l5.5-20.8
	l-20.1-4.4l-20.6,3.4L303.3,119.3z"/>
<path class="st3" d="M318.3,137.6l-22.9-14l0.7-26.8L319.6,84l22.9,14l-0.7,26.8L318.3,137.6z M297.4,122.5l20.9,12.8l21.5-11.7
	l0.6-24.5l-20.9-12.8L298,98.1L297.4,122.5z"/>
<rect x="296.1" y="120.7" transform="matrix(0.9071 -0.4209 0.4209 0.9071 -23.4105 137.3173)" class="st3" width="6.6" height="2"/>
<rect x="336.8" y="119.3" transform="matrix(0.4593 -0.8883 0.8883 0.4593 73.6971 366.4099)" class="st3" width="2" height="6.7"/>
<path class="st3" d="M284,62.7L284,62.7l-24-0.5c-0.6,0-1-0.4-1-1s0.4-1,1-1l24,0.6c0.5,0,1,0.4,1,1C285,62.3,284.6,62.7,284,62.7z"
	/>
<path class="st0" d="M372.9,84.4l135.7,14.7c0.5,0.1,0.9,0.6,0.9,1.1l-14.7,135.7c-0.1,0.5-0.6,0.9-1.1,0.9l-135.7-14.7
	c-0.5-0.1-0.9-0.6-0.9-1.1l14.7-135.7C371.8,84.7,372.3,84.3,372.9,84.4z"/>
<path class="st1" d="M493.8,237.8h-0.2l-135.7-14.7c-1.1-0.1-1.9-1.1-1.8-2.2l14.7-135.7c0.1-1.1,1.1-1.9,2.2-1.8l135.7,14.7
	c1.1,0.1,1.9,1.1,1.8,2.2L495.7,236C495.6,237,494.8,237.8,493.8,237.8z M493.8,235.8l-0.1,1L493.8,235.8L493.8,235.8z M372.8,85.4
	L358,221.1l135.7,14.7l14.7-135.7L372.8,85.4z"/>
<path class="st3" d="M440.1,160.5h-0.1L426,159c-0.5-0.1-0.9-0.5-0.9-1.1c0,0,0,0,0,0l1.1-9.9l-5.5-0.6c-0.4,0-0.7-0.3-0.8-0.6
	l-2.6-6.3c-0.2-0.5,0-1.1,0.5-1.3c0.1-0.1,0.3-0.1,0.5-0.1l6.8,0.7l0.3-3l-10.1-1.1c-0.4,0-0.7-0.3-0.8-0.6l-2.5-5.9l-1.4-3.1
	c-0.2-0.1-0.4-0.2-0.5-0.5l-2.3-4.2c-0.3-0.5-0.1-1.1,0.4-1.4c0.2-0.1,0.4-0.1,0.6-0.1l57,6.2c0.5,0.1,0.9,0.6,0.9,1.1
	c0,0.2-0.1,0.4-0.2,0.6l-3,3.4c-0.1,0.1-0.3,0.2-0.4,0.3l-1.8,2.3l-0.1,0.1l-0.2,0.2l-3.9,5.6c-0.1,0.2-0.3,0.3-0.5,0.4l-0.3,0.1
	c-0.1,0-0.3,0-0.4,0l-9.5-1l-0.3,3l6.4,0.7c0.5,0.1,0.9,0.6,0.9,1.1c0,0.1-0.1,0.2-0.1,0.4l-3.1,5.8c-0.2,0.4-0.7,0.6-1.2,0.5
	c-0.1,0-0.2-0.1-0.2-0.1l-6.5-0.7l-1.1,9.9C441,160.2,440.6,160.6,440.1,160.5z M427.3,157.1l11.9,1.3l1.1-9.9
	c0.1-0.5,0.5-0.9,1.1-0.9c0,0,0,0,0,0l7.3,0.8l2-3.8l-5.9-0.6c-0.5-0.1-0.9-0.5-0.9-1.1c0,0,0,0,0,0l0.5-5c0.1-0.5,0.5-0.9,1.1-0.9
	c0,0,0,0,0,0l10.1,1.1l3.7-5.3l0.1-0.1l0.2-0.2l2.1-2.7c0.1-0.2,0.3-0.3,0.5-0.4l1.4-1.5l-53.2-5.8l0.8,1.5c0.3,0.1,0.6,0.3,0.7,0.6
	l1.9,4.2l2.2,5.4l10.5,1.1c0.5,0.1,0.9,0.5,0.9,1.1c0,0,0,0,0,0l-0.5,5c-0.1,0.5-0.5,0.9-1.1,0.9c0,0,0,0,0,0l-6.1-0.7l1.8,4.2
	l5.9,0.6c0.5,0.1,0.9,0.5,0.9,1.1c0,0,0,0,0,0L427.3,157.1z"/>
<path class="st3" d="M440.1,160.5h-0.1l-5-0.5c-0.5-0.1-0.9-0.5-0.9-1.1c0,0,0,0,0,0l2.7-25.3c0.2-1.7,2.3-4.4,4.3-4.2l19.1,2.1
	l-0.2,2l-19-2.1c-0.6,0-2,1.4-2.1,2.4l-2.6,24.3l3,0.3l1.1-9.9c0.1-0.5,0.5-0.9,1.1-0.9c0,0,0,0,0,0l8,0.9l-0.2,2l-7-0.8l-1.1,9.9
	C441.1,160.2,440.6,160.6,440.1,160.5z"/>
<path class="st3" d="M451.7,144.7l-7-0.8c-0.5-0.1-0.9-0.5-0.9-1.1c0,0,0,0,0,0l0.5-5c0.1-0.5,0.5-0.9,1.1-0.9c0,0,0,0,0,0l9.9,1.1
	l3.7-5.6l1.7,1.1l-4.1,6.1c-0.2,0.3-0.5,0.4-0.9,0.4l-9.5-1l-0.3,3l6,0.6L451.7,144.7z"/>
<path class="st3" d="M430.1,159.5H430l-4-0.4l0.2-2l3,0.3l2.7-24.2c0.2-1.7-0.1-2.6-0.3-2.6l-19.3-2.1l0.2-2l19.2,2.1
	c1.6,0.2,2.4,2,2.1,4.9l-2.7,25.3C431.1,159.1,430.6,159.5,430.1,159.5z"/>
<rect x="421.2" y="113.9" transform="matrix(0.1078 -0.9942 0.9942 0.1078 251.9664 531.61)" class="st3" width="2" height="23"/>
<rect x="451" y="117.1" transform="matrix(0.1078 -0.9942 0.9942 0.1078 275.3643 564.1295)" class="st3" width="2" height="23"/>
<path class="st3" d="M436.6,129.7c-0.3,0-0.7-0.2-0.8-0.4c-0.6-0.9-1.6-1.6-2.7-1.7c-0.6-0.1-1-0.6-0.9-1.1c0.1-0.6,0.6-1,1.1-0.9
	c1.7,0.2,3.3,1.1,4.2,2.6c0.3,0.5,0.2,1.1-0.3,1.4C437,129.7,436.8,129.7,436.6,129.7z"/>
<path class="st3" d="M436.6,129.7c-0.6,0-1-0.5-1-1c0-0.3,0.1-0.5,0.3-0.7c1.3-1.2,3.1-1.8,4.9-1.6c0.6,0.1,1,0.6,0.9,1.1
	c-0.1,0.6-0.6,1-1.1,0.9c-1.2-0.1-2.4,0.2-3.3,1C437.1,129.6,436.9,129.7,436.6,129.7z"/>
<path class="st3" d="M421,169.5L421,169.5l-16-1.7c-0.6-0.1-1-0.6-0.9-1.1c0.1-0.6,0.6-1,1.1-0.9l15.9,1.7c0.6,0,1,0.5,0.9,1.1
	C422,169.2,421.6,169.6,421,169.5z"/>
<path class="st3" d="M432.9,170.8h-0.1l-4-0.4c-0.6-0.1-1-0.6-0.9-1.1c0.1-0.6,0.6-1,1.1-0.9l4,0.4c0.6,0,1,0.5,0.9,1.1
	C434,170.4,433.5,170.9,432.9,170.8z"/>
<path class="st3" d="M458.8,173.6h-0.1l-18.9-2c-0.6-0.1-1-0.6-0.9-1.1c0.1-0.6,0.6-1,1.1-0.9l18.9,2c0.6,0,1,0.5,0.9,1.1
	C459.8,173.2,459.3,173.7,458.8,173.6z"/>
<path class="st0" d="M574,176.4c-4,36.8-37.1,63.4-73.9,59.4c-1.6-0.2-2.9-0.4-4.8-0.7l14.4-132.9c2,0.1,3.3,0.2,4.9,0.3
	C551.4,106.5,578,139.6,574,176.4z"/>
<path class="st1" d="M507.5,237.2c-2.5,0-5-0.1-7.5-0.4c-1.6-0.2-2.9-0.4-4.9-0.7l-0.9-0.2l14.6-134.7h0.9c2.1,0.1,3.3,0.2,4.9,0.3
	c37.4,3.7,64.6,37.1,60.9,74.4C572,210.9,542.5,237.4,507.5,237.2z M496.4,234.2c1.5,0.2,2.5,0.4,3.9,0.5
	c36.3,3.9,68.8-22.2,72.8-58.5l0,0c3.9-36.3-22.3-68.8-58.6-72.7c-1.3-0.1-2.4-0.2-3.9-0.3L496.4,234.2z"/>
<path class="st1" d="M507.4,184.8c-0.6,0-1.1,0-1.7-0.1c-1.7-0.2-3.4-0.7-5-1.4l-0.3-0.1c-0.4-0.2-0.6-0.6-0.5-1l3-27.4
	c0-0.4,0.3-0.7,0.6-0.8c0.1,0,0.2-0.1,0.3-0.1c8.4-2,16.8,3.3,18.8,11.7c0.4,1.7,0.5,3.5,0.3,5.2l0,0
	C522.1,178.8,515.4,184.8,507.4,184.8z M502,181.7c6.9,3,15-0.2,18-7.1c0.5-1.3,0.9-2.6,1-4l0,0c0.8-7.5-4.6-14.2-12.1-15.1
	c-1.4-0.1-2.7-0.1-4.1,0.2L502,181.7z M504,155L504,155L504,155L504,155z"/>
<path class="st1" d="M541.1,128.2c-0.2,0-0.5-0.1-0.6-0.2c-7.9-6.3-17.4-10.2-27.4-11.3c-1.6-0.2-3.3-0.3-4.9-0.3
	c-0.5,0.1-0.9-0.2-1-0.7s0.2-0.9,0.7-1c0.1,0,0.2,0,0.3,0l0,0c1.7,0,3.4,0,5.1,0.1c10.4,1.1,20.3,5.1,28.4,11.6
	c0.4,0.3,0.6,0.8,0.3,1.3C541.9,128.1,541.5,128.3,541.1,128.2z"/>
<path class="st1" d="M507.5,224c-2,0-4-0.1-6-0.3c-0.6-0.1-1-0.6-0.9-1.1c0.1-0.6,0.6-1,1.1-0.9c7.1,0.8,14.3,0.1,21.1-2
	c0.5-0.1,1.1,0.2,1.2,0.7c0.1,0.5-0.2,1-0.6,1.2C518.3,223.1,512.9,224,507.5,224z"/>
<path class="st1" d="M527.9,219.9c-0.6,0-1-0.5-1-1c0-0.4,0.2-0.8,0.6-0.9c1.2-0.5,2.5-1.1,3.6-1.7c0.5-0.2,1.1,0,1.3,0.4
	c0.2,0.5,0,1.1-0.4,1.3c-1.2,0.6-2.5,1.2-3.8,1.7C528.2,219.9,528.1,219.9,527.9,219.9z"/>
<path class="st1" d="M556.8,191.6c-0.6,0-1-0.4-1-1c0-0.1,0-0.3,0.1-0.4c2.1-4.9,3.5-10.1,4.1-15.4c0.1-0.6,0.6-1,1.1-0.9
	c0.6,0.1,1,0.6,0.9,1.1c-0.6,5.5-2,10.9-4.2,15.9C557.6,191.4,557.2,191.6,556.8,191.6z"/>
<path class="st1" d="M544.7,154.8c-0.4,0-0.8-0.2-0.9-0.6c-0.4-0.9-0.8-1.7-1.2-2.6c-0.2-0.5,0-1.1,0.5-1.3c0.5-0.2,1,0,1.3,0.4
	c0.4,0.9,0.8,1.8,1.2,2.7c0.2,0.5,0,1.1-0.5,1.3C544.9,154.7,544.8,154.8,544.7,154.8z"/>
<path class="st1" d="M540.8,147.6c-0.3,0-0.6-0.2-0.8-0.4c-7.4-11-19.9-17.5-33.2-17.3c-0.6,0-1-0.4-1-1s0.4-1,1-1
	c14-0.2,27.1,6.6,34.9,18.2c0.3,0.5,0.2,1.1-0.3,1.4C541.2,147.5,541,147.6,540.8,147.6z"/>
<path class="st1" d="M507.5,210.5c-1.5,0-3-0.1-4.5-0.2c-0.6-0.1-1-0.6-0.9-1.1c0.1-0.6,0.6-1,1.1-0.9c3.6,0.4,7.3,0.3,10.9-0.3
	c0.6-0.1,1.1,0.3,1.2,0.8c0.1,0.6-0.3,1.1-0.8,1.2C512.1,210.3,509.8,210.5,507.5,210.5z"/>
<path class="st1" d="M526.5,205.7c-0.6,0-1-0.5-1-1c0-0.4,0.2-0.7,0.5-0.9c11.4-6.1,19.1-17.5,20.5-30.4c0.1-0.6,0.6-1,1.1-0.9
	c0.6,0.1,1,0.6,0.9,1.1c-1.5,13.6-9.5,25.5-21.5,32C526.8,205.7,526.7,205.7,526.5,205.7z"/>
<path class="st1" d="M506.7,170.7c0,0,2-3,0-3c-0.8,0-1.5,0.7-1.5,1.5S505.9,170.7,506.7,170.7L506.7,170.7z"/>
</svg>
