<svg xmlns="http://www.w3.org/2000/svg" viewBox="0 0 404 224"><defs><style>.a{fill:#ff7396;}.b{fill:#fff;}</style></defs><title>wireframe1</title><rect class="a" x="1" y="1" width="402" height="222" rx="2" ry="2"/><path class="b" d="M399,0a1,1,0,0,1,1,1V219a1,1,0,0,1-1,1H1a1,1,0,0,1-1-1V1A1,1,0,0,1,1,0H399m0-2H1A3,3,0,0,0-2,1V219a3,3,0,0,0,3,3H399a3,3,0,0,0,3-3V1a3,3,0,0,0-3-3h0Z" transform="translate(2 2)"/><rect class="a" x="1" y="1" width="402" height="75" rx="1" ry="1"/><path class="b" d="M400,0V73H0V0H400m0-2H0A2,2,0,0,0-2,0V72.52c0,1.1.9,2.48,2,2.48H400c1.1,0,2-1.38,2-2.48V0a2,2,0,0,0-2-2h0Z" transform="translate(2 2)"/><path class="b" d="M400.18,71.53L207,36.52,400.18,2a1,1,0,0,0-.35-2L201.39,35.49,0.18-1A1,1,0,0,0-1-.18,1,1,0,0,0-.18,1L195.75,36.5l-195.92,35A1,1,0,0,0-1,72.69a1,1,0,0,0,1,.82l0.18,0,201.21-36,198.43,36,0.18,0A1,1,0,0,0,400.18,71.53Z" transform="translate(2 2)"/><path class="b" d="M153.07,100.93a22.72,22.72,0,1,0,0,32.14A22.75,22.75,0,0,0,153.07,100.93ZM138.41,117l13.91-13.91a20.72,20.72,0,0,1,0,27.83Zm12.5-15.33L137,115.59l-13.91-13.91A20.65,20.65,0,0,1,150.91,101.67Zm-29.24,1.41L135.59,117l-13.91,13.91A20.72,20.72,0,0,1,121.67,103.09Zm1.41,29.24L137,118.41l13.91,13.91A20.72,20.72,0,0,1,123.09,132.33Z" transform="translate(2 2)"/><path class="b" d="M216.07,100.93a22.72,22.72,0,1,0,0,32.14A22.75,22.75,0,0,0,216.07,100.93ZM201.41,117l13.91-13.91a20.72,20.72,0,0,1,0,27.83Zm12.5-15.33L200,115.59l-13.91-13.91A20.65,20.65,0,0,1,213.91,101.67Zm-29.24,1.41L198.59,117l-13.91,13.91A20.72,20.72,0,0,1,184.67,103.09Zm1.41,29.24L200,118.41l13.91,13.91A20.72,20.72,0,0,1,186.09,132.33Z" transform="translate(2 2)"/><path class="b" d="M281.07,100.93a22.72,22.72,0,1,0,0,32.14A22.75,22.75,0,0,0,281.07,100.93ZM266.41,117l13.91-13.91a20.72,20.72,0,0,1,0,27.83Zm12.5-15.33L265,115.59l-13.91-13.91A20.65,20.65,0,0,1,278.91,101.67Zm-29.24,1.41L263.59,117l-13.91,13.91A20.72,20.72,0,0,1,249.67,103.09Zm1.41,29.24L265,118.41l13.91,13.91A20.72,20.72,0,0,1,251.09,132.33Z" transform="translate(2 2)"/><rect class="b" x="114.33" y="151.03" width="47.84" height="3.14"/><rect class="b" x="178.08" y="151.03" width="47.84" height="3.14"/><rect class="b" x="114.33" y="176.19" width="160.84" height="3.14"/><rect class="b" x="114.33" y="185.19" width="142.67" height="3.14"/><rect class="b" x="114.33" y="194.19" width="154.01" height="3.14"/><rect class="b" x="114.33" y="203.19" width="142.67" height="3.14"/><rect class="b" x="243.08" y="151.03" width="47.84" height="3.14"/></svg>