<?xml version="1.0" encoding="utf-8"?>
<!-- Generator: Adobe Illustrator 19.2.1, SVG Export Plug-In . SVG Version: 6.00 Build 0)  -->
<svg version="1.1" id="Layer_1" xmlns="http://www.w3.org/2000/svg" xmlns:xlink="http://www.w3.org/1999/xlink" x="0px" y="0px"
	 viewBox="0 0 404 224" style="enable-background:new 0 0 404 224;" xml:space="preserve">
<style type="text/css">
	.st0{fill:#FAFAFF;}
	.st1{fill:#635DA8;}
	.st2{fill:#FF7396;}
</style>
<title>wireframe1</title>
<path class="st0" d="M3,1h398c1.1,0,2,0.9,2,2v218c0,1.1-0.9,2-2,2H3c-1.1,0-2-0.9-2-2V3C1,1.9,1.9,1,3,1z"/>
<path class="st1" d="M401,2c0.6,0,1,0.4,1,1v218c0,0.6-0.4,1-1,1H3c-0.6,0-1-0.4-1-1V3c0-0.6,0.4-1,1-1H401 M401,0H3
	C1.3,0,0,1.3,0,3v218c0,1.7,1.3,3,3,3h398c1.7,0,3-1.3,3-3V3C404,1.3,402.7,0,401,0L401,0z"/>
<path class="st0" d="M2,1h400c0.6,0,1,0.4,1,1v73c0,0.6-0.4,1-1,1H2c-0.6,0-1-0.4-1-1V2C1,1.4,1.4,1,2,1z"/>
<path class="st2" d="M402,2v73H2V2H402 M402,0H2C0.9,0,0,0.9,0,2v72.5C0,75.6,0.9,77,2,77h400c1.1,0,2-1.4,2-2.5V2
	C404,0.9,403.1,0,402,0L402,0z"/>
<path class="st2" d="M402.2,73.5L209,38.5L402.2,4c0.6-0.1,0.9-0.6,0.8-1.2s-0.6-0.9-1.2-0.8l0,0L203.4,37.5L2.2,1
	C1.6,0.9,1.1,1.2,1,1.8l0,0C0.9,2.4,1.2,2.9,1.8,3l0,0l195.9,35.5L1.8,73.5c-0.5,0.1-0.9,0.6-0.8,1.1c0,0,0,0,0,0.1
	c0.1,0.5,0.5,0.8,1,0.8h0.2l201.2-36l198.4,36h0.2c0.6,0,1-0.5,1-1S402.6,73.6,402.2,73.5z"/>
<path class="st2" d="M155.1,102.9c-8.9-8.9-23.3-8.9-32.1,0s-8.9,23.3,0,32.1c8.9,8.9,23.3,8.9,32.1,0
	C163.9,126.2,163.9,111.8,155.1,102.9z M140.4,119l13.9-13.9c7.2,7.9,7.2,19.9,0,27.8L140.4,119z M152.9,103.7L139,117.6l-13.9-13.9
	C133,96.5,145,96.5,152.9,103.7z M123.7,105.1l13.9,13.9l-13.9,13.9C116.5,125,116.5,113,123.7,105.1L123.7,105.1z M125.1,134.3
	l13.9-13.9l13.9,13.9C145,141.5,133,141.5,125.1,134.3L125.1,134.3z"/>
<path class="st2" d="M218.1,102.9c-8.9-8.9-23.3-8.9-32.1,0c-8.9,8.9-8.9,23.3,0,32.1c8.9,8.9,23.3,8.9,32.1,0
	C226.9,126.2,226.9,111.8,218.1,102.9z M203.4,119l13.9-13.9c7.2,7.9,7.2,19.9,0,27.8L203.4,119z M215.9,103.7L202,117.6l-13.9-13.9
	C196,96.5,208,96.5,215.9,103.7z M186.7,105.1l13.9,13.9l-13.9,13.9C179.5,125,179.5,113,186.7,105.1L186.7,105.1z M188.1,134.3
	l13.9-13.9l13.9,13.9C208,141.5,196,141.5,188.1,134.3L188.1,134.3z"/>
<path class="st2" d="M283.1,102.9c-8.9-8.9-23.3-8.9-32.1,0c-8.9,8.9-8.9,23.3,0,32.1c8.9,8.9,23.3,8.9,32.1,0
	C291.9,126.2,291.9,111.8,283.1,102.9z M268.4,119l13.9-13.9c7.2,7.9,7.2,19.9,0,27.8L268.4,119z M280.9,103.7L267,117.6l-13.9-13.9
	C261,96.5,273,96.5,280.9,103.7z M251.7,105.1l13.9,13.9l-13.9,13.9C244.5,125,244.5,113,251.7,105.1L251.7,105.1z M253.1,134.3
	l13.9-13.9l13.9,13.9C273,141.5,261,141.5,253.1,134.3L253.1,134.3z"/>
<rect x="114.3" y="151" class="st2" width="47.8" height="3.1"/>
<rect x="178.1" y="151" class="st2" width="47.8" height="3.1"/>
<rect x="114.3" y="176.2" class="st2" width="160.8" height="3.1"/>
<rect x="114.3" y="185.2" class="st2" width="142.7" height="3.1"/>
<rect x="114.3" y="194.2" class="st2" width="154" height="3.1"/>
<rect x="114.3" y="203.2" class="st2" width="142.7" height="3.1"/>
<rect x="243.1" y="151" class="st2" width="47.8" height="3.1"/>
</svg>
