<?xml version="1.0" encoding="utf-8"?>
<!-- Generator: Adobe Illustrator 19.2.1, SVG Export Plug-In . SVG Version: 6.00 Build 0)  -->
<svg version="1.1" id="Layer_1" xmlns="http://www.w3.org/2000/svg" xmlns:xlink="http://www.w3.org/1999/xlink" x="0px" y="0px"
	 viewBox="0 0 404 224" style="enable-background:new 0 0 404 224;" xml:space="preserve">
<style type="text/css">
	.st0{fill:#FAFAFF;}
	.st1{fill:#635DA8;}
	.st2{fill:#FF7396;}
</style>
<title>wireframe2</title>
<path class="st0" d="M3,1h398c1.1,0,2,0.9,2,2v218c0,1.1-0.9,2-2,2H3c-1.1,0-2-0.9-2-2V3C1,1.9,1.9,1,3,1z"/>
<path class="st1" d="M401,2c0.6,0,1,0.4,1,1v218c0,0.6-0.4,1-1,1H3c-0.6,0-1-0.4-1-1V3c0-0.6,0.4-1,1-1H401 M401,0H3
	C1.3,0,0,1.3,0,3v218c0,1.7,1.3,3,3,3h398c1.7,0,3-1.3,3-3V3C404,1.3,402.7,0,401,0L401,0z"/>
<path class="st2" d="M155.1,108.9c-8.9-8.9-23.3-8.9-32.1,0s-8.9,23.3,0,32.1c8.9,8.9,23.3,8.9,32.1,0
	C163.9,132.2,163.9,117.8,155.1,108.9z M140.4,125l13.9-13.9c7.2,7.9,7.2,19.9,0,27.8L140.4,125z M152.9,109.7L139,123.6l-13.9-13.9
	C133,102.5,145,102.5,152.9,109.7z M123.7,111.1l13.9,13.9l-13.9,13.9C116.5,131,116.5,119,123.7,111.1L123.7,111.1z M125.1,140.3
	l13.9-13.9l13.9,13.9C145,147.5,133,147.5,125.1,140.3L125.1,140.3z"/>
<path class="st2" d="M155.1,171.9c-8.9-8.9-23.3-8.9-32.1,0c-8.9,8.9-8.9,23.3,0,32.1c8.9,8.9,23.3,8.9,32.1,0
	C163.9,195.2,163.9,180.8,155.1,171.9z M140.4,188l13.9-13.9c7.2,7.9,7.2,19.9,0,27.8L140.4,188z M152.9,172.7L139,186.6l-13.9-13.9
	C133,165.5,145,165.5,152.9,172.7z M123.7,174.1l13.9,13.9l-13.9,13.9C116.5,194,116.5,182,123.7,174.1L123.7,174.1z M125.1,203.3
	l13.9-13.9l13.9,13.9C145,210.5,133,210.5,125.1,203.3L125.1,203.3z"/>
<rect x="181.7" y="109.9" class="st2" width="93.5" height="3.1"/>
<rect x="181.7" y="118.9" class="st2" width="82.9" height="3.1"/>
<rect x="181.7" y="127.9" class="st2" width="89.5" height="3.1"/>
<rect x="181.7" y="136.9" class="st2" width="82.9" height="3.1"/>
<rect x="181.7" y="172.9" class="st2" width="89.5" height="3.1"/>
<rect x="181.7" y="181.9" class="st2" width="84.8" height="3.1"/>
<rect x="181.7" y="190.9" class="st2" width="97.7" height="3.1"/>
<rect x="181.7" y="199.9" class="st2" width="86.5" height="3.1"/>
<rect x="114.3" y="15.3" class="st0" width="176.6" height="66.3"/>
<path class="st2" d="M290.9,82.7H114.3c-0.6,0-1-0.4-1-1V15.3c0-0.6,0.4-1,1-1h176.6c0.6,0,1,0.4,1,1v66.3
	C291.9,82.2,291.5,82.7,290.9,82.7z M115.3,80.7h174.6V16.3H115.3V80.7L115.3,80.7z"/>
<path class="st2" d="M291.3,80.7l-85.8-32.2l85.8-32.2c0.5-0.2,0.8-0.7,0.7-1.3c-0.2-0.5-0.7-0.8-1.3-0.7h-0.1l-87.9,33l-87.9-33
	c-0.5-0.2-1.1,0.1-1.3,0.7c-0.2,0.5,0.1,1,0.6,1.2l85.8,32.2L114,80.7c-0.5,0.2-0.8,0.7-0.7,1.3s0.7,0.8,1.3,0.7h0.1l87.9-33
	l87.9,33c0.5,0.2,1.1,0,1.3-0.5s0-1.1-0.5-1.3C291.4,80.8,291.3,80.7,291.3,80.7z"/>
</svg>
