<svg xmlns="http://www.w3.org/2000/svg" viewBox="0 0 404 224"><defs><style>.a{fill:#ff7396;}.b{fill:#fff;}</style></defs><title>wireframe3</title><rect class="a" x="1" y="1" width="402" height="222" rx="2" ry="2"/><path class="b" d="M399,0a1,1,0,0,1,1,1V219a1,1,0,0,1-1,1H1a1,1,0,0,1-1-1V1A1,1,0,0,1,1,0H399m0-2H1A3,3,0,0,0-2,1V219a3,3,0,0,0,3,3H399a3,3,0,0,0,3-3V1a3,3,0,0,0-3-3h0Z" transform="translate(2 2)"/><path class="b" d="M216.07,30.93a22.72,22.72,0,1,0,0,32.14A22.75,22.75,0,0,0,216.07,30.93ZM201.41,47l13.91-13.91a20.72,20.72,0,0,1,0,27.83Zm12.5-15.33L200,45.59,186.09,31.67A20.65,20.65,0,0,1,213.91,31.67Zm-29.24,1.41L198.59,47,184.67,60.91A20.72,20.72,0,0,1,184.67,33.09Zm1.41,29.24L200,48.41l13.91,13.91A20.72,20.72,0,0,1,186.09,62.33Z" transform="translate(2 2)"/><rect class="b" x="155.25" y="81.5" width="93.5" height="3.14"/><rect class="b" x="160.53" y="91.11" width="82.94" height="3.14"/><rect class="b" x="157.24" y="100.72" width="89.53" height="3.14"/><rect class="b" x="160.53" y="110.33" width="82.94" height="3.14"/><path class="b" d="M288.25,125H111.75a1,1,0,0,1-1-1V13.5a1,1,0,0,1,1-1h176.5a1,1,0,0,1,1,1V124A1,1,0,0,1,288.25,125Zm-175.5-2h174.5V14.5H112.75V123Z" transform="translate(2 2)"/><path class="b" d="M289,142a1.61,1.61,0,0,0,.09-0.17,1,1,0,0,0,0-.16s0,0,0,0a0.91,0.91,0,0,0-.1-0.2,0.46,0.46,0,0,0-.23-0.24,1,1,0,0,0-.16-0.11l-0.15,0a1,1,0,0,0-.23-0.05H111.72a1,1,0,0,0-.22,0l-0.16,0a0.76,0.76,0,0,0-.4.36,1,1,0,0,0-.12.19v0a1.51,1.51,0,0,0,.1.17,1.66,1.66,0,0,0,.09.17v63a1.66,1.66,0,0,0-.09.17,1,1,0,0,0,0,.17s0,0,0,0a0.85,0.85,0,0,0,0,.09,1,1,0,0,0,.13.21l0.08,0.08a1,1,0,0,0,.2.13l0.1,0a1,1,0,0,0,.35.06h176.5a1,1,0,0,0,.35-0.06l0.1,0a1,1,0,0,0,.2-0.13l0.09-.08a1,1,0,0,0,.14-0.2,1,1,0,0,0,.05-0.1v0a1.55,1.55,0,0,0-.1-0.16A1.61,1.61,0,0,0,289,205V142Zm-176,1.42,84.28,30.08L113,203.6V143.43Zm4.52-.43h165L200,172.44ZM200,174.56L282.48,204h-165Zm2.72-1L287,143.43V203.6Z" transform="translate(2 2)"/></svg>