<?xml version="1.0" encoding="utf-8"?>
<!-- Generator: Adobe Illustrator 19.2.1, SVG Export Plug-In . SVG Version: 6.00 Build 0)  -->
<svg version="1.1" id="Layer_1" xmlns="http://www.w3.org/2000/svg" xmlns:xlink="http://www.w3.org/1999/xlink" x="0px" y="0px"
	 viewBox="0 0 404 224" style="enable-background:new 0 0 404 224;" xml:space="preserve">
<style type="text/css">
	.st0{fill:#FAFAFF;}
	.st1{fill:#635DA8;}
	.st2{fill:#FF7396;}
</style>
<title>wireframe3</title>
<path class="st0" d="M3,1h398c1.1,0,2,0.9,2,2v218c0,1.1-0.9,2-2,2H3c-1.1,0-2-0.9-2-2V3C1,1.9,1.9,1,3,1z"/>
<path class="st1" d="M401,2c0.6,0,1,0.4,1,1v218c0,0.6-0.4,1-1,1H3c-0.6,0-1-0.4-1-1V3c0-0.6,0.4-1,1-1H401 M401,0H3
	C1.3,0,0,1.3,0,3v218c0,1.7,1.3,3,3,3h398c1.7,0,3-1.3,3-3V3C404,1.3,402.7,0,401,0L401,0z"/>
<path class="st2" d="M218.1,32.9c-8.9-8.9-23.3-8.9-32.1,0c-8.9,8.9-8.9,23.3,0,32.1c8.9,8.9,23.3,8.9,32.1,0
	C226.9,56.2,226.9,41.8,218.1,32.9z M203.4,49l13.9-13.9c7.2,7.9,7.2,19.9,0,27.8L203.4,49z M215.9,33.7L202,47.6l-13.9-13.9
	C196,26.5,208,26.5,215.9,33.7z M186.7,35.1L200.6,49l-13.9,13.9C179.5,55,179.5,43,186.7,35.1L186.7,35.1z M188.1,64.3L202,50.4
	l13.9,13.9C208,71.5,196,71.5,188.1,64.3L188.1,64.3z"/>
<rect x="155.3" y="81.5" class="st2" width="93.5" height="3.1"/>
<rect x="160.5" y="91.1" class="st2" width="82.9" height="3.1"/>
<rect x="157.2" y="100.7" class="st2" width="89.5" height="3.1"/>
<rect x="160.5" y="110.3" class="st2" width="82.9" height="3.1"/>
<path class="st2" d="M290.3,127H113.8c-0.6,0-1-0.4-1-1V15.5c0-0.6,0.4-1,1-1h176.5c0.6,0,1,0.4,1,1V126
	C291.3,126.6,290.8,127,290.3,127z M114.8,125h174.5V16.5H114.8V125z"/>
<path class="st2" d="M291,144c0-0.1,0.1-0.1,0.1-0.2c0-0.1,0-0.1,0-0.2l0,0c0-0.1-0.1-0.1-0.1-0.2c0-0.1-0.1-0.2-0.2-0.2
	c0,0-0.1-0.1-0.2-0.1h-0.1c-0.1,0-0.2,0-0.2-0.1H113.7c-0.1,0-0.1,0-0.2,0h-0.2c-0.2,0.1-0.3,0.2-0.4,0.4c0,0.1-0.1,0.1-0.1,0.2l0,0
	c0,0.1,0.1,0.1,0.1,0.2c0,0.1,0.1,0.1,0.1,0.2v63c0,0.1-0.1,0.1-0.1,0.2c0,0.1,0,0.1,0,0.2l0,0v0.1c0,0.1,0.1,0.1,0.1,0.2l0.1,0.1
	c0.1,0.1,0.1,0.1,0.2,0.1h0.1c0.1,0,0.2,0.1,0.3,0.1h176.5c0.1,0,0.2,0,0.4-0.1h0.1c0.1,0,0.1-0.1,0.2-0.1l0.1-0.1
	c0.1-0.1,0.1-0.1,0.1-0.2v-0.1l0,0c0-0.1-0.1-0.1-0.1-0.2l-0.1-0.1L291,144L291,144z M115,145.4l84.3,30.1L115,205.6V145.4
	L115,145.4z M119.5,145h165L202,174.4L119.5,145z M202,176.6l82.5,29.4h-165L202,176.6z M204.7,175.6l84.3-30.1v60.2L204.7,175.6z"
	/>
</svg>
