<svg xmlns="http://www.w3.org/2000/svg" viewBox="0 0 404 224"><defs><style>.a{fill:#ff7396;}.b{fill:#fff;}</style></defs><title>wireframe2</title><rect class="a" x="1" y="1" width="402" height="222" rx="2" ry="2"/><path class="b" d="M399,0a1,1,0,0,1,1,1V219a1,1,0,0,1-1,1H1a1,1,0,0,1-1-1V1A1,1,0,0,1,1,0H399m0-2H1A3,3,0,0,0-2,1V219a3,3,0,0,0,3,3H399a3,3,0,0,0,3-3V1a3,3,0,0,0-3-3h0Z" transform="translate(2 2)"/><path class="b" d="M153.07,106.93a22.72,22.72,0,1,0,0,32.14A22.75,22.75,0,0,0,153.07,106.93ZM138.41,123l13.91-13.91a20.72,20.72,0,0,1,0,27.83Zm12.5-15.33L137,121.59l-13.91-13.91A20.65,20.65,0,0,1,150.91,107.67Zm-29.24,1.41L135.59,123l-13.91,13.91A20.72,20.72,0,0,1,121.67,109.09Zm1.41,29.24L137,124.41l13.91,13.91A20.72,20.72,0,0,1,123.09,138.33Z" transform="translate(2 2)"/><path class="b" d="M153.07,169.93a22.72,22.72,0,1,0,0,32.14A22.75,22.75,0,0,0,153.07,169.93ZM138.41,186l13.91-13.91a20.72,20.72,0,0,1,0,27.83Zm12.5-15.33L137,184.59l-13.91-13.91A20.65,20.65,0,0,1,150.91,170.67Zm-29.24,1.41L135.59,186l-13.91,13.91A20.72,20.72,0,0,1,121.67,172.09Zm1.41,29.24L137,187.41l13.91,13.91A20.72,20.72,0,0,1,123.09,201.33Z" transform="translate(2 2)"/><rect class="b" x="181.67" y="109.93" width="93.5" height="3.14"/><rect class="b" x="181.67" y="118.93" width="82.94" height="3.14"/><rect class="b" x="181.67" y="127.93" width="89.53" height="3.14"/><rect class="b" x="181.67" y="136.93" width="82.94" height="3.14"/><rect class="b" x="181.67" y="172.93" width="89.53" height="3.14"/><rect class="b" x="181.67" y="181.93" width="84.83" height="3.14"/><rect class="b" x="181.67" y="190.93" width="97.67" height="3.14"/><rect class="b" x="181.67" y="199.93" width="86.5" height="3.14"/><rect class="a" x="114.33" y="15.33" width="176.59" height="66.33"/><path class="b" d="M288.92,80.67H112.33a1,1,0,0,1-1-1V13.33a1,1,0,0,1,1-1H288.92a1,1,0,0,1,1,1V79.67A1,1,0,0,1,288.92,80.67Zm-175.59-2H287.92V14.33H113.33V78.67Z" transform="translate(2 2)"/><path class="b" d="M289.27,78.73L203.47,46.5l85.8-32.23a1,1,0,1,0-.7-1.87l-87.94,33-87.94-33a1,1,0,0,0-.7,1.87l85.8,32.23L112,78.73a1,1,0,1,0,.7,1.87l87.94-33,87.94,33A1,1,0,1,0,289.27,78.73Z" transform="translate(2 2)"/></svg>